<svg width="33" height="41" viewBox="0 0 33 41" fill="none" xmlns="http://www.w3.org/2000/svg">
<g filter="url(#filter0_i)">
<path d="M24.367 0C19.9602 1.54135 16.526 3.08271 17.0156 9.7619C21.4224 8.73433 25.3462 6.1654 24.367 0ZM10.3714 9.2738C6.12857 9.2738 0 13.1786 0 20.5C0 30.75 6.6 41 10.3714 41C13.2 41 15.5571 39.0476 17.4429 39.0476C19.3286 39.0476 21.2143 41 24.0429 41C27.8143 41 32.0571 35.1429 33 29.7738C29.7 27.3333 27.3429 25.8691 27.3429 21.4762C27.3429 18.5476 29.7 15.619 32.5286 13.1786C31.1143 11.2262 28.2857 9.2738 25.4571 9.2738C22.6286 9.2738 19.5869 11.5908 17.4429 11.7143C15.5571 11.7143 13.2 9.2738 10.3714 9.2738Z" fill="#1E91E0"/>
</g>
<defs>
<filter id="filter0_i" x="0" y="0" width="33" height="45" filterUnits="userSpaceOnUse" color-interpolation-filters="sRGB">
<feFlood flood-opacity="0" result="BackgroundImageFix"/>
<feBlend mode="normal" in="SourceGraphic" in2="BackgroundImageFix" result="shape"/>
<feColorMatrix in="SourceAlpha" type="matrix" values="0 0 0 0 0 0 0 0 0 0 0 0 0 0 0 0 0 0 127 0" result="hardAlpha"/>
<feOffset dy="4"/>
<feGaussianBlur stdDeviation="2"/>
<feComposite in2="hardAlpha" operator="arithmetic" k2="-1" k3="1"/>
<feColorMatrix type="matrix" values="0 0 0 0 0 0 0 0 0 0 0 0 0 0 0 0 0 0 0.25 0"/>
<feBlend mode="normal" in2="shape" result="effect1_innerShadow"/>
</filter>
</defs>
</svg>
