<svg width="23" height="22" viewBox="0 0 23 22" fill="none" xmlns="http://www.w3.org/2000/svg">
<path d="M22.1303 8.84565H21.2302V8.8H11.1738V13.2H17.4887C16.5674 15.7614 14.0919 17.6 11.1738 17.6C7.47137 17.6 4.46953 14.6448 4.46953 11C4.46953 7.35515 7.47137 4.4 11.1738 4.4C12.8828 4.4 14.4377 5.0347 15.6216 6.07145L18.7821 2.9601C16.7864 1.12915 14.117 0 11.1738 0C5.00308 0 0 4.92525 0 11C0 17.0748 5.00308 22 11.1738 22C17.3446 22 22.3476 17.0748 22.3476 11C22.3476 10.2625 22.2705 9.5425 22.1303 8.84565Z" fill="#FFC107"/>
<path d="M1.28833 5.88005L4.95949 8.5305C5.95284 6.1094 8.35856 4.4 11.1738 4.4C12.8828 4.4 14.4377 5.0347 15.6215 6.07145L18.7821 2.9601C16.7864 1.12915 14.117 0 11.1738 0C6.88194 0 3.15994 2.38535 1.28833 5.88005Z" fill="#FF3D00"/>
<path d="M11.1738 22C14.06 22 16.6825 20.9127 18.6653 19.1444L15.207 16.2635C14.0851 17.1001 12.6907 17.6 11.1738 17.6C8.2675 17.6 5.79976 15.7757 4.8701 13.2297L1.22632 15.9935C3.07558 19.5558 6.8311 22 11.1738 22Z" fill="#4CAF50"/>
<path d="M22.1303 8.84567H21.2303V8.80002H11.1738V13.2H17.4887C17.0462 14.4304 16.2423 15.4913 15.2053 16.2641C15.2059 16.2635 15.2065 16.2635 15.207 16.263L18.6653 19.1439C18.4206 19.3628 22.3476 16.5 22.3476 11C22.3476 10.2625 22.2705 9.54252 22.1303 8.84567Z" fill="#1976D2"/>
</svg>
