<svg width="456" height="365" viewBox="0 0 456 365" fill="none" xmlns="http://www.w3.org/2000/svg">
<path d="M451.465 361.051C458.264 323.164 464.74 238.133 412.665 148.53C412.665 148.53 384.478 89.9455 299.532 105.822C214.587 121.699 205.304 228.996 164.03 247.569C122.765 266.141 69.1203 254.786 40.2335 298.116C24.1948 322.166 21.5245 345.251 22.3094 361.051H451.465Z" fill="#9AC2DE"/>
<path d="M232.118 360.019H229.474C229.209 360.684 229.021 361.051 229.021 361.051L232.118 360.019Z" fill="#75E9D6"/>
<path d="M310.383 172.86H223.988C220.695 172.86 217.666 171.017 216.156 168.091L196.227 129.564C195.126 127.44 196.671 124.906 199.059 124.906H287.656C290.949 124.906 293.978 126.749 295.488 129.675L314.402 166.24C315.971 169.26 313.779 172.86 310.383 172.86Z" fill="url(#paint0_linear_615:2709)"/>
<path opacity="0.42" d="M306.775 178.533H220.379C217.086 178.533 214.058 176.69 212.548 173.764L192.619 135.237C191.518 133.113 193.062 130.579 195.451 130.579H284.048C287.341 130.579 290.369 132.422 291.88 135.348L310.793 171.913C312.363 174.942 310.17 178.533 306.775 178.533Z" fill="url(#paint1_linear_615:2709)"/>
<path opacity="0.46" d="M267.941 155.166H226.274C224.704 155.166 223.262 154.287 222.537 152.888L213.025 134.503C212.505 133.488 213.238 132.276 214.381 132.276H256.662C258.232 132.276 259.674 133.155 260.399 134.554L269.63 152.393C270.287 153.664 269.365 155.166 267.941 155.166Z" fill="#E7E8FA"/>
<path d="M269.741 151.779C269.741 151.779 262.165 148.332 260.646 147.368C259.128 146.404 254.171 140.475 252.926 139.792C251.689 139.101 250.034 138.828 249.615 138.965C249.206 139.101 246.032 138.828 245.623 138.965C245.213 139.101 240.939 138.41 240.385 138.555C239.83 138.692 237.902 137.864 237.766 138.555C237.629 139.246 237.629 139.656 239.003 140.074C240.385 140.483 244.241 141.174 244.241 141.174C244.241 141.174 243.413 141.311 242.722 142.002C242.031 142.693 241.204 143.657 241.204 144.203C241.204 144.749 242.031 146.549 242.304 147.513C242.577 148.477 244.369 149.714 245.06 150.132C245.751 150.542 245.887 149.578 245.614 148.75C245.341 147.923 244.65 147.095 244.65 147.095C244.65 147.095 245.205 148.196 246.305 149.023C247.406 149.851 249.888 150.678 249.888 150.678L255.4 151.915C255.4 151.915 258.019 154.261 260.501 155.908C262.984 157.563 266.149 159.627 266.149 159.627L269.741 151.779Z" fill="#FB7C5C"/>
<path d="M363.618 125.749C363.618 125.749 367.841 128.462 370.418 136.908C372.994 145.362 375.562 152.708 375.929 154.917C375.929 157.118 359.028 164.105 353.15 161.529C347.264 158.961 352.408 126.713 363.618 125.749Z" fill="#FFD64B"/>
<path d="M369.676 149.774C368.302 146.762 367.551 140.475 367.253 137.472C367.15 136.448 367.108 135.808 367.108 135.808L357.553 137.275C356.657 137.574 354.55 139.391 352.366 141.439C350.011 150.414 350.02 160.165 353.142 161.53C357.493 163.432 367.893 160.097 372.994 157.341C372.047 154.705 370.691 152.017 369.676 149.774Z" fill="#FFB46D"/>
<path d="M351.026 338.612C351.026 338.612 352.647 343.79 351.999 346.384C351.351 348.977 347.469 350.59 350.054 351.562C352.647 352.535 360.087 350.914 363.004 348.653C365.274 346.384 361.708 345.096 361.059 343.475C360.411 341.854 359.762 334.739 359.762 334.739L351.026 338.612Z" fill="#FB7C5C"/>
<path d="M352.128 344.183C353.954 343.108 356.351 342.221 356.496 344.908C356.624 347.382 355.72 349.924 353.868 351.75C352.298 351.921 350.916 351.886 350.063 351.571C347.47 350.598 351.36 348.986 352.008 346.392C352.153 345.761 352.179 344.993 352.128 344.183Z" fill="#FBA181"/>
<path d="M334.195 359.813C334.195 359.813 333.504 360.675 334.536 362.048C335.569 363.422 351.565 363.592 355.353 362.739C359.141 361.877 366.358 359.301 367.39 357.237C367.561 355.001 365.496 352.766 365.496 352.766L334.195 359.813Z" fill="#E1EAFB"/>
<path d="M366.161 355.043C365.274 357.108 359.567 359.701 355.378 360.887H334.297C333.606 360.06 333.325 359.121 334.442 358.934C336.387 358.934 343.178 356.024 345.123 354.728C347.068 353.431 347.068 350.198 349.653 349.225C359.686 351.17 363.244 345.992 363.244 345.992C364.865 348.577 364.54 349.873 364.54 349.873C364.54 349.873 367.134 352.774 366.161 355.043Z" fill="#025DA6"/>
<path d="M355.378 360.879H350.601C351.292 360.427 351.931 359.924 352.494 359.326C356.624 354.711 362.203 353.261 365.36 353.747C365.795 353.815 366.119 353.935 366.375 354.088C366.358 354.412 366.307 354.728 366.17 355.044C365.274 357.108 359.567 359.702 355.378 360.879Z" fill="#023C5D"/>
<path d="M354.874 217.742C354.874 217.742 354.413 233.798 352.118 242.508C349.823 251.227 348.45 263.154 349.363 273.699C350.284 284.252 353.952 292.501 354.405 300.299C354.865 308.096 361.631 335.618 361.17 338.374C360.709 340.669 353.833 341.582 349.704 340.208C347.409 338.374 334.22 295.718 329.638 286.077C325.049 276.446 326.883 268.187 326.431 262.685C325.97 257.182 324.136 217.273 324.136 217.273C324.136 217.273 344.781 210.857 354.874 217.742Z" fill="#721930"/>
<path d="M332.855 259.707C334.228 273.467 340.422 272.094 339.049 281.726C337.675 291.357 337.675 293.422 342.487 303.745C346.71 312.805 354.456 331.036 353.884 340.847C352.409 340.822 350.941 340.617 349.713 340.207C347.418 338.373 334.228 295.717 329.647 286.085C325.057 276.453 326.892 268.195 326.439 262.693C325.979 257.19 324.145 217.281 324.145 217.281C324.145 217.281 324.383 217.204 324.81 217.084L334.928 223.244C334.919 223.244 331.481 245.946 332.855 259.707Z" fill="#C05275"/>
<path d="M271.105 349.976C271.105 349.976 273.861 347.92 274.962 345.992C276.062 344.064 276.89 337.171 277.717 337.171C278.545 337.171 287.084 340.481 287.084 340.481L284.056 345.165L285.156 349.848C285.156 349.848 281.3 352.877 278.545 352.877C275.789 352.885 271.105 349.976 271.105 349.976Z" fill="#FB7C5C"/>
<path d="M282.111 338.613C280.072 337.862 278.093 337.18 277.717 337.18C276.89 337.18 276.062 344.073 274.962 346.001C273.861 347.929 271.105 349.985 271.105 349.985C271.105 349.985 274.475 352.067 277.18 352.707C277.538 352.306 277.828 351.905 277.999 351.512C279.287 348.569 277.632 345.08 278.553 343.245C279.244 341.846 281.206 339.611 282.111 338.613Z" fill="#FBA181"/>
<path d="M255.639 360.572C255.639 360.572 254.948 361.434 255.98 362.807C257.012 364.181 273.008 364.352 276.796 363.498C280.584 362.637 287.801 360.06 288.834 357.996C289.004 355.761 286.94 353.525 286.94 353.525L255.639 360.572Z" fill="#E1EAFB"/>
<path d="M287.613 355.804C286.726 357.869 281.019 360.462 276.83 361.648H255.749C255.058 360.82 254.777 359.882 255.894 359.694C257.839 359.694 264.63 356.785 266.575 355.488C268.521 354.192 268.521 350.958 271.105 349.986C281.138 351.931 284.696 346.752 284.696 346.752C286.317 349.346 285.993 350.634 285.993 350.634C285.993 350.634 288.586 353.535 287.613 355.804Z" fill="#025DA6"/>
<path d="M276.821 361.638H272.044C272.735 361.186 273.375 360.683 273.938 360.086C278.067 355.47 283.646 354.02 286.803 354.506C287.238 354.575 287.562 354.694 287.818 354.848C287.801 355.172 287.75 355.487 287.613 355.803C286.726 357.868 281.019 360.461 276.821 361.638Z" fill="#023C5D"/>
<path d="M302.586 208.102C302.586 208.102 296.742 229.14 292.878 243.472C289.022 257.805 288.467 275.439 284.611 287.57C280.755 299.693 277.718 328.912 276.617 332.769C275.517 336.625 275.517 339.38 278.818 339.935C282.128 340.489 283.229 342.69 287.085 340.489C290.941 338.288 297.28 318.445 302.245 301.357C307.202 284.269 309.411 279.312 313.267 268.835C317.124 258.359 323.189 251.747 328.7 242.38C334.212 233.013 338.622 218.68 338.622 218.68L302.586 208.102Z" fill="#721930"/>
<path d="M302.586 208.102C302.586 208.102 296.742 229.14 292.878 243.472C289.022 257.805 288.467 275.439 284.611 287.57C280.755 299.693 277.718 328.912 276.617 332.769C275.517 336.625 275.517 339.38 278.818 339.935C279.16 339.995 279.475 340.071 279.782 340.157C281.736 333.502 280.849 331.591 283.51 324.502C286.821 315.681 288.467 303.558 289.022 294.736C289.576 285.915 295.087 280.404 297.843 270.482C300.598 260.56 298.943 257.25 298.397 244.573C297.937 233.892 307.253 215.763 310.196 210.328L302.586 208.102Z" fill="#C05275"/>
<path d="M327.241 98.4834C327.241 98.4834 324.306 103.304 324.724 105.394C325.142 107.492 328.495 106.861 328.495 106.861L327.241 98.4834Z" fill="#FBA181"/>
<path d="M329.058 84.2964C329.058 84.2964 326.473 88.0587 326.473 91.5821C326.473 95.1055 325.066 112.492 327.412 114.599C329.758 116.715 339.159 114.36 339.159 114.36C339.159 114.36 343.621 113.183 345.498 106.606C347.375 100.028 341.736 88.5193 341.736 88.5193L329.058 84.2964Z" fill="#FB7C5C"/>
<path d="M334.672 113.456C334.672 113.456 335.73 119.189 332.548 124.273C332.548 124.273 342.947 123.429 348.885 124.06C348.885 124.06 347.614 114.087 347.827 111.118C348.041 108.149 338.494 110.273 334.672 113.456Z" fill="#FB7C5C"/>
<path d="M335.909 101.683C335.909 101.683 336.182 97.3238 338.221 98.4158C340.26 99.5078 339.723 106.307 337.402 106.853C335.099 107.399 335.636 102.639 335.909 101.683Z" fill="#FBA181"/>
<path d="M351.146 118.259C346.257 117.679 336.813 116.996 331.575 119.436L327.693 122.831L355.249 124.034L354.831 121.731C354.49 119.897 353.006 118.481 351.146 118.259Z" fill="#2DD7A2"/>
<path d="M309.24 147.113C309.24 139.827 311.186 130.605 316.526 126.237C321.867 121.869 334.536 121.869 334.536 121.869L355.847 122.841L363.619 125.75C363.619 125.75 368.959 129.632 367.987 137.404C367.987 137.404 367.261 141.371 362.45 155.814C357.63 170.266 357.758 177.552 355.693 181.681C353.628 185.81 356.947 197.097 358.321 203.291C359.694 209.484 356.947 221.181 353.501 225.31C350.062 229.439 330.799 234.251 318.412 226.001C306.024 217.743 303.277 212.24 302.586 208.111C301.895 203.982 312.175 179.804 312.175 170.173C312.167 160.532 309.24 147.113 309.24 147.113Z" fill="#2DD7A2"/>
<path d="M348.885 228.09C341.557 230.956 327.941 232.347 318.403 225.991C306.015 217.733 303.268 212.23 302.577 208.101C301.886 203.972 312.166 179.794 312.166 170.163C312.166 160.531 309.24 147.111 309.24 147.111C309.24 141.293 310.486 134.238 313.711 129.409C317.916 129.324 322.557 130.006 328.734 128.291C341.121 124.853 355.565 125.536 360.385 134.485C365.205 143.426 357.629 158.569 354.191 172.329C350.753 186.09 354.191 187.464 354.882 208.11C355.189 217.511 352.212 223.909 348.885 228.09Z" fill="#2DB985"/>
<path d="M325.552 83.5712C325.552 83.5712 322.156 87.9818 329.595 94.5936C336.361 101.384 330.909 108.713 336.702 118.635C342.486 128.556 344.696 126.355 344.141 140.679C343.587 155.012 344.414 163.279 354.618 168.235C364.812 173.192 378.317 167.681 380.527 154.184C382.728 140.679 371.987 131.858 370.051 120.008C368.122 108.158 373.079 101.82 367.295 94.6533C361.511 87.487 359.301 89.1421 356.819 81.9759C354.336 74.8096 343.587 73.4361 336.702 75.0826C329.809 76.7377 325.825 81.9161 325.552 83.5712Z" fill="#022347"/>
<path d="M341.13 74.4855C344.952 74.7414 351.692 75.9784 353.509 81.4213C356.077 89.1336 351.675 91.71 358.653 96.8544C365.632 101.999 366.741 100.898 365.265 111.554C363.797 122.209 364.164 124.419 368.575 131.397C372.986 138.376 375.553 153.075 369.675 162.997C368.251 165.394 366.271 167.758 364.079 169.95C371.766 169.259 378.957 163.714 380.51 154.176C382.711 140.671 371.97 131.85 370.034 120C368.106 108.15 373.062 101.811 367.278 94.6448C361.494 87.4785 359.284 89.1336 356.802 81.9673C354.823 76.2258 347.503 74.2039 341.13 74.4855Z" fill="#023C6F"/>
<path d="M318.574 125.093C318.574 125.093 313.063 125.827 308.652 135.382C304.242 144.937 295.42 159.636 292.485 160.37C289.542 161.103 289.918 158.535 279.62 153.391C269.323 148.247 266.388 147.505 266.388 147.505C266.388 147.505 260.877 150.448 261.244 157.06C261.978 160.003 262.345 161.103 262.345 161.103C262.345 161.103 274.834 167.715 279.612 171.759C284.389 175.803 291.001 178.004 295.045 179.48C299.089 180.947 310.111 169.558 313.054 165.514C315.998 161.47 328.12 146.771 329.221 139.059C330.33 131.338 328.496 123.626 318.574 125.093Z" fill="#2DD7A2"/>
<path d="M318.941 136.114C314.897 143.835 310.853 161.102 303.875 168.081C296.896 175.059 295.787 174.692 293.586 174.326C291.385 173.959 287.341 169.181 278.52 165.137C269.698 161.094 267.497 160.36 263.087 157.417C262.464 156.999 261.85 156.623 261.244 156.282C261.244 156.538 261.227 156.785 261.244 157.05C261.978 159.993 262.344 161.094 262.344 161.094C262.344 161.094 274.834 167.705 279.612 171.749C284.389 175.793 291.001 177.994 295.045 179.47C299.088 180.937 310.111 169.548 313.054 165.504C315.997 161.46 328.12 146.761 329.221 139.049C329.784 135.082 329.562 131.123 327.873 128.402C326.141 128.76 322.038 130.193 318.941 136.114Z" fill="#2DB985"/>
<path d="M260.646 147.368C259.128 146.404 254.171 140.475 252.926 139.792C251.689 139.101 250.034 138.828 249.616 138.965C249.206 139.101 246.032 138.828 245.623 138.965C245.213 139.101 240.939 138.41 240.385 138.555C239.83 138.692 237.902 137.864 237.766 138.555C237.766 138.555 241.391 139.792 245.99 139.98C250.58 140.168 251.689 141.814 254.077 144.024C256.466 146.225 257.021 148.614 259.222 149.723C260.348 150.286 261.713 149.458 262.779 148.511C261.832 148.025 261.039 147.616 260.646 147.368Z" fill="#FBA181"/>
<path d="M280.081 108.296H128.455C125.316 108.296 122.765 105.754 122.765 102.606V24.2294C122.765 21.0899 125.307 18.5391 128.455 18.5391H280.081C283.22 18.5391 285.771 21.0814 285.771 24.2294V102.606C285.771 105.745 283.22 108.296 280.081 108.296Z" fill="white"/>
<path d="M289.363 116.034H137.737C134.598 116.034 132.047 113.491 132.047 110.343V31.9667C132.047 28.8272 134.589 26.2764 137.737 26.2764H289.363C292.502 26.2764 295.053 28.8187 295.053 31.9667V110.343C295.053 113.483 292.511 116.034 289.363 116.034Z" stroke="white" stroke-miterlimit="10"/>
<path d="M137.003 55.7944H157.196C157.196 50.3941 154.228 45.8299 150.124 44.2943C152.197 43.2023 153.613 41.0353 153.613 38.5271C153.613 34.927 150.696 32.0093 147.095 32.0093C143.495 32.0093 140.578 34.927 140.578 38.5271C140.578 41.0268 141.994 43.2023 144.067 44.2943C139.972 45.8299 137.003 50.3941 137.003 55.7944Z" fill="#D6DEDB"/>
<path d="M137.003 91.7705H157.196C157.196 86.3702 154.228 81.806 150.124 80.2703C152.197 79.1783 153.613 77.0114 153.613 74.5032C153.613 70.903 150.696 67.9854 147.095 67.9854C143.495 67.9854 140.578 70.903 140.578 74.5032C140.578 77.0029 141.994 79.1783 144.067 80.2703C139.972 81.806 137.003 86.3702 137.003 91.7705Z" fill="#D6DEDB"/>
<path d="M172.596 55.7934H192.789C192.789 50.3931 189.82 45.8289 185.717 44.2933C187.79 43.2013 189.206 41.0344 189.206 38.5262C189.206 34.926 186.288 32.0083 182.688 32.0083C179.088 32.0083 176.17 34.926 176.17 38.5262C176.17 41.0258 177.586 43.2013 179.66 44.2933C175.565 45.8289 172.596 50.3931 172.596 55.7934Z" fill="url(#paint2_linear_615:2709)"/>
<path d="M172.596 91.7705H192.789C192.789 86.3702 189.82 81.806 185.717 80.2703C187.79 79.1783 189.206 77.0114 189.206 74.5032C189.206 70.903 186.288 67.9854 182.688 67.9854C179.088 67.9854 176.17 70.903 176.17 74.5032C176.17 77.0029 177.586 79.1783 179.66 80.2703C175.565 81.806 172.596 86.3702 172.596 91.7705Z" fill="#D6DEDB"/>
<path d="M348.288 46.2137H222.862C219.219 46.2137 216.259 43.2619 216.259 39.6105V6.60318C216.259 2.96034 219.211 0 222.862 0H348.288C351.931 0 354.891 2.95181 354.891 6.60318V39.6105C354.891 43.2619 351.931 46.2137 348.288 46.2137Z" fill="url(#paint3_linear_615:2709)"/>
<path d="M281.176 20.12C280.576 20.104 280.048 19.964 279.592 19.7C279.136 19.436 278.756 19.092 278.452 18.668C278.148 18.236 277.916 17.772 277.756 17.276C277.604 16.772 277.528 16.28 277.528 15.8C277.528 15.288 277.612 14.776 277.78 14.264C277.948 13.752 278.192 13.288 278.512 12.872C278.832 12.448 279.216 12.112 279.664 11.864C280.112 11.608 280.616 11.48 281.176 11.48C281.776 11.48 282.3 11.616 282.748 11.888C283.204 12.16 283.584 12.512 283.888 12.944C284.192 13.376 284.42 13.844 284.572 14.348C284.732 14.852 284.812 15.336 284.812 15.8C284.812 16.32 284.728 16.836 284.56 17.348C284.392 17.852 284.148 18.312 283.828 18.728C283.508 19.144 283.124 19.48 282.676 19.736C282.236 19.984 281.736 20.112 281.176 20.12ZM278.896 15.8C278.912 16.168 278.964 16.536 279.052 16.904C279.148 17.264 279.292 17.596 279.484 17.9C279.676 18.204 279.912 18.448 280.192 18.632C280.472 18.816 280.8 18.908 281.176 18.908C281.568 18.908 281.904 18.812 282.184 18.62C282.472 18.42 282.708 18.164 282.892 17.852C283.076 17.532 283.212 17.192 283.3 16.832C283.396 16.472 283.444 16.128 283.444 15.8C283.444 15.432 283.392 15.068 283.288 14.708C283.192 14.34 283.048 14.004 282.856 13.7C282.664 13.396 282.428 13.152 282.148 12.968C281.868 12.784 281.544 12.692 281.176 12.692C280.784 12.692 280.444 12.792 280.156 12.992C279.868 13.184 279.632 13.44 279.448 13.76C279.264 14.072 279.124 14.408 279.028 14.768C278.94 15.128 278.896 15.472 278.896 15.8ZM285.872 20C285.872 19.512 285.908 19.084 285.98 18.716C286.052 18.348 286.164 18.016 286.316 17.72C286.468 17.424 286.66 17.164 286.892 16.94C287.124 16.716 287.392 16.512 287.696 16.328C287.992 16.152 288.296 15.988 288.608 15.836C288.928 15.684 289.224 15.524 289.496 15.356C289.768 15.188 289.984 14.992 290.144 14.768C290.312 14.536 290.396 14.256 290.396 13.928C290.396 13.664 290.34 13.432 290.228 13.232C290.124 13.032 289.964 12.876 289.748 12.764C289.54 12.644 289.272 12.584 288.944 12.584C288.608 12.584 288.296 12.644 288.008 12.764C287.728 12.876 287.48 13.016 287.264 13.184C287.056 13.352 286.888 13.516 286.76 13.676L285.92 12.8C286 12.704 286.128 12.576 286.304 12.416C286.488 12.256 286.712 12.096 286.976 11.936C287.248 11.776 287.56 11.644 287.912 11.54C288.264 11.428 288.66 11.372 289.1 11.372C289.708 11.372 290.216 11.484 290.624 11.708C291.04 11.924 291.352 12.224 291.56 12.608C291.776 12.984 291.884 13.408 291.884 13.88C291.884 14.264 291.816 14.6 291.68 14.888C291.544 15.168 291.364 15.412 291.14 15.62C290.924 15.82 290.68 16 290.408 16.16C290.144 16.32 289.88 16.472 289.616 16.616C289.16 16.848 288.792 17.056 288.512 17.24C288.24 17.424 288.024 17.6 287.864 17.768C287.712 17.936 287.604 18.104 287.54 18.272C287.476 18.44 287.432 18.62 287.408 18.812H291.896V20H285.872ZM293.319 15.308V13.784H294.411V15.308H293.319ZM293.319 20V18.464H294.411V20H293.319ZM298.523 20.096C298.051 20.096 297.619 20.028 297.227 19.892C296.843 19.756 296.519 19.56 296.255 19.304C295.991 19.048 295.799 18.752 295.679 18.416L296.399 17.552C296.455 17.76 296.571 17.968 296.747 18.176C296.931 18.384 297.167 18.552 297.455 18.68C297.751 18.808 298.095 18.872 298.487 18.872C298.831 18.872 299.135 18.82 299.399 18.716C299.671 18.604 299.887 18.448 300.047 18.248C300.207 18.048 300.287 17.812 300.287 17.54C300.287 17.236 300.191 16.98 299.999 16.772C299.807 16.564 299.531 16.408 299.171 16.304C298.811 16.2 298.379 16.148 297.875 16.148H297.467V15.092H297.875C298.539 15.092 299.067 14.984 299.459 14.768C299.859 14.552 300.059 14.232 300.059 13.808C300.059 13.544 299.987 13.316 299.843 13.124C299.699 12.924 299.511 12.776 299.279 12.68C299.047 12.576 298.791 12.524 298.511 12.524C298.055 12.524 297.659 12.628 297.323 12.836C296.987 13.044 296.743 13.3 296.591 13.604L295.727 12.656C295.895 12.392 296.127 12.164 296.423 11.972C296.719 11.78 297.051 11.632 297.419 11.528C297.795 11.424 298.175 11.372 298.559 11.372C299.119 11.372 299.619 11.472 300.059 11.672C300.499 11.872 300.843 12.148 301.091 12.5C301.339 12.844 301.463 13.236 301.463 13.676C301.463 13.996 301.395 14.284 301.259 14.54C301.131 14.796 300.943 15.012 300.695 15.188C300.455 15.356 300.167 15.48 299.831 15.56C300.191 15.624 300.507 15.76 300.779 15.968C301.059 16.176 301.271 16.432 301.415 16.736C301.567 17.04 301.643 17.372 301.643 17.732C301.643 18.228 301.499 18.652 301.211 19.004C300.931 19.356 300.555 19.628 300.083 19.82C299.611 20.004 299.091 20.096 298.523 20.096ZM306.395 20.12C305.795 20.104 305.267 19.964 304.811 19.7C304.355 19.436 303.975 19.092 303.671 18.668C303.367 18.236 303.135 17.772 302.975 17.276C302.823 16.772 302.747 16.28 302.747 15.8C302.747 15.288 302.831 14.776 302.999 14.264C303.167 13.752 303.411 13.288 303.731 12.872C304.051 12.448 304.435 12.112 304.883 11.864C305.331 11.608 305.835 11.48 306.395 11.48C306.995 11.48 307.519 11.616 307.967 11.888C308.423 12.16 308.803 12.512 309.107 12.944C309.411 13.376 309.639 13.844 309.791 14.348C309.951 14.852 310.031 15.336 310.031 15.8C310.031 16.32 309.947 16.836 309.779 17.348C309.611 17.852 309.367 18.312 309.047 18.728C308.727 19.144 308.343 19.48 307.895 19.736C307.455 19.984 306.955 20.112 306.395 20.12ZM304.115 15.8C304.131 16.168 304.183 16.536 304.271 16.904C304.367 17.264 304.511 17.596 304.703 17.9C304.895 18.204 305.131 18.448 305.411 18.632C305.691 18.816 306.019 18.908 306.395 18.908C306.787 18.908 307.123 18.812 307.403 18.62C307.691 18.42 307.927 18.164 308.111 17.852C308.295 17.532 308.431 17.192 308.519 16.832C308.615 16.472 308.663 16.128 308.663 15.8C308.663 15.432 308.611 15.068 308.507 14.708C308.411 14.34 308.267 14.004 308.075 13.7C307.883 13.396 307.647 13.152 307.367 12.968C307.087 12.784 306.763 12.692 306.395 12.692C306.003 12.692 305.663 12.792 305.375 12.992C305.087 13.184 304.851 13.44 304.667 13.76C304.483 14.072 304.343 14.408 304.247 14.768C304.159 15.128 304.115 15.472 304.115 15.8ZM311.523 20V11.48H315.099C315.483 11.48 315.835 11.56 316.155 11.72C316.475 11.88 316.755 12.092 316.995 12.356C317.235 12.62 317.419 12.916 317.547 13.244C317.675 13.572 317.739 13.908 317.739 14.252C317.739 14.724 317.631 15.176 317.415 15.608C317.207 16.032 316.907 16.376 316.515 16.64C316.131 16.904 315.683 17.036 315.171 17.036H312.867V20H311.523ZM312.867 15.848H315.087C315.343 15.848 315.567 15.78 315.759 15.644C315.951 15.5 316.099 15.308 316.203 15.068C316.315 14.828 316.371 14.556 316.371 14.252C316.371 13.94 316.307 13.664 316.179 13.424C316.051 13.184 315.883 13 315.675 12.872C315.475 12.736 315.255 12.668 315.015 12.668H312.867V15.848ZM326.163 20V13.928L323.655 18.536H322.863L320.343 13.928V20H318.999V11.48H320.439L323.259 16.688L326.079 11.48H327.519V20H326.163Z" fill="white"/>
<path d="M336.583 29.0487C336.583 26.8903 334.835 25.1499 332.685 25.1499C330.526 25.1499 328.786 26.8988 328.786 29.0487C328.786 29.0487 328.59 32.6062 332.386 37.8273C332.54 38.0321 332.847 38.0321 332.992 37.8273C336.763 32.6745 336.583 29.0487 336.583 29.0487ZM332.685 30.772C331.738 30.772 330.961 30.0042 330.961 29.0487C330.961 28.1017 331.729 27.3254 332.685 27.3254C333.632 27.3254 334.408 28.0932 334.408 29.0487C334.399 29.9956 333.632 30.772 332.685 30.772Z" fill="url(#paint4_linear_615:2709)"/>
<path d="M318.883 30.6109H280.475C279.477 30.6109 278.675 29.809 278.675 28.8108C278.675 27.8127 279.477 27.0107 280.475 27.0107H318.883C319.881 27.0107 320.683 27.8127 320.683 28.8108C320.683 29.809 319.881 30.6109 318.883 30.6109Z" fill="white"/>
<path d="M298.176 36.9146H280.474C279.476 36.9146 278.674 36.1127 278.674 35.1145C278.674 34.1164 279.476 33.3145 280.474 33.3145H298.176C299.174 33.3145 299.976 34.1164 299.976 35.1145C299.976 36.1042 299.174 36.9146 298.176 36.9146Z" fill="white"/>
<path d="M248.378 41.1642C257.943 41.1642 265.696 33.4105 265.696 23.8458C265.696 14.2811 257.943 6.52734 248.378 6.52734C238.813 6.52734 231.06 14.2811 231.06 23.8458C231.06 33.4105 238.813 41.1642 248.378 41.1642Z" fill="url(#paint5_linear_615:2709)"/>
<path d="M248.566 32.2914C253.965 32.2914 258.343 27.9142 258.343 22.5146C258.343 17.115 253.965 12.7378 248.566 12.7378C243.166 12.7378 238.789 17.115 238.789 22.5146C238.789 27.9142 243.166 32.2914 248.566 32.2914Z" fill="#404A69"/>
<path d="M262.336 43.6811C261.969 36.2931 255.852 30.415 248.37 30.415C240.888 30.415 234.78 36.2931 234.404 43.6811H262.336Z" fill="#B15EF2"/>
<path d="M252.909 32.4793C252.909 34.979 250.878 37.0094 248.379 37.0094C245.879 37.0094 243.849 34.979 243.849 32.4793C243.849 29.9797 245.879 27.9492 248.379 27.9492C250.878 27.9492 252.909 29.9797 252.909 32.4793Z" fill="#FF7657"/>
<path d="M259.52 24.8434C259.52 26.0548 258.539 27.0359 257.327 27.0359C256.116 27.0359 255.135 26.0548 255.135 24.8434C255.135 23.632 256.116 22.6509 257.327 22.6509C258.539 22.6509 259.52 23.632 259.52 24.8434Z" fill="#FF7657"/>
<path d="M241.263 24.8434C241.263 26.0548 240.282 27.0359 239.07 27.0359C237.859 27.0359 236.878 26.0548 236.878 24.8434C236.878 23.632 237.859 22.6509 239.07 22.6509C240.282 22.6509 241.263 23.632 241.263 24.8434Z" fill="#FF7657"/>
<path d="M257.011 24.8431C257.011 29.6206 253.138 33.4937 248.361 33.4937C243.583 33.4937 239.71 29.6206 239.71 24.8431C239.71 20.0656 243.583 16.1924 248.361 16.1924C253.138 16.1924 257.011 20.0656 257.011 24.8431Z" fill="#FF9677"/>
<path d="M257.506 21.8914C256.542 24.7323 252.575 25.9523 248.651 24.6214C244.726 23.282 242.329 19.8951 243.293 17.0542C244.257 14.2133 248.224 12.9934 252.149 14.3242C256.082 15.6636 258.479 19.0505 257.506 21.8914Z" fill="#404A69"/>
<path d="M263.496 86.3446H213.256C212.019 86.3446 211.021 85.3379 211.021 84.1094V69.1712C211.021 67.9342 212.027 66.936 213.256 66.936H263.496C264.733 66.936 265.731 67.9427 265.731 69.1712V84.1094C265.731 85.3465 264.733 86.3446 263.496 86.3446Z" fill="url(#paint6_linear_615:2709)"/>
<path d="M229.018 78.9865C229.018 79.4045 228.908 79.7638 228.688 80.0645C228.475 80.3652 228.186 80.5962 227.819 80.7575C227.452 80.9188 227.049 80.9995 226.609 80.9995H222.88V73.1895H226.906C227.273 73.1895 227.588 73.2885 227.852 73.4865C228.123 73.6772 228.329 73.9265 228.468 74.2345C228.615 74.5352 228.688 74.8505 228.688 75.1805C228.688 75.5618 228.589 75.9212 228.391 76.2585C228.2 76.5885 227.925 76.8342 227.566 76.9955C228.013 77.1275 228.365 77.3695 228.622 77.7215C228.886 78.0662 229.018 78.4878 229.018 78.9865ZM227.753 78.7555C227.753 78.5355 227.705 78.3375 227.61 78.1615C227.522 77.9782 227.397 77.8315 227.236 77.7215C227.082 77.6042 226.899 77.5455 226.686 77.5455H224.112V79.9325H226.609C226.829 79.9325 227.023 79.8812 227.192 79.7785C227.368 79.6685 227.504 79.5255 227.599 79.3495C227.702 79.1662 227.753 78.9682 227.753 78.7555ZM224.112 74.2565V76.5555H226.378C226.583 76.5555 226.767 76.5078 226.928 76.4125C227.089 76.3098 227.218 76.1742 227.313 76.0055C227.408 75.8295 227.456 75.6315 227.456 75.4115C227.456 75.1842 227.412 74.9862 227.324 74.8175C227.236 74.6415 227.115 74.5058 226.961 74.4105C226.814 74.3078 226.642 74.2565 226.444 74.2565H224.112ZM233.548 81.0545C232.983 81.0545 232.474 80.9445 232.019 80.7245C231.564 80.5045 231.172 80.2075 230.842 79.8335C230.512 79.4522 230.255 79.0268 230.072 78.5575C229.896 78.0808 229.808 77.5932 229.808 77.0945C229.808 76.5738 229.903 76.0788 230.094 75.6095C230.285 75.1328 230.549 74.7112 230.886 74.3445C231.223 73.9705 231.619 73.6772 232.074 73.4645C232.536 73.2445 233.035 73.1345 233.57 73.1345C234.127 73.1345 234.633 73.2482 235.088 73.4755C235.55 73.7028 235.942 74.0072 236.265 74.3885C236.595 74.7698 236.848 75.1952 237.024 75.6645C237.207 76.1338 237.299 76.6142 237.299 77.1055C237.299 77.6262 237.204 78.1248 237.013 78.6015C236.83 79.0708 236.569 79.4925 236.232 79.8665C235.895 80.2332 235.495 80.5228 235.033 80.7355C234.578 80.9482 234.083 81.0545 233.548 81.0545ZM231.062 77.0945C231.062 77.4612 231.121 77.8168 231.238 78.1615C231.355 78.5062 231.52 78.8142 231.733 79.0855C231.953 79.3495 232.217 79.5585 232.525 79.7125C232.833 79.8665 233.178 79.9435 233.559 79.9435C233.955 79.9435 234.307 79.8628 234.615 79.7015C234.923 79.5402 235.18 79.3238 235.385 79.0525C235.598 78.7738 235.759 78.4658 235.869 78.1285C235.979 77.7838 236.034 77.4392 236.034 77.0945C236.034 76.7278 235.975 76.3758 235.858 76.0385C235.748 75.6938 235.583 75.3895 235.363 75.1255C235.143 74.8542 234.879 74.6415 234.571 74.4875C234.27 74.3335 233.933 74.2565 233.559 74.2565C233.163 74.2565 232.811 74.3372 232.503 74.4985C232.195 74.6598 231.935 74.8762 231.722 75.1475C231.509 75.4188 231.344 75.7232 231.227 76.0605C231.117 76.3978 231.062 76.7425 231.062 77.0945ZM241.819 81.0545C241.255 81.0545 240.745 80.9445 240.29 80.7245C239.836 80.5045 239.443 80.2075 239.113 79.8335C238.783 79.4522 238.527 79.0268 238.343 78.5575C238.167 78.0808 238.079 77.5932 238.079 77.0945C238.079 76.5738 238.175 76.0788 238.365 75.6095C238.556 75.1328 238.82 74.7112 239.157 74.3445C239.495 73.9705 239.891 73.6772 240.345 73.4645C240.807 73.2445 241.306 73.1345 241.841 73.1345C242.399 73.1345 242.905 73.2482 243.359 73.4755C243.821 73.7028 244.214 74.0072 244.536 74.3885C244.866 74.7698 245.119 75.1952 245.295 75.6645C245.479 76.1338 245.57 76.6142 245.57 77.1055C245.57 77.6262 245.475 78.1248 245.284 78.6015C245.101 79.0708 244.841 79.4925 244.503 79.8665C244.166 80.2332 243.766 80.5228 243.304 80.7355C242.85 80.9482 242.355 81.0545 241.819 81.0545ZM239.333 77.0945C239.333 77.4612 239.392 77.8168 239.509 78.1615C239.627 78.5062 239.792 78.8142 240.004 79.0855C240.224 79.3495 240.488 79.5585 240.796 79.7125C241.104 79.8665 241.449 79.9435 241.83 79.9435C242.226 79.9435 242.578 79.8628 242.886 79.7015C243.194 79.5402 243.451 79.3238 243.656 79.0525C243.869 78.7738 244.03 78.4658 244.14 78.1285C244.25 77.7838 244.305 77.4392 244.305 77.0945C244.305 76.7278 244.247 76.3758 244.129 76.0385C244.019 75.6938 243.854 75.3895 243.634 75.1255C243.414 74.8542 243.15 74.6415 242.842 74.4875C242.542 74.3335 242.204 74.2565 241.83 74.2565C241.434 74.2565 241.082 74.3372 240.774 74.4985C240.466 74.6598 240.206 74.8762 239.993 75.1475C239.781 75.4188 239.616 75.7232 239.498 76.0605C239.388 76.3978 239.333 76.7425 239.333 77.0945ZM246.846 80.9995V73.2005H248.078V77.2155L251.752 73.1895H253.116L250.036 76.6435L253.292 80.9995H251.895L249.255 77.4245L248.078 78.6455V80.9995H246.846Z" fill="white"/>
<path d="M45.5908 112.133V180.298C45.5908 183.617 48.2782 186.304 51.5968 186.304H169.106C172.425 186.304 175.112 183.617 175.112 180.298V112.133H45.5908Z" fill="url(#paint7_linear_615:2709)"/>
<path d="M169.115 98.5522H51.5968C48.2782 98.5522 45.5908 101.24 45.5908 104.558V116.715H175.121V104.558C175.121 101.248 172.433 98.5522 169.115 98.5522Z" fill="url(#paint8_linear_615:2709)"/>
<path d="M77.0885 140.423H63.1655C62.6536 140.423 62.2441 140.005 62.2441 139.502V125.579C62.2441 125.067 62.6622 124.658 63.1655 124.658H77.0885C77.6004 124.658 78.0099 125.076 78.0099 125.579V139.502C78.0099 140.005 77.6004 140.423 77.0885 140.423Z" fill="#D5EEFF"/>
<path d="M97.2057 140.423H83.2827C82.7708 140.423 82.3613 140.005 82.3613 139.502V125.579C82.3613 125.067 82.7794 124.657 83.2827 124.657H97.2057C97.7176 124.657 98.1271 125.075 98.1271 125.579V139.502C98.1271 140.005 97.709 140.423 97.2057 140.423Z" fill="#B3E0FF"/>
<path d="M117.313 140.423H103.39C102.878 140.423 102.469 140.005 102.469 139.502V125.579C102.469 125.067 102.887 124.657 103.39 124.657H117.313C117.825 124.657 118.234 125.075 118.234 125.579V139.502C118.243 140.005 117.825 140.423 117.313 140.423Z" fill="#D5EEFF"/>
<path d="M137.429 140.423H123.506C122.994 140.423 122.585 140.005 122.585 139.502V125.579C122.585 125.067 123.003 124.657 123.506 124.657H137.429C137.941 124.657 138.351 125.075 138.351 125.579V139.502C138.359 140.005 137.941 140.423 137.429 140.423Z" fill="#D5EEFF"/>
<path d="M157.547 140.423H143.624C143.112 140.423 142.702 140.005 142.702 139.502V125.579C142.702 125.067 143.12 124.657 143.624 124.657H157.547C158.058 124.657 158.468 125.075 158.468 125.579V139.502C158.468 140.005 158.058 140.423 157.547 140.423Z" fill="#D5EEFF"/>
<path d="M77.0885 159.534H63.1655C62.6536 159.534 62.2441 159.116 62.2441 158.613V144.69C62.2441 144.178 62.6622 143.769 63.1655 143.769H77.0885C77.6004 143.769 78.0099 144.187 78.0099 144.69V158.613C78.0099 159.116 77.6004 159.534 77.0885 159.534Z" fill="#D5EEFF"/>
<path d="M97.2057 159.534H83.2827C82.7708 159.534 82.3613 159.116 82.3613 158.612V144.689C82.3613 144.178 82.7794 143.768 83.2827 143.768H97.2057C97.7176 143.768 98.1271 144.186 98.1271 144.689V158.612C98.1271 159.116 97.709 159.534 97.2057 159.534Z" fill="#D5EEFF"/>
<path d="M117.313 159.534H103.39C102.878 159.534 102.469 159.116 102.469 158.612V144.689C102.469 144.178 102.887 143.768 103.39 143.768H117.313C117.825 143.768 118.234 144.186 118.234 144.689V158.612C118.243 159.116 117.825 159.534 117.313 159.534Z" fill="#D5EEFF"/>
<path d="M137.429 159.534H123.506C122.994 159.534 122.585 159.116 122.585 158.612V144.689C122.585 144.178 123.003 143.768 123.506 143.768H137.429C137.941 143.768 138.351 144.186 138.351 144.689V158.612C138.359 159.116 137.941 159.534 137.429 159.534Z" fill="#C9E9FF"/>
<path d="M157.547 159.534H143.624C143.112 159.534 142.702 159.116 142.702 158.612V144.689C142.702 144.178 143.12 143.768 143.624 143.768H157.547C158.058 143.768 158.468 144.186 158.468 144.689V158.612C158.468 159.116 158.058 159.534 157.547 159.534Z" fill="#C9E9FF"/>
<path d="M77.0885 178.634H63.1655C62.6536 178.634 62.2441 178.216 62.2441 177.713V163.79C62.2441 163.278 62.6622 162.869 63.1655 162.869H77.0885C77.6004 162.869 78.0099 163.287 78.0099 163.79V177.713C78.0099 178.225 77.6004 178.634 77.0885 178.634Z" fill="#B3E0FF"/>
<path d="M97.2057 178.634H83.2827C82.7708 178.634 82.3613 178.216 82.3613 177.713V163.79C82.3613 163.278 82.7794 162.868 83.2827 162.868H97.2057C97.7176 162.868 98.1271 163.286 98.1271 163.79V177.713C98.1271 178.224 97.709 178.634 97.2057 178.634Z" fill="#D5EEFF"/>
<path d="M117.313 178.634H103.39C102.878 178.634 102.469 178.216 102.469 177.713V163.79C102.469 163.278 102.887 162.868 103.39 162.868H117.313C117.825 162.868 118.234 163.286 118.234 163.79V177.713C118.243 178.224 117.825 178.634 117.313 178.634Z" fill="#D5EEFF"/>
<path d="M137.429 178.634H123.506C122.994 178.634 122.585 178.216 122.585 177.713V163.79C122.585 163.278 123.003 162.868 123.506 162.868H137.429C137.941 162.868 138.351 163.286 138.351 163.79V177.713C138.359 178.224 137.941 178.634 137.429 178.634Z" fill="#0F639C"/>
<path d="M157.547 178.634H143.624C143.112 178.634 142.702 178.216 142.702 177.713V163.79C142.702 163.278 143.12 162.868 143.624 162.868H157.547C158.058 162.868 158.468 163.286 158.468 163.79V177.713C158.468 178.224 158.058 178.634 157.547 178.634Z" fill="#D5EEFF"/>
<path d="M200.066 217.136H102.981C100.233 217.136 98.0068 214.91 98.0068 212.163V188.07C98.0068 185.323 100.233 183.097 102.981 183.097H200.066C202.813 183.097 205.04 185.323 205.04 188.07V212.163C205.04 214.901 202.813 217.136 200.066 217.136Z" fill="url(#paint9_linear_615:2709)"/>
<path d="M131.616 197.224H127.84V207H126.032V197.224H122.24V195.64H131.616V197.224ZM142.467 195.64V207H140.659V201.992H134.931V207H133.139V195.64H134.931V200.392H140.659V195.64H142.467ZM149.766 207.08C148.859 207.08 148.091 206.925 147.462 206.616C146.843 206.307 146.342 205.885 145.958 205.352C145.585 204.819 145.307 204.211 145.126 203.528C144.955 202.845 144.87 202.136 144.87 201.4V195.64H146.662V201.4C146.662 201.923 146.715 202.429 146.822 202.92C146.929 203.4 147.099 203.832 147.334 204.216C147.569 204.6 147.883 204.904 148.278 205.128C148.683 205.352 149.179 205.464 149.766 205.464C150.363 205.464 150.859 205.352 151.254 205.128C151.659 204.893 151.974 204.584 152.198 204.2C152.433 203.805 152.603 203.368 152.71 202.888C152.817 202.408 152.87 201.912 152.87 201.4V195.64H154.678V201.4C154.678 202.179 154.582 202.915 154.39 203.608C154.209 204.291 153.921 204.893 153.526 205.416C153.142 205.928 152.641 206.333 152.022 206.632C151.403 206.931 150.651 207.08 149.766 207.08Z" fill="white"/>
<path d="M163.704 207C163.704 206.349 163.752 205.779 163.848 205.288C163.944 204.797 164.093 204.355 164.296 203.96C164.499 203.565 164.755 203.219 165.064 202.92C165.373 202.621 165.731 202.349 166.136 202.104C166.531 201.869 166.936 201.651 167.352 201.448C167.779 201.245 168.173 201.032 168.536 200.808C168.899 200.584 169.187 200.323 169.4 200.024C169.624 199.715 169.736 199.341 169.736 198.904C169.736 198.552 169.661 198.243 169.512 197.976C169.373 197.709 169.16 197.501 168.872 197.352C168.595 197.192 168.237 197.112 167.8 197.112C167.352 197.112 166.936 197.192 166.552 197.352C166.179 197.501 165.848 197.688 165.56 197.912C165.283 198.136 165.059 198.355 164.888 198.568L163.768 197.4C163.875 197.272 164.045 197.101 164.28 196.888C164.525 196.675 164.824 196.461 165.176 196.248C165.539 196.035 165.955 195.859 166.424 195.72C166.893 195.571 167.421 195.496 168.008 195.496C168.819 195.496 169.496 195.645 170.04 195.944C170.595 196.232 171.011 196.632 171.288 197.144C171.576 197.645 171.72 198.211 171.72 198.84C171.72 199.352 171.629 199.8 171.448 200.184C171.267 200.557 171.027 200.883 170.728 201.16C170.44 201.427 170.115 201.667 169.752 201.88C169.4 202.093 169.048 202.296 168.696 202.488C168.088 202.797 167.597 203.075 167.224 203.32C166.861 203.565 166.573 203.8 166.36 204.024C166.157 204.248 166.013 204.472 165.928 204.696C165.843 204.92 165.784 205.16 165.752 205.416H171.736V207H163.704ZM177.01 207.128C176.381 207.128 175.805 207.037 175.282 206.856C174.77 206.675 174.338 206.413 173.986 206.072C173.634 205.731 173.378 205.336 173.218 204.888L174.178 203.736C174.253 204.013 174.407 204.291 174.642 204.568C174.887 204.845 175.202 205.069 175.586 205.24C175.981 205.411 176.439 205.496 176.962 205.496C177.421 205.496 177.826 205.427 178.178 205.288C178.541 205.139 178.829 204.931 179.042 204.664C179.255 204.397 179.362 204.083 179.362 203.72C179.362 203.315 179.234 202.973 178.978 202.696C178.722 202.419 178.354 202.211 177.874 202.072C177.394 201.933 176.818 201.864 176.146 201.864H175.602V200.456H176.146C177.031 200.456 177.735 200.312 178.258 200.024C178.791 199.736 179.058 199.309 179.058 198.744C179.058 198.392 178.962 198.088 178.77 197.832C178.578 197.565 178.327 197.368 178.018 197.24C177.709 197.101 177.367 197.032 176.994 197.032C176.386 197.032 175.858 197.171 175.41 197.448C174.962 197.725 174.637 198.067 174.434 198.472L173.282 197.208C173.506 196.856 173.815 196.552 174.21 196.296C174.605 196.04 175.047 195.843 175.538 195.704C176.039 195.565 176.546 195.496 177.058 195.496C177.805 195.496 178.471 195.629 179.058 195.896C179.645 196.163 180.103 196.531 180.434 197C180.765 197.459 180.93 197.981 180.93 198.568C180.93 198.995 180.839 199.379 180.658 199.72C180.487 200.061 180.237 200.349 179.906 200.584C179.586 200.808 179.202 200.973 178.754 201.08C179.234 201.165 179.655 201.347 180.018 201.624C180.391 201.901 180.674 202.243 180.866 202.648C181.069 203.053 181.17 203.496 181.17 203.976C181.17 204.637 180.978 205.203 180.594 205.672C180.221 206.141 179.719 206.504 179.09 206.76C178.461 207.005 177.767 207.128 177.01 207.128Z" fill="white"/>
<path d="M294.925 87.7857C297.276 87.7857 299.182 85.8797 299.182 83.5286C299.182 81.1774 297.276 79.2715 294.925 79.2715C292.574 79.2715 290.668 81.1774 290.668 83.5286C290.668 85.8797 292.574 87.7857 294.925 87.7857Z" fill="url(#paint10_linear_615:2709)"/>
<path d="M199.366 10.5441C200.935 10.5441 202.207 9.2722 202.207 7.70321C202.207 6.13422 200.935 4.8623 199.366 4.8623C197.797 4.8623 196.525 6.13422 196.525 7.70321C196.525 9.2722 197.797 10.5441 199.366 10.5441Z" fill="url(#paint11_linear_615:2709)"/>
<path d="M306.144 60.0671C307.713 60.0671 308.985 58.7951 308.985 57.2262C308.985 55.6572 307.713 54.3853 306.144 54.3853C304.575 54.3853 303.303 55.6572 303.303 57.2262C303.303 58.7951 304.575 60.0671 306.144 60.0671Z" fill="url(#paint12_linear_615:2709)"/>
<path d="M90.7809 199.342C90.7809 201.764 88.8187 203.727 86.3958 203.727C83.9729 203.727 82.0107 201.764 82.0107 199.342C82.0107 196.919 83.9729 194.957 86.3958 194.957C88.8187 194.957 90.7809 196.919 90.7809 199.342Z" stroke="#10B7E3" stroke-miterlimit="10"/>
<path d="M189.308 174.574C189.308 176.144 188.037 177.415 186.467 177.415C184.897 177.415 183.626 176.144 183.626 174.574C183.626 173.005 184.897 171.733 186.467 171.733C188.037 171.742 189.308 173.013 189.308 174.574Z" stroke="#10B7E3" stroke-miterlimit="10"/>
<path d="M358.756 56.195C360.325 56.195 361.597 54.9231 361.597 53.3541C361.597 51.7851 360.325 50.5132 358.756 50.5132C357.187 50.5132 355.915 51.7851 355.915 53.3541C355.915 54.9231 357.187 56.195 358.756 56.195Z" stroke="#7F5EFF" stroke-miterlimit="10"/>
<path d="M72.4727 87.4023H111.93" stroke="#7F5EFF" stroke-miterlimit="10" stroke-linecap="round" stroke-linejoin="round"/>
<path d="M215.619 201.141H230.318V185.665H262.814" stroke="#7F5EFF" stroke-miterlimit="10" stroke-linecap="round" stroke-linejoin="round"/>
<path d="M133.292 360.018C148.981 340.754 150.619 317.558 150.619 317.558C124.121 319.289 103.484 345.668 94.1592 360.018H133.292Z" fill="#1C86D0"/>
<path d="M109.43 360.018C104.465 339.807 79.1273 251.654 13.4111 243.438C13.4111 243.438 14.3666 310.818 57.2276 360.018H109.43Z" fill="#1F6899"/>
<path d="M73.0615 360.018C60.7766 341.257 34.125 307.567 0 305.341C0 305.341 2.09015 335.081 22.0959 360.018H73.0615Z" fill="#1C86D0"/>
<path d="M455.97 305.264C440.938 276.881 416.965 247.977 380.682 243.438C380.682 243.438 381.637 310.818 424.498 360.018H451.645C453.974 346.718 456.2 327.889 455.97 305.264Z" fill="#1F6899"/>
<path d="M440.332 360.018C428.047 341.257 401.395 307.567 367.271 305.341C367.271 305.341 369.361 335.081 389.366 360.018H440.332Z" fill="#1C86D0"/>
<path d="M168.833 360.021C160.643 349.962 159.79 337.856 159.79 337.856C173.628 338.761 184.394 352.539 189.265 360.021H168.833Z" fill="#1C86D0"/>
<path d="M181.289 360.02C183.883 349.467 197.115 303.441 231.427 299.149C231.427 299.149 230.924 334.332 208.546 360.02H181.289Z" fill="#1F6899"/>
<path d="M200.279 360.02C206.695 350.226 220.609 332.634 238.431 331.474C238.431 331.474 237.339 347.001 226.897 360.02H200.279Z" fill="#1C86D0"/>
<path d="M420.403 221.778C439.49 221.778 454.963 206.305 454.963 187.218C454.963 168.131 439.49 152.658 420.403 152.658C401.316 152.658 385.843 168.131 385.843 187.218C385.843 206.305 401.316 221.778 420.403 221.778Z" stroke="#1C86D0" stroke-miterlimit="10"/>
<path d="M120.188 279.542C129.588 279.542 137.208 271.922 137.208 262.522C137.208 253.122 129.588 245.502 120.188 245.502C110.788 245.502 103.168 253.122 103.168 262.522C103.168 271.922 110.788 279.542 120.188 279.542Z" stroke="#1C86D0" stroke-miterlimit="10"/>
<path d="M265.134 265.099C271.4 265.099 276.48 260.019 276.48 253.753C276.48 247.486 271.4 242.406 265.134 242.406C258.867 242.406 253.787 247.486 253.787 253.753C253.787 260.019 258.867 265.099 265.134 265.099Z" stroke="#1C86D0" stroke-miterlimit="10"/>
<defs>
<linearGradient id="paint0_linear_615:2709" x1="255.392" y1="124.906" x2="255.392" y2="172.86" gradientUnits="userSpaceOnUse">
<stop stop-color="#0B588C"/>
<stop offset="1" stop-color="#1F8FDD"/>
</linearGradient>
<linearGradient id="paint1_linear_615:2709" x1="232.079" y1="194.513" x2="253.744" y2="150.022" gradientUnits="userSpaceOnUse">
<stop stop-color="#0C5A90"/>
<stop offset="1" stop-color="#1C88D3"/>
</linearGradient>
<linearGradient id="paint2_linear_615:2709" x1="162.074" y1="20.9719" x2="203.856" y2="76.6817" gradientUnits="userSpaceOnUse">
<stop stop-color="#10B7E3"/>
<stop offset="1" stop-color="#71D3D5"/>
</linearGradient>
<linearGradient id="paint3_linear_615:2709" x1="285.575" y1="0" x2="285.575" y2="46.2137" gradientUnits="userSpaceOnUse">
<stop stop-color="#0B588C"/>
<stop offset="1" stop-color="#1F8FDD"/>
</linearGradient>
<linearGradient id="paint4_linear_615:2709" x1="322.085" y1="14.9684" x2="348.393" y2="52.882" gradientUnits="userSpaceOnUse">
<stop stop-color="#10B7E3"/>
<stop offset="1" stop-color="#71D3D5"/>
</linearGradient>
<linearGradient id="paint5_linear_615:2709" x1="231.059" y1="23.8463" x2="265.691" y2="23.8463" gradientUnits="userSpaceOnUse">
<stop stop-color="#10B7E3"/>
<stop offset="1" stop-color="#71D3D5"/>
</linearGradient>
<linearGradient id="paint6_linear_615:2709" x1="211.017" y1="76.6381" x2="265.734" y2="76.6381" gradientUnits="userSpaceOnUse">
<stop stop-color="#10B7E3"/>
<stop offset="1" stop-color="#71D3D5"/>
</linearGradient>
<linearGradient id="paint7_linear_615:2709" x1="110.356" y1="205.702" x2="110.356" y2="143.807" gradientUnits="userSpaceOnUse">
<stop stop-color="#D8E2F6"/>
<stop offset="0.00971049" stop-color="#DAE3F6"/>
<stop offset="0.1219" stop-color="#EBF0FA"/>
<stop offset="0.2609" stop-color="#F6F9FD"/>
<stop offset="0.4566" stop-color="#FDFEFF"/>
<stop offset="1" stop-color="white"/>
</linearGradient>
<linearGradient id="paint8_linear_615:2709" x1="50.9998" y1="108" x2="171" y2="108" gradientUnits="userSpaceOnUse">
<stop stop-color="#0B588C"/>
<stop offset="1" stop-color="#1F8FDD"/>
</linearGradient>
<linearGradient id="paint9_linear_615:2709" x1="186.671" y1="124.22" x2="103.596" y2="303.588" gradientUnits="userSpaceOnUse">
<stop stop-color="#10B7E3"/>
<stop offset="1" stop-color="#71D3D5"/>
</linearGradient>
<linearGradient id="paint10_linear_615:2709" x1="289.334" y1="73.0497" x2="301.714" y2="96.2623" gradientUnits="userSpaceOnUse">
<stop stop-color="#8182EE"/>
<stop offset="1" stop-color="#6060E7"/>
</linearGradient>
<linearGradient id="paint11_linear_615:2709" x1="195.639" y1="0.716719" x2="203.892" y2="16.1914" gradientUnits="userSpaceOnUse">
<stop stop-color="#8182EE"/>
<stop offset="1" stop-color="#6060E7"/>
</linearGradient>
<linearGradient id="paint12_linear_615:2709" x1="302.417" y1="50.2357" x2="310.67" y2="65.7105" gradientUnits="userSpaceOnUse">
<stop stop-color="#8182EE"/>
<stop offset="1" stop-color="#6060E7"/>
</linearGradient>
</defs>
</svg>
