<svg width="34" height="40" viewBox="0 0 34 40" fill="none" xmlns="http://www.w3.org/2000/svg">
<g filter="url(#filter0_i)">
<path d="M32.9156 30.7014C32.7092 30.3057 32.5028 29.91 32.5028 29.5144C32.5028 28.723 32.0901 28.1295 31.471 27.5359C31.2646 27.3381 30.8519 27.1402 30.6455 27.1402C31.8837 23.5791 30.0264 20.0179 27.9628 17.446C26.3118 15.0719 23.8354 13.2913 24.0418 10.1258C24.0418 6.36679 24.4545 -0.557698 17.2317 0.0358295C9.80244 0.431514 11.8661 7.75169 11.6597 10.3236C11.6597 12.4999 10.6279 14.6762 8.97698 16.4568C8.56424 16.8524 8.15151 17.446 7.94514 17.8417C5.88147 20.2158 4.84963 23.3812 4.84963 26.3489C4.4369 26.7446 4.02416 27.1402 3.81779 27.5359C3.61143 27.7338 3.40506 27.9316 3.40506 28.1295C3.19869 28.3273 2.78596 28.5251 2.37322 28.723C1.54775 28.9208 0.928652 29.3165 0.515918 30.1079C0.309551 30.7014 0.103184 31.4928 0.309551 32.2841C0.515918 32.6798 0.515918 33.0755 0.309551 33.669C-0.103184 34.4604 -0.103184 35.4496 0.309551 36.4388C0.928653 37.2302 1.96049 37.4281 3.40506 37.6259C4.4369 37.6259 5.6751 38.0216 6.70693 38.4173C7.73877 39.0108 8.97697 39.4065 10.2152 39.4065C10.8343 39.4065 11.6597 39.2086 12.2788 39.0108C12.898 38.6151 13.3107 38.2194 13.5171 37.6259C14.3425 37.6259 15.5807 37.2302 17.0253 37.2302C18.2635 37.2302 19.5017 37.6259 21.1526 37.4281C21.1526 37.6259 21.1526 37.8237 21.359 38.0216C21.7717 39.0108 22.8036 39.8022 24.0418 40C24.2481 40 24.2481 40 24.4545 40C26.1055 39.8022 27.7564 39.0108 28.7882 37.8237C29.6137 37.0324 30.6455 36.4388 31.6774 36.0432C32.9156 35.4496 33.741 35.0539 33.9474 34.0647C34.1538 32.6798 33.741 31.8885 32.9156 30.7014ZM18.6762 5.37758C19.9144 5.57542 20.9463 6.56463 20.7399 7.75168C20.7399 8.34521 20.5335 8.93874 20.1208 9.53227C20.1208 9.53227 20.1208 9.53227 19.9144 9.53227C19.5017 9.33442 19.2953 9.33442 19.089 9.13658C19.2953 8.93874 19.2953 8.54305 19.5017 8.14737C19.5017 7.356 19.089 6.76247 18.6762 6.76247C18.0571 6.76247 17.6444 7.356 17.6444 8.14737V8.34521C17.438 8.14737 17.0253 8.14737 16.8189 7.94953V7.75168C16.6126 6.76247 17.438 5.57542 18.6762 5.37758ZM18.0571 9.33442C18.2635 9.53227 18.6762 9.73011 18.8826 9.73011C19.089 9.73011 19.5017 9.92795 19.7081 10.1258C20.1208 10.3236 20.5335 10.5215 20.5335 11.115C20.5335 11.7085 19.9144 12.3021 18.6762 12.6977C18.2635 12.8956 18.0571 12.8956 17.8508 13.0934C17.2317 13.4891 16.6126 13.687 15.7871 13.687C15.168 13.687 14.5489 13.2913 14.1362 12.8956C13.9298 12.6977 13.7234 12.4999 13.3107 12.3021C13.1043 12.1042 12.6916 11.7085 12.4852 11.115C12.4852 10.9172 12.6916 10.7193 12.898 10.5215C13.5171 10.1258 13.7234 9.92795 13.9298 9.73011L14.1362 9.53227C14.5489 8.93874 15.3744 8.54306 16.1998 8.54306C16.8189 8.7409 17.438 8.93874 18.0571 9.33442ZM13.7234 5.77326C14.5489 5.77326 15.168 6.56463 15.3744 7.94953C15.3744 8.14737 15.3744 8.14737 15.3744 8.34521C15.168 8.34521 14.7553 8.54305 14.5489 8.7409C14.5489 8.7409 14.5489 8.54306 14.5489 8.34521C14.5489 7.75169 14.1362 7.15816 13.7234 7.356C13.3107 7.356 13.1043 7.94953 13.1043 8.54306C13.1043 8.93874 13.3107 9.13658 13.5171 9.33442C13.5171 9.33442 13.3107 9.53227 13.1043 9.53227C12.6916 9.13658 12.2788 8.54305 12.2788 7.94953C12.2788 6.76247 12.898 5.77326 13.7234 5.77326ZM11.6597 37.6259C10.2152 38.2194 8.35787 38.0216 7.11967 37.2302C5.88147 36.6367 4.84963 36.4388 3.40506 36.4388C2.37322 36.241 1.34139 36.241 1.13502 35.8453C0.928653 35.4496 0.928652 34.8561 1.34139 33.8669C1.54775 33.2734 1.54775 32.6798 1.34139 32.0863C1.13502 31.4928 1.13502 31.0971 1.34139 30.5036C1.54775 29.91 1.96049 29.7122 2.57959 29.5144C3.19869 29.3165 3.61143 29.1187 4.02416 28.723C4.23053 28.5251 4.4369 28.3273 4.64326 27.9316C5.26236 27.1402 5.6751 26.7446 6.2942 26.7446C7.5324 26.9424 8.56424 28.723 9.38971 30.5036C9.80244 31.0971 10.2152 31.8885 10.8343 32.482C11.6597 33.4712 12.6916 34.8561 12.6916 35.6475C12.6916 36.6367 12.2788 37.2302 11.6597 37.6259ZM21.7717 33.2734C21.7717 33.4712 21.7717 33.4712 21.5654 33.669C19.089 35.4496 15.7871 35.6475 13.1043 34.2626C12.6916 33.669 12.2789 33.0755 11.8661 32.482C13.7234 32.2841 13.3107 29.91 9.38971 27.5359C5.26236 24.964 8.1515 20.2158 9.59608 18.0395C9.80244 17.8416 9.80244 18.0395 8.97698 19.6222C8.35787 20.8093 7.11967 23.7769 8.77061 25.9532C8.77061 24.3704 9.18334 22.7877 9.80244 21.205C11.247 18.633 12.2789 15.6654 12.898 12.6977C13.1043 12.8956 13.1043 12.8956 13.3107 12.8956C13.5171 13.0934 13.7234 13.2913 13.9298 13.2913C14.3425 13.8848 15.168 14.0826 15.7871 14.0826H15.9935C16.8189 14.0826 17.6444 13.8848 18.2635 13.2913C18.4699 13.0934 18.6762 12.8956 19.089 12.8956C19.7081 12.6977 20.3272 12.3021 20.9463 11.7085C21.7717 14.2805 22.5972 16.6546 23.8354 18.8309C24.6609 20.4136 25.28 21.9963 25.6927 23.7769C26.3118 23.7769 27.1373 23.9748 27.7564 24.3704C29.4073 25.1618 30.0264 25.7553 29.8201 26.7446C29.6137 26.7446 29.6137 26.7446 29.4073 26.7446C29.4073 26.151 28.9946 25.5575 27.55 24.964C26.1055 24.3704 24.8673 24.3705 24.4545 25.7553C24.2481 25.7553 24.0418 25.9532 23.8354 25.9532C22.1845 26.7446 22.1845 28.9208 21.9781 31.0971C22.1845 31.8885 21.9781 32.482 21.7717 33.2734ZM31.2646 34.4604C30.0264 34.8561 28.9946 35.6475 28.1691 36.6367C27.3437 37.8237 25.8991 38.6151 24.2481 38.4173C23.4227 38.4173 22.5972 37.8237 22.3908 37.0324C22.1845 35.8453 22.1845 34.6583 22.8036 33.4712C23.0099 32.6798 23.2163 32.0863 23.4227 31.2949C23.629 28.9208 23.629 27.5359 24.6609 26.9424C24.6609 27.9316 25.28 28.5251 26.1055 28.9208C27.1373 28.9208 28.1691 28.723 28.9946 27.9316C29.201 27.9316 29.201 27.9316 29.4073 27.9316C30.0264 27.9316 30.4392 27.9316 30.8519 28.3273C31.2646 28.723 31.471 29.3165 31.471 29.7122C31.471 30.3057 31.8837 30.8993 32.0901 31.4928C33.1219 32.482 33.1219 33.0755 33.1219 33.2734C32.9156 33.669 32.0901 34.0647 31.2646 34.4604ZM12.6916 10.7193C12.4852 10.7193 12.4852 10.7193 12.4852 10.9172C12.4852 10.9172 12.4852 11.115 12.6916 11.115C12.898 11.115 12.898 11.3128 12.898 11.3128C13.5171 12.1042 14.5489 12.4999 15.7871 12.6977C16.8189 12.4999 17.8508 12.3021 18.8826 11.5107C19.2953 11.3128 19.7081 11.115 20.1208 10.9172C20.3272 10.9172 20.3272 10.7193 20.3272 10.7193C20.3272 10.5215 20.3272 10.5215 20.1208 10.5215C19.7081 10.7193 19.089 10.9172 18.6762 11.115C17.8508 11.7085 16.8189 12.1042 15.7871 12.1042C14.7553 12.1042 13.9298 11.5107 13.3107 10.9172C13.1043 10.9172 12.898 10.7193 12.6916 10.7193Z" fill="#1E91E0"/>
</g>
<defs>
<filter id="filter0_i" x="0" y="0" width="34" height="44" filterUnits="userSpaceOnUse" color-interpolation-filters="sRGB">
<feFlood flood-opacity="0" result="BackgroundImageFix"/>
<feBlend mode="normal" in="SourceGraphic" in2="BackgroundImageFix" result="shape"/>
<feColorMatrix in="SourceAlpha" type="matrix" values="0 0 0 0 0 0 0 0 0 0 0 0 0 0 0 0 0 0 127 0" result="hardAlpha"/>
<feOffset dy="4"/>
<feGaussianBlur stdDeviation="2"/>
<feComposite in2="hardAlpha" operator="arithmetic" k2="-1" k3="1"/>
<feColorMatrix type="matrix" values="0 0 0 0 0 0 0 0 0 0 0 0 0 0 0 0 0 0 0.25 0"/>
<feBlend mode="normal" in2="shape" result="effect1_innerShadow"/>
</filter>
</defs>
</svg>
