<svg width="651" height="481" viewBox="0 0 651 481" fill="none" xmlns="http://www.w3.org/2000/svg">
<path d="M585.77 448.104H542.647V448.43H585.77V448.104Z" fill="#56B9FE"/>
<path d="M431.248 451.652H419.934V451.978H431.248V451.652Z" fill="#56B9FE"/>
<path d="M541.346 435.999H516.36V436.325H541.346V435.999Z" fill="#56B9FE"/>
<path d="M124.536 438.191H68.3029V438.517H124.536V438.191Z" fill="#56B9FE"/>
<path d="M144.379 438.191H136.137V438.517H144.379V438.191Z" fill="#56B9FE"/>
<path d="M293.145 443.695H171.174V444.021H293.145V443.695Z" fill="#56B9FE"/>
<path d="M308.587 368.941H57.1838C53.0825 368.941 49.7494 365.602 49.7494 361.494V7.44796C49.7494 3.33919 53.0825 0 57.1838 0H308.6C312.701 0 316.034 3.33919 316.034 7.44796V361.494C316.021 365.602 312.688 368.941 308.587 368.941ZM57.1838 0.326093C53.2648 0.326093 50.0749 3.5218 50.0749 7.44796V361.494C50.0749 365.42 53.2648 368.615 57.1838 368.615H308.6C312.519 368.615 315.709 365.42 315.709 361.494V7.44796C315.709 3.5218 312.519 0.326093 308.6 0.326093H57.1838Z" fill="#56B9FE"/>
<path d="M590.21 368.941H338.793C334.692 368.941 331.359 365.602 331.359 361.494V7.44796C331.359 3.33919 334.692 0 338.793 0H590.21C594.311 0 597.644 3.33919 597.644 7.44796V361.494C597.644 365.602 594.311 368.941 590.21 368.941ZM338.793 0.326093C334.874 0.326093 331.684 3.5218 331.684 7.44796V361.494C331.684 365.42 334.874 368.615 338.793 368.615H590.21C594.129 368.615 597.318 365.42 597.318 361.494V7.44796C597.318 3.5218 594.129 0.326093 590.21 0.326093H338.793Z" fill="#56B9FE"/>
<path d="M651 427.116H0V427.443H651V427.116Z" fill="#56B9FE"/>
<path d="M406.406 426.777H112.61L110.188 418.455H408.828L406.406 426.777Z" fill="#BFDCF1"/>
<path d="M256.715 305.392H96.7256V360.724H256.715V305.392Z" fill="#B6DAF4"/>
<path d="M256.715 360.711H96.7256V416.042H256.715V360.711Z" fill="#B6DAF4"/>
<path d="M256.72 313.887V308.292L96.7302 308.292V313.887L256.72 313.887Z" fill="#BFDCF1"/>
<path d="M256.713 368.781V363.186L96.7233 363.186V368.781L256.713 368.781Z" fill="#BFDCF1"/>
<path d="M93.9263 302.901V418.455H96.7256H99.5249H253.929H256.728H259.528V302.901H93.9263ZM253.916 412.86H99.5249V363.633H253.929V412.86H253.916ZM253.916 358.037H99.5249V308.81H253.929V358.037H253.916Z" fill="#1274B8"/>
<path d="M422.29 305.392H262.301V360.724H422.29V305.392Z" fill="#B6DAF4"/>
<path d="M422.29 360.711H262.301V416.042H422.29V360.711Z" fill="#B6DAF4"/>
<path d="M422.296 313.9V308.304L262.306 308.304V313.9L422.296 313.9Z" fill="#BFDCF1"/>
<path d="M422.289 368.794V363.198L262.299 363.198V368.794L422.289 368.794Z" fill="#BFDCF1"/>
<path d="M259.515 302.901V418.455H262.314H265.113H419.504H422.304H425.103V302.901H259.515ZM419.504 412.86H265.1V363.633H419.504V412.86ZM419.504 358.037H265.1V308.81H419.504V358.037Z" fill="#1274B8"/>
<path d="M347.1 338.237C347.1 340.897 344.952 343.05 342.296 343.05C339.64 343.05 337.491 340.897 337.491 338.237C337.491 335.576 339.64 333.423 342.296 333.423C344.952 333.423 347.1 335.576 347.1 338.237Z" fill="#BFDCF1"/>
<path d="M347.1 336.88C347.1 339.541 344.952 341.693 342.296 341.693C339.64 341.693 337.491 339.541 337.491 336.88C337.491 334.219 339.64 332.067 342.296 332.067C344.952 332.067 347.1 334.219 347.1 336.88Z" fill="#2092E1"/>
<path d="M347.1 389.055C347.1 391.716 344.952 393.868 342.296 393.868C339.64 393.868 337.491 391.716 337.491 389.055C337.491 386.394 339.64 384.242 342.296 384.242C344.952 384.242 347.1 386.394 347.1 389.055Z" fill="#BFDCF1"/>
<path d="M347.1 387.698C347.1 390.359 344.952 392.511 342.296 392.511C339.64 392.511 337.491 390.359 337.491 387.698C337.491 385.037 339.64 382.885 342.296 382.885C344.952 382.885 347.1 385.037 347.1 387.698Z" fill="#2092E1"/>
<path d="M181.525 338.237C181.525 340.897 179.377 343.05 176.721 343.05C174.064 343.05 171.916 340.897 171.916 338.237C171.916 335.576 174.064 333.423 176.721 333.423C179.377 333.423 181.525 335.576 181.525 338.237Z" fill="#BFDCF1"/>
<path d="M181.525 336.88C181.525 339.541 179.377 341.693 176.721 341.693C174.064 341.693 171.916 339.541 171.916 336.88C171.916 334.219 174.064 332.067 176.721 332.067C179.377 332.067 181.525 334.219 181.525 336.88Z" fill="#2092E1"/>
<path d="M181.525 389.055C181.525 391.716 179.377 393.868 176.721 393.868C174.064 393.868 171.916 391.716 171.916 389.055C171.916 386.394 174.064 384.242 176.721 384.242C179.377 384.242 181.525 386.394 181.525 389.055Z" fill="#BFDCF1"/>
<path d="M181.525 387.698C181.525 390.359 179.377 392.511 176.721 392.511C174.064 392.511 171.916 390.359 171.916 387.698C171.916 385.037 174.064 382.885 176.721 382.885C179.377 382.885 181.525 385.037 181.525 387.698Z" fill="#2092E1"/>
<path d="M483.693 284.523C486.583 281.301 490.737 277.792 495.125 277.088C508.548 274.948 507.051 302.536 506.921 309.593C506.895 310.858 508.848 310.858 508.874 309.593C509.03 301.271 510.501 275.17 496.583 275.001C491.14 274.935 485.776 279.266 482.313 283.14C481.48 284.079 482.86 285.462 483.693 284.523Z" fill="#1274B8"/>
<path d="M525.461 267.566C522.688 268.009 520.513 271.231 519.224 273.409C513.053 283.844 512.636 297.892 512.246 309.619C512.207 310.884 514.16 310.871 514.199 309.619C514.576 298.388 514.928 285.201 520.539 275.066C521.607 273.135 523.482 269.861 525.982 269.457C527.219 269.248 526.685 267.37 525.461 267.566Z" fill="#1274B8"/>
<path d="M483.003 283.831C483.003 283.831 470.907 263.809 462.028 281.862C460.582 284.796 459.71 287.862 459.254 290.927C462.965 289.297 470.881 286.296 470.998 290.366C471.09 293.64 466.467 299.053 462.9 302.719C460.882 304.792 460.127 307.793 460.908 310.584C462.9 317.693 465.608 322.649 465.608 322.649C465.608 322.649 468.264 321.645 472.17 319.78C474.644 318.606 476.389 316.31 476.896 313.61C477.443 310.675 478.394 307.558 479.969 306.632C481.558 305.706 482.821 307.44 483.68 309.436C484.396 311.08 486.414 311.653 487.859 310.61C489.799 309.201 491.687 307.688 493.445 306.084C494.499 305.119 494.643 303.488 493.77 302.366C491.843 299.901 490.06 296.966 490.789 295.271C491.492 293.64 494.773 293.614 497.937 294.005C500.554 294.331 502.936 292.453 503.249 289.818V289.766C505.527 270.292 483.003 283.831 483.003 283.831Z" fill="#1274B8"/>
<path d="M530.057 263.261C530.057 263.261 542.153 243.239 551.032 261.292C552.478 264.227 553.35 267.292 553.806 270.357C550.095 268.727 542.179 265.727 542.062 269.796C541.971 273.07 546.593 278.483 550.16 282.149C552.178 284.223 552.933 287.223 552.152 290.014C550.16 297.123 547.452 302.079 547.452 302.079C547.452 302.079 544.796 301.075 540.89 299.21C538.416 298.036 536.671 295.74 536.164 293.04C535.617 290.105 534.666 286.988 533.091 286.062C531.502 285.136 530.239 286.87 529.38 288.866C528.664 290.51 526.646 291.084 525.201 290.04C523.261 288.631 521.373 287.118 519.615 285.514C518.561 284.549 518.417 282.918 519.29 281.796C521.217 279.331 523 276.396 522.271 274.701C521.568 273.07 518.287 273.044 515.123 273.435C512.506 273.761 510.124 271.883 509.811 269.248V269.196C507.533 249.722 530.057 263.261 530.057 263.261Z" fill="#1E5A84"/>
<path d="M461.116 404.446C461.116 413.264 462.496 418.964 464.827 422.629C466.572 425.382 469.722 426.934 472.977 426.934H485.724C488.979 426.934 492.117 425.382 493.875 422.629C496.205 418.964 497.585 413.264 497.585 404.446C497.585 391.664 492.026 381.424 490.203 373.246C489.552 370.298 491.726 361.285 491.726 361.285H466.988C466.988 361.285 469.163 370.311 468.512 373.246C466.689 381.424 461.116 391.664 461.116 404.446Z" fill="#1E5A84"/>
<path d="M479.344 352.689C479.344 341.589 496.726 346.193 501.101 328.962C502.754 322.441 488.628 307.662 488.628 307.662H532.7C532.7 307.662 518.56 322.441 520.227 328.962C524.602 346.193 541.983 341.576 541.983 352.689C541.983 364.924 517.467 390.385 516.295 419.055C516.191 421.612 520.904 426.934 520.904 426.934H500.437C500.437 426.934 505.15 421.625 505.046 419.055C503.861 390.385 479.344 364.911 479.344 352.689Z" fill="#B6DAF4"/>
<path d="M546.567 381.542C544.002 376.142 549.301 357.789 549.301 357.789H530.2C530.2 357.789 535.5 376.142 532.935 381.542C531.125 385.35 527.01 387.79 527.01 392.29V419.381C527.01 426.399 532.739 426.921 539.744 426.921C546.749 426.921 552.478 426.399 552.478 419.381V392.29C552.491 387.79 548.376 385.35 546.567 381.542Z" fill="#1E5A84"/>
<path d="M519.55 302.236C519.55 302.236 532.101 292.753 534.328 305.992C534.692 308.145 534.64 310.245 534.302 312.24C532.101 310.349 527.323 306.619 526.386 309.11C525.631 311.106 527.649 315.54 529.302 318.645C530.24 320.406 530.122 322.428 528.99 323.967C526.112 327.88 523.209 330.293 523.209 330.293C523.209 330.293 521.607 329.041 519.329 326.967C517.884 325.649 517.181 323.823 517.402 322.049C517.649 320.106 517.662 317.954 516.777 317.014C515.892 316.062 514.655 316.832 513.639 317.862C512.806 318.71 511.295 318.58 510.527 317.588C509.499 316.258 508.522 314.875 507.663 313.467C507.142 312.619 507.389 311.575 508.236 311.093C510.085 310.023 511.933 308.64 511.79 307.427C511.647 306.253 509.408 305.458 507.155 304.949C505.293 304.532 504.056 302.81 504.408 301.114L504.421 301.075C507.012 288.54 519.55 302.236 519.55 302.236Z" fill="#1274B8"/>
<path d="M490.455 149.478H496.184V132.756H490.455V149.478Z" fill="#263238"/>
<path d="M474.605 123.25C475.321 118.202 479.188 115.176 483.823 115.098C484.396 115.085 488.263 115.111 488.966 115.098C489.565 115.085 490.177 115.124 490.789 115.202C492.664 115.463 494.252 115.633 495.75 115.724C497.273 115.633 498.9 115.463 500.84 115.202C501.53 115.111 507.051 115.098 507.533 115.098C512.311 115.059 515.579 118.098 515.045 123.25C515.032 123.354 515.032 123.407 515.019 123.511C514.433 129.185 509.368 135.289 503.666 136.059C499.356 136.633 496.505 136.802 493.185 136.594C489.825 136.802 487 136.633 482.847 136.059C477.339 135.302 473.759 129.185 474.566 123.511C474.592 123.42 474.592 123.367 474.605 123.25Z" fill="#263238"/>
<path d="M513.834 140.35C513.092 140.376 509.564 140.285 508.457 140.35C507.585 140.403 506.647 140.546 505.658 140.807C500.489 142.19 496.322 142.998 492.377 143.246C488.497 142.998 484.526 142.19 479.696 140.807C478.485 140.455 477.3 140.298 476.181 140.337C475.386 140.363 472.04 140.337 471.155 140.337C466.988 140.363 463.694 142.933 462.978 147.707C460.348 165.094 457.718 182.482 455.088 199.869H503.744C508.327 199.869 512.571 198.486 516.126 196.125C517.649 179.977 519.16 163.842 520.683 147.694C521.152 142.75 518.274 140.168 513.834 140.35Z" fill="#263238"/>
<path opacity="0.2" d="M482.847 136.059C488.953 136.907 492.143 136.907 498.458 136.059C504.161 135.302 509.225 129.185 509.811 123.511C509.824 123.407 509.824 123.354 509.837 123.25C510.423 117.576 506.4 114.459 500.841 115.202C494.669 116.024 491.557 116.024 485.594 115.202C480.204 114.459 475.425 117.576 474.618 123.25C474.605 123.354 474.592 123.407 474.579 123.511C473.759 129.185 477.339 135.302 482.847 136.059Z" fill="white"/>
<path opacity="0.2" d="M505.658 140.807C493.015 144.185 486.31 144.185 474.501 140.807C468.837 139.189 463.89 141.707 462.991 147.707C460.361 165.094 457.731 182.482 455.101 199.869H503.757C506.179 199.869 508.509 199.478 510.683 198.76C512.285 181.738 513.886 164.716 515.488 147.707C516.035 141.707 511.712 139.189 505.658 140.807Z" fill="white"/>
<path d="M427.564 174.081L418.593 174.942L404.857 171.694L399.87 179.938L403.073 181.568L407.552 180.199L413.737 181.412L419.309 180.551L429.881 180.812L427.564 174.081Z" fill="#FFC3BD"/>
<path d="M423.931 173.742L426.066 181.425C426.066 181.425 441.534 183.538 447.615 180.864C453.695 178.203 449.099 133.242 443.253 133.737C437.407 134.233 440.623 159.107 440.623 166.92C440.623 172.881 423.931 173.742 423.931 173.742Z" fill="#F16E22"/>
<path opacity="0.7" d="M423.931 173.742L426.066 181.425C426.066 181.425 441.534 183.538 447.615 180.864C453.695 178.203 449.099 133.242 443.253 133.737C437.407 134.233 440.623 159.107 440.623 166.92C440.623 172.881 423.931 173.742 423.931 173.742Z" fill="white"/>
<path d="M442.094 133.776C436.235 142.176 449.698 155.351 449.984 199.869H493.458C494.721 187.843 499.213 140.729 492.95 131.833C485.75 121.62 447.68 125.781 442.094 133.776Z" fill="#F16E22"/>
<path d="M456.156 125.82C456.156 125.82 445.766 129.759 455.166 138.968L460.179 136.907L467.405 138.968C467.405 138.981 485.737 118.698 456.156 125.82Z" fill="#F16E22"/>
<path opacity="0.7" d="M456.156 125.82C456.156 125.82 445.766 129.759 455.166 138.968L460.179 136.907L467.405 138.968C467.405 138.981 485.737 118.698 456.156 125.82Z" fill="white"/>
<path d="M457.601 135.263C455.049 133.163 452.068 129.955 454.593 127.854C459.333 126.694 464.892 125.976 470.361 125.833C471.819 126.798 470.999 129.328 463.148 135.342C461.507 136.607 459.216 136.581 457.601 135.263Z" fill="#FFC3BD"/>
<path d="M454.932 121.972L463.655 112.476C464.489 119.754 468.356 125.728 469.137 125.963L468.186 129.302C457.614 141.211 455.179 129.772 455.179 129.772C457.744 127.62 454.932 121.972 454.932 121.972Z" fill="#FFC3BD"/>
<path opacity="0.2" d="M460.166 116.285L464.228 115.88C464.228 115.88 464.046 128.089 455.713 129.133C457.262 126.668 454.932 121.972 454.932 121.972L460.166 116.285Z" fill="#263238"/>
<path d="M462.471 102.041C464.358 110.676 465.908 115.606 462.926 121.307C460.049 126.954 453.161 129.198 447.524 126.328C445.453 125.272 443.748 123.602 442.641 121.554C438.683 114.537 436.248 101.611 443.474 95.5974C448.279 91.3712 455.609 91.8408 459.827 96.667C461.156 98.1931 462.067 100.045 462.471 102.041Z" fill="#FFC3BD"/>
<path d="M450.479 108.511C450.687 109.189 450.466 109.867 450.01 109.972C449.555 110.076 449.047 109.672 448.852 108.993C448.643 108.315 448.852 107.624 449.333 107.532C449.789 107.428 450.284 107.819 450.479 108.511Z" fill="#263238"/>
<path d="M442.784 111.002C442.993 111.68 442.784 112.359 442.316 112.463C441.847 112.58 441.352 112.163 441.144 111.472C440.935 110.78 441.157 110.115 441.625 110.011C442.094 109.893 442.589 110.298 442.784 111.002Z" fill="#263238"/>
<path d="M452.133 105.224C452.198 105.211 452.263 105.185 452.315 105.132C452.458 104.95 452.419 104.689 452.25 104.545L452.237 104.532C451.169 103.698 449.763 103.437 448.474 103.854C448.266 103.932 448.148 104.18 448.24 104.389V104.402C448.318 104.611 448.565 104.728 448.773 104.637H448.786C449.789 104.324 450.883 104.519 451.716 105.158C451.833 105.276 451.989 105.289 452.133 105.224Z" fill="#263238"/>
<path d="M438.722 109.385C438.852 109.332 438.943 109.215 438.956 109.072C439.113 107.989 439.751 107.037 440.701 106.502C440.896 106.371 440.935 106.098 440.805 105.915C440.701 105.771 440.519 105.693 440.336 105.745C439.139 106.398 438.331 107.585 438.136 108.928C438.097 109.15 438.24 109.372 438.475 109.411C438.475 109.411 438.475 109.411 438.488 109.411C438.566 109.424 438.657 109.424 438.722 109.385Z" fill="#263238"/>
<path d="M451.078 119.389C450.7 119.506 450.31 119.585 449.906 119.624C449.776 119.65 449.659 119.559 449.633 119.428C449.633 119.428 449.633 119.428 449.633 119.415C449.62 119.285 449.724 119.167 449.854 119.154C451.885 118.933 453.682 117.772 454.711 116.011C454.763 115.893 454.906 115.841 455.023 115.906C455.14 115.959 455.192 116.102 455.127 116.219C454.268 117.785 452.81 118.92 451.078 119.389Z" fill="#263238"/>
<path d="M445.466 110.545C445.258 112.919 444.724 115.254 443.904 117.485C445.427 118.228 447.341 117.08 447.341 117.08L445.466 110.545Z" fill="#ED893E"/>
<path d="M457.783 89.1147C430.025 83.7798 438.149 106.424 438.149 106.424C438.149 106.424 438.357 102.55 441.977 102.55C445.597 102.55 448.773 99.7062 448.773 99.7062C446.638 102.289 443.904 103.058 443.904 103.058C450.219 103.163 454.138 99.4062 456.26 96.3931C456.26 96.3931 456.507 97.6322 456.507 98.3235C456.507 101.506 459.085 103.228 460.374 107.572C461.663 111.902 466.819 107.572 466.819 107.572C474.032 89.0103 457.783 89.1147 457.783 89.1147Z" fill="#263238"/>
<path d="M467.679 108.172C467.64 110.141 466.858 112.032 465.491 113.454C463.681 115.293 461.611 113.911 461.143 111.485C460.726 109.28 461.169 105.693 463.447 104.767C465.739 103.841 467.705 105.719 467.679 108.172Z" fill="#FFC3BD"/>
<path d="M458.252 90.3799C458.252 90.3799 452.393 83.1928 448.318 85.1102C444.242 87.0146 455.752 87.4842 458.252 90.3799Z" fill="#263238"/>
<path d="M457.796 175.581L448.825 176.442L435.089 171.812L428.736 178.673L431.925 180.316H437.784L443.969 182.912L449.542 182.051L460.127 182.299L457.796 175.581Z" fill="#FFC3BD"/>
<path d="M490.75 131.102C487.86 129.133 484.774 131.037 481.649 149.051C477.938 170.416 475.478 171.381 454.164 175.229L456.481 182.912C456.481 182.912 474.683 185.156 483.485 179.416C492.299 173.677 498.536 136.424 490.75 131.102Z" fill="#F16E22"/>
<path opacity="0.7" d="M490.75 131.102C487.86 129.133 484.774 131.037 481.649 149.051C477.938 170.416 475.478 171.381 454.164 175.229L456.481 182.912C456.481 182.912 474.683 185.156 483.485 179.416C492.299 173.677 498.536 136.424 490.75 131.102Z" fill="white"/>
<path d="M464.801 185.064H345.824C346.592 187.177 347.673 189.147 349.001 190.908H464.801C466.415 190.908 467.717 189.603 467.717 187.986C467.717 186.369 466.415 185.064 464.801 185.064Z" fill="#263238"/>
<path opacity="0.6" d="M464.801 185.064H345.824C346.592 187.177 347.673 189.147 349.001 190.908H464.801C466.415 190.908 467.717 189.603 467.717 187.986C467.717 186.369 466.415 185.064 464.801 185.064Z" fill="white"/>
<path d="M366.917 199.869H462.08V190.908H349.001C353.102 196.347 359.599 199.869 366.917 199.869Z" fill="#263238"/>
<path opacity="0.4" d="M366.917 199.869H462.08V190.908H349.001C353.102 196.347 359.599 199.869 366.917 199.869Z" fill="white"/>
<path d="M446.469 181.268H377.137C376.096 181.268 375.25 182.116 375.25 183.16C375.25 184.203 376.096 185.051 377.137 185.051H446.469C447.511 185.051 448.357 184.203 448.357 183.16C448.37 182.116 447.511 181.268 446.469 181.268Z" fill="#263238"/>
<path opacity="0.3" d="M446.469 181.268H377.137C376.096 181.268 375.25 182.116 375.25 183.16C375.25 184.203 376.096 185.051 377.137 185.051H446.469C447.511 185.051 448.357 184.203 448.357 183.16C448.37 182.116 447.511 181.268 446.469 181.268Z" fill="white"/>
<path d="M378.166 183.903H401.862C402.474 183.903 402.917 183.29 402.709 182.703L389.715 145.503C389.363 144.472 388.387 143.794 387.306 143.794H363.61C362.998 143.794 362.555 144.407 362.763 144.994L375.757 182.195C376.122 183.212 377.085 183.903 378.166 183.903Z" fill="#263238"/>
<path opacity="0.5" d="M378.166 183.903H401.862C402.474 183.903 402.917 183.29 402.709 182.703L389.715 145.503C389.363 144.472 388.387 143.794 387.306 143.794H363.61C362.998 143.794 362.555 144.407 362.763 144.994L375.757 182.195C376.122 183.212 377.085 183.903 378.166 183.903Z" fill="white"/>
<path d="M377.02 183.903H400.717C401.329 183.903 401.771 183.29 401.563 182.703L388.569 145.503C388.204 144.472 387.241 143.794 386.16 143.794H362.464C361.852 143.794 361.409 144.407 361.618 144.994L374.612 182.195C374.976 183.212 375.94 183.903 377.02 183.903Z" fill="#263238"/>
<path opacity="0.7" d="M377.02 183.903H400.717C401.329 183.903 401.771 183.29 401.563 182.703L388.569 145.503C388.204 144.472 387.241 143.794 386.16 143.794H362.464C361.852 143.794 361.409 144.407 361.618 144.994L374.612 182.195C374.976 183.212 375.94 183.903 377.02 183.903Z" fill="white"/>
<path d="M379.676 163.842C379.976 165.264 380.965 166.425 381.877 166.425C382.788 166.425 383.283 165.264 382.983 163.842C382.684 162.42 381.694 161.259 380.783 161.259C379.859 161.272 379.377 162.42 379.676 163.842Z" fill="white"/>
<path opacity="0.2" d="M404.909 185.064C403.868 185.064 403.021 184.216 403.021 183.173C403.021 182.129 403.868 181.282 404.909 181.282H446.469C447.511 181.282 448.357 182.129 448.357 183.173C448.357 184.216 447.511 185.064 446.469 185.064H404.909Z" fill="white"/>
<path d="M362.802 122.507H358.05V132.876H362.802V122.507Z" fill="#136BA8"/>
<path d="M419.726 122.507H414.973V132.876H419.726V122.507Z" fill="#136BA8"/>
<path d="M391.186 102.458L390.626 102.419C391.746 85.7624 389.272 80.3493 387.006 78.7449C385.678 77.8058 384.494 78.3014 384.481 78.3014L384.259 77.7927C384.324 77.7666 385.744 77.1666 387.332 78.2884C389.715 79.971 392.319 85.5407 391.186 102.458Z" fill="#136BA8"/>
<path d="M388.022 100.763C387.475 86.5972 389.923 81.3145 392.084 79.371C393.425 78.1579 394.597 78.3144 394.636 78.3275L394.558 78.8753C394.519 78.8623 393.568 78.7579 392.423 79.8145C390.379 81.6928 388.048 86.845 388.582 100.737L388.022 100.763Z" fill="#136BA8"/>
<path d="M390.405 100.776L389.845 100.737C390.418 92.2191 389.376 87.1581 386.811 86.0885C383.465 84.6928 378.478 90.2886 378.426 90.3408L378.01 89.9755C378.231 89.7277 383.309 84.0276 387.019 85.5798C389.871 86.7668 391.016 91.8799 390.405 100.776Z" fill="#136BA8"/>
<path d="M388.998 101.324C388.998 96.093 390.079 92.8712 392.227 91.7364C394.649 90.4581 397.435 92.3495 397.552 92.4277L397.24 92.8843C397.214 92.8712 394.61 91.1103 392.488 92.2321C390.548 93.2625 389.558 96.3148 389.558 101.324H388.998Z" fill="#136BA8"/>
<g opacity="0.2">
<g opacity="0.2">
<path opacity="0.2" d="M391.186 102.458L390.626 102.419C391.746 85.7624 389.272 80.3493 387.006 78.7449C385.678 77.8058 384.494 78.3014 384.481 78.3014L384.259 77.7927C384.324 77.7666 385.744 77.1666 387.332 78.2884C389.715 79.971 392.319 85.5407 391.186 102.458Z" fill="#B6DAF4"/>
</g>
<g opacity="0.2">
<path opacity="0.2" d="M388.022 100.763C387.475 86.5972 389.923 81.3145 392.084 79.371C393.425 78.1579 394.597 78.3144 394.636 78.3275L394.558 78.8753C394.519 78.8623 393.568 78.7579 392.423 79.8145C390.379 81.6928 388.048 86.845 388.582 100.737L388.022 100.763Z" fill="#B6DAF4"/>
</g>
<g opacity="0.2">
<path opacity="0.2" d="M390.405 100.776L389.845 100.737C390.418 92.2191 389.376 87.1581 386.811 86.0885C383.465 84.6928 378.478 90.2886 378.426 90.3408L378.01 89.9755C378.231 89.7277 383.309 84.0276 387.019 85.5798C389.871 86.7668 391.016 91.8799 390.405 100.776Z" fill="#B6DAF4"/>
</g>
<g opacity="0.2">
<path opacity="0.2" d="M388.998 101.324C388.998 96.093 390.079 92.8712 392.227 91.7364C394.649 90.4581 397.435 92.3495 397.552 92.4277L397.24 92.8843C397.214 92.8712 394.61 91.1103 392.488 92.2321C390.548 93.2625 389.558 96.3148 389.558 101.324H388.998Z" fill="#B6DAF4"/>
</g>
</g>
<path d="M376.382 99.8235L378.778 113.48C379.325 116.611 382.033 118.893 385.21 118.893H394.74C397.904 118.893 400.625 116.611 401.172 113.48L403.568 99.8235H376.382Z" fill="#B6DAF4"/>
<path opacity="0.3" d="M376.382 99.8235L378.778 113.48C379.325 116.611 382.033 118.893 385.21 118.893H394.74C397.904 118.893 400.625 116.611 401.172 113.48L403.568 99.8235H376.382Z" fill="white"/>
<path d="M385.47 77.9362C385.47 77.9362 391.121 68.4143 381.173 68.2708C379.702 68.2447 378.283 68.4795 376.929 68.8578C378.205 69.7447 380.314 71.3491 379.246 71.7665C378.127 72.197 374.091 71.3752 372.138 70.9448C367.021 73.9839 363.714 78.5492 363.714 78.5492C363.714 78.5492 366.383 81.1189 370.146 83.6885C371.135 82.6972 372.645 81.458 373.492 81.9537C374.351 82.4493 375.275 85.0972 375.848 86.9885C377.788 87.8885 379.793 88.5668 381.746 88.8146C381.694 87.2885 381.72 84.8233 382.449 84.445C383.205 84.0406 385.822 86.5711 387.306 88.0972C394.91 84.8102 385.47 77.9362 385.47 77.9362Z" fill="#136BA8"/>
<path opacity="0.1" d="M385.47 77.9362C385.47 77.9362 391.121 68.4143 381.173 68.2708C379.702 68.2447 378.283 68.4795 376.929 68.8578C378.205 69.7447 380.314 71.3491 379.246 71.7665C378.127 72.197 374.091 71.3752 372.138 70.9448C367.021 73.9839 363.714 78.5492 363.714 78.5492C363.714 78.5492 366.383 81.1189 370.146 83.6885C371.135 82.6972 372.645 81.458 373.492 81.9537C374.351 82.4493 375.275 85.0972 375.848 86.9885C377.788 87.8885 379.793 88.5668 381.746 88.8146C381.694 87.2885 381.72 84.8233 382.449 84.445C383.205 84.0406 385.822 86.5711 387.306 88.0972C394.91 84.8102 385.47 77.9362 385.47 77.9362Z" fill="white"/>
<path opacity="0.3" d="M385.47 77.9362C385.47 77.9362 391.121 68.4143 381.173 68.2708C379.702 68.2447 378.283 68.4795 376.929 68.8578C378.205 69.7447 380.314 71.3491 379.246 71.7665C378.127 72.197 374.091 71.3752 372.138 70.9448C367.021 73.9839 363.714 78.5492 363.714 78.5492C374.559 73.9318 385.47 77.9362 385.47 77.9362Z" fill="white"/>
<path d="M397.253 84.3802C398.308 84.0802 399.61 86.1672 400.274 87.4325C402.422 86.5455 404.466 85.0976 406.25 83.5585C405.768 82.4889 405.221 81.028 405.56 80.4671C405.924 79.8802 407.799 80.3497 409.153 80.7671C411.263 78.5367 412.591 76.6714 412.591 76.6714C412.591 76.6714 411.341 75.6149 409.31 74.4018C407.357 74.6235 404.596 74.7931 403.919 74.1279C403.203 73.4105 404.74 72.8887 405.82 72.6148C404.102 71.8713 402.162 71.2713 400.117 71.0235C399.857 71.9105 399.284 73.28 398.23 73.28C397.24 73.28 396.068 72.0931 395.339 71.2191C387.189 72.98 393.66 78.8236 393.66 78.8236C393.66 78.8236 386.642 87.1716 394.988 88.2803C395.43 86.8325 396.264 84.6672 397.253 84.3802Z" fill="#136BA8"/>
<path opacity="0.2" d="M397.253 84.3802C398.308 84.0802 399.61 86.1672 400.274 87.4325C402.422 86.5455 404.466 85.0976 406.25 83.5585C405.768 82.4889 405.221 81.028 405.56 80.4671C405.924 79.8802 407.799 80.3497 409.153 80.7671C411.263 78.5367 412.591 76.6714 412.591 76.6714C412.591 76.6714 411.341 75.6149 409.31 74.4018C407.357 74.6235 404.596 74.7931 403.919 74.1279C403.203 73.4105 404.74 72.8887 405.82 72.6148C404.102 71.8713 402.162 71.2713 400.117 71.0235C399.857 71.9105 399.284 73.28 398.23 73.28C397.24 73.28 396.068 72.0931 395.339 71.2191C387.189 72.98 393.66 78.8236 393.66 78.8236C393.66 78.8236 386.642 87.1716 394.988 88.2803C395.43 86.8325 396.264 84.6672 397.253 84.3802Z" fill="white"/>
<path opacity="0.3" d="M403.933 74.1144C403.217 73.397 404.753 72.8752 405.834 72.6013C404.115 71.8578 402.175 71.2578 400.131 71.01C399.871 71.897 399.298 73.2665 398.243 73.2665C397.254 73.2665 396.082 72.0796 395.353 71.2056C387.202 72.9665 393.673 78.8101 393.673 78.8101C393.673 78.8101 404.258 74.9361 412.591 76.6709C412.591 76.6709 411.341 75.6144 409.31 74.4013C407.37 74.61 404.61 74.7927 403.933 74.1144Z" fill="white"/>
<path d="M409.18 91.7104C408.047 92.3234 405.872 93.3147 405 92.4408C404.05 91.4886 405.456 87.8755 406.12 86.3624C405.052 85.0711 403.828 84.0276 402.37 83.3885C393.516 79.4493 396.524 92.193 396.524 92.193C396.524 92.193 385.34 94.893 392.553 101.767C393.087 102.276 393.634 102.719 394.22 103.124C394.779 101.793 395.873 99.6279 396.967 99.9279C398.034 100.215 397.644 103.058 397.279 104.819C399.219 105.641 401.25 106.098 403.164 106.345C403.425 105.106 403.919 103.463 404.714 103.502C405.56 103.554 406.667 105.341 407.331 106.567C410.273 106.528 412.33 106.111 412.33 106.111C412.33 106.111 411.875 98.2974 409.18 91.7104Z" fill="#136BA8"/>
<path opacity="0.2" d="M396.524 92.193C396.524 92.193 385.34 94.893 392.553 101.767C393.087 102.276 393.634 102.719 394.22 103.124C394.779 101.793 395.873 99.6279 396.967 99.9279C398.034 100.215 397.644 103.058 397.279 104.819C399.219 105.641 401.25 106.098 403.164 106.345C403.425 105.106 403.919 103.463 404.714 103.502C405.56 103.554 406.667 105.341 407.331 106.567C410.273 106.528 412.33 106.111 412.33 106.111C407.305 95.0887 396.524 92.193 396.524 92.193Z" fill="white"/>
<path d="M379.155 89.4799C379.155 89.4799 373.166 79.5536 368.765 88.5016C368.049 89.9625 367.62 91.4756 367.385 92.9886C369.221 92.1799 373.153 90.6929 373.205 92.7147C373.27 94.9191 369.052 99.0409 367.646 100.358C368.557 105.106 370.536 108.719 370.536 108.719C370.536 108.719 372.854 107.845 375.848 106.267C376.004 104.663 376.473 101.48 377.658 100.789C378.908 100.058 379.741 102.641 380.054 103.815C381.903 102.602 383.738 101.193 385.288 99.6148C384.142 98.2974 382.567 96.2365 383.035 95.1539C383.543 93.9799 386.772 94.4887 388.569 94.8669C388.894 94.0713 389.116 93.2625 389.22 92.4278C390.313 82.7754 379.155 89.4799 379.155 89.4799Z" fill="#136BA8"/>
<path opacity="0.2" d="M370.523 108.719C370.523 108.719 372.841 107.845 375.835 106.267C375.991 104.663 376.46 101.48 377.645 100.789C378.895 100.058 379.728 102.641 380.041 103.815C381.889 102.602 383.725 101.193 385.275 99.6148C384.129 98.2974 382.553 96.2365 383.022 95.1539C383.53 93.9799 386.759 94.4887 388.556 94.8669C388.881 94.0713 389.102 93.2625 389.207 92.4277C390.326 82.7754 379.155 89.4929 379.155 89.4929C379.155 89.4929 372.554 95.6365 370.523 108.719Z" fill="white"/>
<path d="M425.598 117.746H352.191V123.602H425.598V117.746Z" fill="#136BA8"/>
<path opacity="0.3" d="M425.598 117.746H352.191V123.602H425.598V117.746Z" fill="white"/>
<path d="M503.744 27.2483H366.917C351.501 27.2483 338.95 39.8094 338.95 55.2662V177.368C338.95 192.812 351.488 205.386 366.917 205.386H503.744C519.16 205.386 531.711 192.825 531.711 177.368V55.2662C531.711 39.8225 519.16 27.2483 503.744 27.2483ZM526.203 177.368C526.203 189.799 516.152 199.869 503.744 199.869H366.917C354.509 199.869 344.457 189.799 344.457 177.368V55.2662C344.457 42.8356 354.509 32.7658 366.917 32.7658H503.744C516.152 32.7658 526.203 42.8356 526.203 55.2662V177.368Z" fill="#407BFF"/>
<path d="M503.744 27.2483H366.917C351.501 27.2483 338.95 39.8094 338.95 55.2662V177.368C338.95 192.812 351.488 205.386 366.917 205.386H503.744C519.16 205.386 531.711 192.825 531.711 177.368V55.2662C531.711 39.8225 519.16 27.2483 503.744 27.2483ZM526.203 177.368C526.203 189.799 516.152 199.869 503.744 199.869H366.917C354.509 199.869 344.457 189.799 344.457 177.368V55.2662C344.457 42.8356 354.509 32.7658 366.917 32.7658H503.744C516.152 32.7658 526.203 42.8356 526.203 55.2662V177.368Z" fill="#7BC9FF"/>
<path d="M486.948 81.3276H469.801C467.965 81.3276 466.48 79.8406 466.48 78.0014V74.9622C466.48 73.1231 467.965 71.6361 469.801 71.6361H486.948C488.784 71.6361 490.268 73.1231 490.268 74.9622V78.0014C490.255 79.8406 488.771 81.3276 486.948 81.3276Z" fill="#407BFF"/>
<path d="M501.895 69.3534H484.748C482.912 69.3534 481.427 67.8664 481.427 66.0273V62.9881C481.427 61.1489 482.912 59.662 484.748 59.662H501.895C503.731 59.662 505.215 61.1489 505.215 62.9881V66.0273C505.215 67.8664 503.731 69.3534 501.895 69.3534Z" fill="#407BFF"/>
<path d="M496.518 93.3017H479.37C477.535 93.3017 476.05 91.8147 476.05 89.9755V86.9364C476.05 85.0972 477.535 83.6102 479.37 83.6102H496.518C498.354 83.6102 499.838 85.0972 499.838 86.9364V89.9755C499.838 91.8147 498.354 93.3017 496.518 93.3017Z" fill="#407BFF"/>
<path d="M513.782 81.3276H496.635C494.799 81.3276 493.315 79.8406 493.315 78.0014V74.9622C493.315 73.1231 494.799 71.6361 496.635 71.6361H513.782C515.618 71.6361 517.102 73.1231 517.102 74.9622V78.0014C517.102 79.8406 515.618 81.3276 513.782 81.3276Z" fill="#407BFF"/>
<path opacity="0.7" d="M486.948 81.3276H469.801C467.965 81.3276 466.48 79.8406 466.48 78.0014V74.9622C466.48 73.1231 467.965 71.6361 469.801 71.6361H486.948C488.784 71.6361 490.268 73.1231 490.268 74.9622V78.0014C490.255 79.8406 488.771 81.3276 486.948 81.3276Z" fill="white"/>
<path opacity="0.8" d="M501.895 69.3534H484.748C482.912 69.3534 481.427 67.8664 481.427 66.0273V62.9881C481.427 61.1489 482.912 59.662 484.748 59.662H501.895C503.731 59.662 505.215 61.1489 505.215 62.9881V66.0273C505.215 67.8664 503.731 69.3534 501.895 69.3534Z" fill="white"/>
<path opacity="0.8" d="M496.518 93.3017H479.37C477.535 93.3017 476.05 91.8147 476.05 89.9755V86.9364C476.05 85.0972 477.535 83.6102 479.37 83.6102H496.518C498.354 83.6102 499.838 85.0972 499.838 86.9364V89.9755C499.838 91.8147 498.354 93.3017 496.518 93.3017Z" fill="white"/>
<path opacity="0.7" d="M513.782 81.3276H496.635C494.799 81.3276 493.315 79.8406 493.315 78.0014V74.9622C493.315 73.1231 494.799 71.6361 496.635 71.6361H513.782C515.618 71.6361 517.102 73.1231 517.102 74.9622V78.0014C517.102 79.8406 515.618 81.3276 513.782 81.3276Z" fill="white"/>
<path d="M444.36 58.5271H461.507C463.343 58.5271 464.827 57.0402 464.827 55.201V52.1618C464.827 50.3227 463.343 48.8357 461.507 48.8357H444.36C442.524 48.8357 441.04 50.3227 441.04 52.1618V55.201C441.04 57.0271 442.537 58.5271 444.36 58.5271Z" fill="#407BFF"/>
<path d="M434.79 70.5013H451.937C453.773 70.5013 455.257 69.0143 455.257 67.1751V64.1359C455.257 62.2968 453.773 60.8098 451.937 60.8098H434.79C432.954 60.8098 431.47 62.2968 431.47 64.1359V67.1751C431.47 69.0143 432.954 70.5013 434.79 70.5013Z" fill="#407BFF"/>
<path d="M417.525 58.5271H434.673C436.509 58.5271 437.993 57.0402 437.993 55.201V52.1618C437.993 50.3227 436.509 48.8357 434.673 48.8357H417.525C415.69 48.8357 414.205 50.3227 414.205 52.1618V55.201C414.205 57.0271 415.69 58.5271 417.525 58.5271Z" fill="#407BFF"/>
<path opacity="0.8" d="M444.36 58.5271H461.507C463.343 58.5271 464.827 57.0402 464.827 55.201V52.1618C464.827 50.3227 463.343 48.8357 461.507 48.8357H444.36C442.524 48.8357 441.04 50.3227 441.04 52.1618V55.201C441.04 57.0271 442.537 58.5271 444.36 58.5271Z" fill="white"/>
<path opacity="0.8" d="M434.79 70.5013H451.937C453.773 70.5013 455.257 69.0143 455.257 67.1751V64.1359C455.257 62.2968 453.773 60.8098 451.937 60.8098H434.79C432.954 60.8098 431.47 62.2968 431.47 64.1359V67.1751C431.47 69.0143 432.954 70.5013 434.79 70.5013Z" fill="white"/>
<path opacity="0.7" d="M417.525 58.5271H434.673C436.509 58.5271 437.993 57.0402 437.993 55.201V52.1618C437.993 50.3227 436.509 48.8357 434.673 48.8357H417.525C415.69 48.8357 414.205 50.3227 414.205 52.1618V55.201C414.205 57.0271 415.69 58.5271 417.525 58.5271Z" fill="white"/>
<path d="M293.028 82.4363H215.09V170.625H293.028V82.4363Z" fill="#2092E1"/>
<path d="M299.265 170.625H208.841V177.734H299.265V170.625Z" fill="#2092E1"/>
<g opacity="0.4">
<path opacity="0.4" d="M299.265 170.625H208.841V177.734H299.265V170.625Z" fill="#F2F9FE"/>
</g>
<path opacity="0.6" d="M293.028 82.4363H215.09V170.625H293.028V82.4363Z" fill="#F2F9FE"/>
<path opacity="0.5" d="M287.52 87.9538H220.598V165.12H287.52V87.9538Z" fill="#F2F9FE"/>
<g opacity="0.2">
<path opacity="0.2" d="M220.598 87.9538V165.107H221.066L239.477 87.9538H220.598Z" fill="#F2F9FE"/>
<path opacity="0.2" d="M278.003 87.9538H274.553L256.155 165.107H259.606L278.003 87.9538Z" fill="#F2F9FE"/>
<path opacity="0.2" d="M269.917 87.9538H255.478L237.081 165.107H251.52L269.917 87.9538Z" fill="#F2F9FE"/>
</g>
<path d="M170.054 153.538C167.411 153.733 164.078 151.607 162.45 148.842C161.943 147.981 161.682 147.537 161.161 146.677C157.399 140.52 149.157 136.111 143.454 136.529C142.881 136.568 142.595 136.594 142.022 136.633C141.332 136.685 138.702 136.868 138.025 136.92C137.452 136.959 137.166 136.985 136.593 137.024C130.903 137.442 129.614 142.542 132.999 148.724C133.468 149.585 133.702 150.029 134.158 150.89C135.616 153.668 134.523 156.107 131.893 156.303C127.336 156.629 125.409 160.855 127.179 165.838C132.96 186.382 134.562 203.704 132.335 222.474C136.332 226.178 141.671 228.461 147.556 228.461H193.777C195.56 204.956 192.201 185.364 182.879 161.794C180.548 156.851 174.624 153.211 170.054 153.538Z" fill="#407BFF"/>
<path opacity="0.1" d="M170.054 153.538C167.411 153.733 164.078 151.607 162.45 148.842C161.943 147.981 161.682 147.537 161.161 146.677C157.399 140.52 149.157 136.111 143.454 136.529C142.881 136.568 142.595 136.594 142.022 136.633C141.332 136.685 138.702 136.868 138.025 136.92C137.452 136.959 137.166 136.985 136.593 137.024C130.903 137.442 129.614 142.542 132.999 148.724C133.468 149.585 133.702 150.029 134.158 150.89C135.616 153.668 134.523 156.107 131.893 156.303C127.336 156.629 125.409 160.855 127.179 165.838C132.96 186.382 134.562 203.704 132.335 222.474C136.332 226.178 141.671 228.461 147.556 228.461H193.777C195.56 204.956 192.201 185.364 182.879 161.794C180.548 156.851 174.624 153.211 170.054 153.538Z" fill="black"/>
<path opacity="0.2" d="M170.054 153.538C167.411 153.733 164.078 151.607 162.45 148.842C161.943 147.981 161.682 147.537 161.161 146.677C157.399 140.52 149.157 136.111 143.454 136.529C142.881 136.568 142.595 136.594 142.022 136.633C136.332 137.05 135.095 142.15 138.559 148.32C139.04 149.181 139.275 149.611 139.744 150.485C141.228 153.264 140.173 155.703 137.53 155.898C132.973 156.225 131.098 160.438 132.921 165.433C139.392 187.503 140.98 205.882 138.181 226.4C141.032 227.717 144.196 228.461 147.542 228.461H193.763C195.547 204.956 192.188 185.364 182.866 161.794C180.548 156.851 174.624 153.211 170.054 153.538Z" fill="black"/>
<path d="M201.328 176.821C201.328 176.821 199.31 203.547 206.002 203.273C212.695 202.999 225.871 203.091 225.871 203.091L236.756 198.212C237.342 197.951 238.019 198.082 238.474 198.525L243.409 203.417C244.398 204.395 243.682 206.091 242.289 206.052L239.282 205.973C239.282 205.973 234.021 209.26 226.014 208.517C227.564 208.034 198.477 213.447 195.482 209.325C191.394 203.665 189.61 180.042 189.61 180.042L201.328 176.821Z" fill="#B55B52"/>
<path opacity="0.1" d="M201.328 176.821C201.328 176.821 199.31 203.547 206.002 203.273C212.695 202.999 225.871 203.091 225.871 203.091L236.756 198.212C237.342 197.951 238.019 198.082 238.474 198.525L243.409 203.417C244.398 204.395 243.682 206.091 242.289 206.052L239.282 205.973C239.282 205.973 234.021 209.26 226.014 208.517C227.564 208.034 198.477 213.447 195.482 209.325C191.394 203.665 189.61 180.042 189.61 180.042L201.328 176.821Z" fill="black"/>
<path d="M195.027 160.177C199.557 160.033 204.674 165.929 202.422 181.608L189.949 184.021C189.949 184.021 185.9 160.451 195.027 160.177Z" fill="#263238"/>
<path opacity="0.2" d="M195.027 160.177C199.557 160.033 204.674 165.929 202.422 181.608L189.949 184.021C189.949 184.021 185.9 160.451 195.027 160.177Z" fill="black"/>
<path d="M148.975 160.438C142.152 169.242 143.272 215.56 143.702 228.122C144.952 228.343 146.228 228.474 147.543 228.474H187.188C190.574 183.956 204.961 170.781 199.688 162.381C194.675 154.372 156.891 150.224 148.975 160.438Z" fill="#263238"/>
<path d="M181.889 165.929C181.889 165.929 191.772 159.772 187.761 156.433C183.022 155.272 177.463 154.555 171.994 154.411C170.367 155.494 171.538 158.468 181.889 165.929Z" fill="#B55B52"/>
<path d="M187.423 150.564L178.699 141.068C177.866 148.346 173.999 154.32 173.218 154.555L174.168 157.894C184.741 169.803 187.175 158.364 187.175 158.364C184.611 156.212 187.423 150.564 187.423 150.564Z" fill="#B55B52"/>
<path opacity="0.2" d="M182.189 144.877L178.127 144.472C178.127 144.472 178.309 156.681 186.642 157.725C185.092 155.259 187.423 150.564 187.423 150.564L182.189 144.877Z" fill="#263238"/>
<path d="M179.884 130.646C177.996 139.281 176.447 144.211 179.429 149.911C182.306 155.559 189.194 157.803 194.831 154.933C196.901 153.877 198.607 152.207 199.714 150.159C203.672 143.142 206.107 130.215 198.881 124.202C194.076 119.976 186.746 120.446 182.527 125.272C181.199 126.785 180.288 128.637 179.884 130.646Z" fill="#B55B52"/>
<path d="M191.876 137.116C191.667 137.794 191.889 138.472 192.345 138.576C192.8 138.681 193.308 138.276 193.503 137.598C193.712 136.92 193.503 136.229 193.022 136.137C192.566 136.02 192.071 136.424 191.876 137.116Z" fill="#263238"/>
<path d="M199.57 139.594C199.362 140.272 199.57 140.95 200.039 141.055C200.508 141.172 201.003 140.755 201.211 140.063C201.419 139.372 201.198 138.707 200.729 138.603C200.261 138.485 199.766 138.903 199.57 139.594Z" fill="#263238"/>
<path d="M190.222 133.829C190.157 133.815 190.092 133.789 190.04 133.737C189.897 133.555 189.936 133.294 190.105 133.15L190.118 133.137C191.186 132.302 192.592 132.042 193.881 132.459C194.089 132.537 194.206 132.785 194.115 132.994V133.007C194.037 133.215 193.79 133.333 193.581 133.242H193.568C192.566 132.928 191.472 133.124 190.639 133.763C190.522 133.868 190.352 133.894 190.222 133.829Z" fill="#263238"/>
<path d="M203.633 137.989C203.503 137.937 203.411 137.82 203.398 137.676C203.242 136.594 202.604 135.642 201.654 135.107C201.458 134.976 201.419 134.702 201.55 134.52C201.654 134.376 201.836 134.298 202.018 134.35C203.216 135.002 204.023 136.189 204.219 137.533C204.258 137.755 204.115 137.976 203.88 138.016C203.88 138.016 203.88 138.016 203.867 138.016C203.776 138.029 203.698 138.016 203.633 137.989Z" fill="#263238"/>
<path d="M191.277 147.981C191.654 148.098 192.045 148.177 192.449 148.216C192.579 148.242 192.696 148.15 192.722 148.02C192.722 148.02 192.722 148.02 192.722 148.007C192.735 147.877 192.631 147.759 192.501 147.746C190.47 147.524 188.673 146.364 187.644 144.603C187.592 144.485 187.449 144.433 187.332 144.498C187.215 144.55 187.162 144.694 187.228 144.811C188.074 146.377 189.545 147.524 191.277 147.981Z" fill="#263238"/>
<path d="M196.888 139.15C197.097 141.524 197.631 143.859 198.451 146.09C196.927 146.833 195.014 145.685 195.014 145.685L196.888 139.15Z" fill="#A02724"/>
<path d="M180.054 135.446C180.054 135.446 188.412 135.537 186.017 130.711C186.017 130.711 197.618 132.955 195.638 128.559C195.638 128.559 203.503 134.755 201.458 128.898C201.458 128.898 206.81 133.463 206.979 130.528C207.148 127.607 204.206 125.728 204.206 125.728C204.206 125.728 210.742 120.42 201.263 120.42C201.263 120.42 203.503 112.437 192.696 118.815C192.696 118.815 194.128 110.545 186.082 118.815C186.082 118.815 175.158 118.906 177.749 122.52C177.749 122.52 170.874 124.763 175.171 127.163C175.171 127.163 169.937 131.911 173.752 133.842C173.752 133.842 168.804 140.663 176.03 139.816C176.03 139.816 173.452 146.116 176.629 144.824C179.819 143.546 180.054 135.446 180.054 135.446Z" fill="#263238"/>
<path d="M174.676 136.763C174.715 138.733 175.497 140.624 176.864 142.046C178.673 143.885 180.744 142.503 181.212 140.076C181.629 137.872 181.186 134.285 178.908 133.359C176.616 132.433 174.65 134.324 174.676 136.763Z" fill="#B55B52"/>
<path opacity="0.3" d="M188.725 214.452C189.115 211.791 189.532 209.286 189.988 206.899L185.834 206.065L162.802 192.46L154.547 173.338L151.11 165.929L147.881 167.651C147.881 167.651 147.842 205.921 164 212.886C170.809 215.808 179.429 214.895 188.725 214.452Z" fill="black"/>
<path d="M162.307 175.412C162.307 175.412 167.034 199.034 181.772 201.695C196.498 204.343 198.75 204.304 198.75 204.304L210.69 200.404C211.406 200.169 212.187 200.417 212.656 201.004L215.676 204.878C216.562 206.012 215.819 207.682 214.374 207.773L209.27 208.099C209.27 208.099 205.56 211.569 199.232 210.799C199.232 210.799 175.34 213.421 167.021 208.621C158.688 203.821 152.1 184.203 152.1 184.203L162.307 175.412Z" fill="#B55B52"/>
<path d="M151.748 190.738C151.748 190.738 143.389 163.92 151.279 159.655C159.156 155.39 164.364 174.212 166.304 181.321L151.748 190.738Z" fill="#263238"/>
<path d="M230.298 208.178L201.472 209.547V213.656H230.298H248.865V208.178H230.298Z" fill="#407BFF"/>
<path opacity="0.3" d="M230.298 213.656H201.458V209.547L230.298 208.178V213.656Z" fill="white"/>
<path opacity="0.6" d="M248.864 208.178H230.298V213.656H248.864V208.178Z" fill="white"/>
<path d="M293.679 199.53H232.771L238.917 149.364H299.824L293.679 199.53Z" fill="#407BFF"/>
<path opacity="0.3" d="M293.679 199.53H232.771L238.917 149.364H299.824L293.679 199.53Z" fill="white"/>
<path d="M242.432 149.364L236.274 199.53H293.679L299.825 149.364H242.432Z" fill="#407BFF"/>
<path opacity="0.6" d="M242.432 149.364L236.274 199.53H293.679L299.825 149.364H242.432Z" fill="white"/>
<path d="M273.85 213.5H260.895L259.593 192.799H270.087L273.85 213.5Z" fill="#407BFF"/>
<path opacity="0.3" d="M273.85 213.5H260.895L259.593 192.799H270.087L273.85 213.5Z" fill="white"/>
<path d="M276.167 213.5H263.212L261.897 192.799H272.391L276.167 213.5Z" fill="#407BFF"/>
<path opacity="0.5" d="M276.167 213.5H263.212L261.897 192.799H272.391L276.167 213.5Z" fill="white"/>
<path d="M267.183 209.899H265.087H247.185V213.656H265.087H267.183H285.086V209.899H267.183Z" fill="#407BFF"/>
<path opacity="0.3" d="M267.183 209.899H265.087H247.185V213.656H265.087H267.183H285.086V209.899H267.183Z" fill="white"/>
<path d="M285.086 209.899H265.087V213.656H285.086V209.899Z" fill="#407BFF"/>
<path opacity="0.6" d="M285.086 209.899H265.087V213.656H285.086V209.899Z" fill="white"/>
<path d="M189.701 219.5V228.461H284.37C291.7 228.461 298.184 224.939 302.285 219.5H189.701Z" fill="#263238"/>
<path opacity="0.3" d="M189.701 219.5V228.461H284.37C291.7 228.461 298.184 224.939 302.285 219.5H189.701Z" fill="white"/>
<path d="M305.462 213.656H184.064V219.5H302.285C303.626 217.739 304.694 215.769 305.462 213.656Z" fill="#263238"/>
<path opacity="0.5" d="M305.462 213.656H184.064V219.5H302.285C303.626 217.739 304.694 215.769 305.462 213.656Z" fill="white"/>
<path d="M284.383 55.8532H147.556C132.14 55.8532 119.589 68.4143 119.589 83.8711V205.973C119.589 221.417 132.127 233.991 147.556 233.991H284.383C299.798 233.991 312.35 221.43 312.35 205.973V83.858C312.337 68.4143 299.798 55.8532 284.383 55.8532ZM306.842 205.96C306.842 218.391 296.791 228.461 284.383 228.461H147.556C135.148 228.461 125.096 218.391 125.096 205.96V83.858C125.096 71.4274 135.148 61.3576 147.556 61.3576H284.383C296.791 61.3576 306.842 71.4274 306.842 83.858V205.96Z" fill="#407BFF"/>
<path d="M284.383 55.8532H147.556C132.14 55.8532 119.589 68.4143 119.589 83.8711V205.973C119.589 221.417 132.127 233.991 147.556 233.991H284.383C299.798 233.991 312.35 221.43 312.35 205.973V83.858C312.337 68.4143 299.798 55.8532 284.383 55.8532ZM306.842 205.96C306.842 218.391 296.791 228.461 284.383 228.461H147.556C135.148 228.461 125.096 218.391 125.096 205.96V83.858C125.096 71.4274 135.148 61.3576 147.556 61.3576H284.383C296.791 61.3576 306.842 71.4274 306.842 83.858V205.96Z" fill="#7BC9FF"/>
<path d="M351.279 121.906C365.257 107.904 365.257 85.2002 351.279 71.1973C337.302 57.1943 314.64 57.1943 300.662 71.1973C286.685 85.2002 286.685 107.904 300.662 121.906C314.64 135.909 337.302 135.909 351.279 121.906Z" fill="#407BFF"/>
<path opacity="0.3" d="M351.279 121.906C365.257 107.904 365.257 85.2002 351.279 71.1973C337.302 57.1943 314.64 57.1943 300.662 71.1973C286.685 85.2002 286.685 107.904 300.662 121.906C314.64 135.909 337.302 135.909 351.279 121.906Z" fill="black"/>
<path d="M360.811 102.324C365.354 83.0518 353.441 63.7391 334.204 59.1883C314.966 54.6374 295.688 66.5718 291.146 85.8445C286.603 105.117 298.516 124.43 317.754 128.981C336.991 133.531 356.269 121.597 360.811 102.324Z" fill="#407BFF"/>
<path opacity="0.9" d="M355.49 101.066C359.338 84.7374 349.246 68.3753 332.947 64.5198C316.649 60.6643 300.316 70.7753 296.468 87.1034C292.619 103.432 302.712 119.794 319.01 123.649C335.309 127.505 351.641 117.394 355.49 101.066Z" fill="white"/>
<path d="M324.732 72.6796C324.732 79.4101 324.51 86.1668 324.732 92.8973C324.81 95.0495 325.799 95.6495 327.362 97.2017C329.731 99.5757 332.088 101.937 334.458 104.311C335.59 105.445 337.335 103.684 336.215 102.55C334.015 100.345 331.815 98.1409 329.614 95.9365C328.768 95.0887 327.557 94.2147 326.893 93.2104C327.726 94.4756 327.218 93.0408 327.218 91.9712C327.218 85.5407 327.218 79.0971 327.218 72.6665C327.205 71.0882 324.732 71.0882 324.732 72.6796Z" fill="#263238"/>
<path d="M382.697 461.461C381.044 461.461 379.651 460.195 379.494 458.552L378.479 447.804V358.572H386.929V447.804L385.9 458.552C385.731 460.195 384.351 461.461 382.697 461.461Z" fill="#263238"/>
<path opacity="0.3" d="M382.697 461.461C381.044 461.461 379.651 460.195 379.494 458.552L378.479 447.804V358.572H386.929V447.804L385.9 458.552C385.731 460.195 384.351 461.461 382.697 461.461Z" fill="white"/>
<path opacity="0.1" d="M386.915 368.628H378.465V379.024H386.915V368.628Z" fill="black"/>
<path d="M389.91 449.291V445.939C389.91 444.634 388.855 443.565 387.54 443.565H377.84C376.538 443.565 375.471 444.621 375.471 445.939V449.291L351.631 455.852C348.741 456.647 346.736 459.282 346.736 462.295H418.645C418.645 459.295 416.64 456.66 413.75 455.852L389.91 449.291Z" fill="#263238"/>
<path opacity="0.2" d="M389.91 449.291V445.939C389.91 444.634 388.855 443.565 387.54 443.565H377.84C376.538 443.565 375.471 444.621 375.471 445.939V449.291L351.631 455.852C348.741 456.647 346.736 459.282 346.736 462.295H418.645C418.645 459.295 416.64 456.66 413.75 455.852L389.91 449.291Z" fill="white"/>
<path opacity="0.1" d="M389.91 449.199V445.939C389.91 445.821 389.897 445.717 389.871 445.599H375.51C375.497 445.704 375.471 445.821 375.471 445.939V449.199H389.91Z" fill="black"/>
<path d="M420.963 271.414C405.078 271.975 391.342 285.488 389.689 301.349L383.765 357.854C383.218 363.007 386.954 367.194 392.097 367.194H400.235H431.873H440.011C445.154 367.194 449.763 363.02 450.31 357.854L456.312 300.645C458.044 284.131 445.792 270.814 429.113 271.401H420.963V271.414Z" fill="#263238"/>
<path opacity="0.2" d="M420.963 271.414C405.078 271.975 391.342 285.488 389.689 301.349L383.765 357.854C383.218 363.007 386.954 367.194 392.097 367.194H400.235H431.873H440.011C445.154 367.194 449.763 363.02 450.31 357.854L456.312 300.645C458.044 284.131 445.792 270.814 429.113 271.401H420.963V271.414Z" fill="white"/>
<path d="M448.161 300.645C449.893 284.131 437.641 270.814 420.963 271.401C405.078 271.961 391.342 285.475 389.689 301.336L383.765 357.841C383.218 362.994 386.954 367.181 392.097 367.181H431.873C437.016 367.181 441.625 363.007 442.172 357.841L448.161 300.645Z" fill="#263238"/>
<path d="M315.982 358.102C325.539 355.454 335.356 354.006 345.199 353.732C355.342 353.459 393.321 353.693 402.331 353.693C413.307 353.693 424.283 355.154 434.933 358.115C441.625 359.967 439.568 370.468 433.514 370.585C432.98 370.598 318.196 370.559 317.766 370.585C311.438 370.872 309.134 359.993 315.982 358.102Z" fill="#263238"/>
<path d="M431.821 370.35C412.539 365.002 392.11 365.002 372.828 370.35C365.537 372.372 362.425 360.124 369.716 358.102C391.017 352.206 413.619 352.206 434.92 358.102C442.211 360.124 439.126 372.372 431.821 370.35Z" fill="#263238"/>
<g opacity="0.2">
<path opacity="0.2" d="M431.821 370.35C412.539 365.002 392.11 365.002 372.828 370.35C365.537 372.372 362.425 360.124 369.716 358.102C391.017 352.206 413.619 352.206 434.92 358.102C442.211 360.124 439.126 372.372 431.821 370.35Z" fill="white"/>
</g>
<path d="M301.517 399.777L293.393 423.529L286.57 421.573L292.091 396.516L301.517 399.777Z" fill="#B97964"/>
<path d="M286.7 419.747L295.085 422.277C295.45 422.368 295.697 422.708 295.684 423.086L295.372 431.434C295.346 432.177 294.734 432.764 293.992 432.738C293.9 432.738 293.796 432.725 293.705 432.699C290.229 431.721 287.169 430.717 282.82 429.595C277.69 428.251 278.836 429.203 272.782 427.716C269.136 426.816 269.553 422.499 271.141 422.695C278.42 423.647 281.011 421.703 284.396 419.89C285.125 419.577 285.945 419.512 286.7 419.747Z" fill="#263238"/>
<path opacity="0.1" d="M297.09 412.729L288.979 410.642L292.091 396.516L301.517 399.777L297.09 412.729Z" fill="black"/>
<path d="M302.975 406.116L300.71 410.512L287.716 406.116V401.081L302.975 406.116Z" fill="#407BFF"/>
<path opacity="0.3" d="M302.975 406.116L300.71 410.512L287.716 406.116V401.081L302.975 406.116Z" fill="white"/>
<path d="M353.805 428.89L356.513 449.917L348.884 450.112L343.363 429.83L353.805 428.89Z" fill="#B97964"/>
<path d="M348.78 448.952L357.49 448.978C357.867 448.978 358.193 449.239 358.271 449.617L360.055 457.782C360.224 458.5 359.768 459.23 359.039 459.387C358.948 459.413 358.857 459.413 358.753 459.426C355.146 459.347 351.93 459.152 347.438 459.139C342.139 459.126 343.48 459.765 337.244 459.843C333.494 459.882 332.817 455.604 334.405 455.395C341.697 454.495 343.754 452.291 346.579 449.682C347.217 449.173 347.985 448.912 348.78 448.952Z" fill="#0C2532"/>
<path opacity="0.1" d="M346.566 441.595L343.363 429.83L353.805 428.89L355.368 441.047L346.566 441.595Z" fill="black"/>
<path d="M380.093 302.692H367.763C367.763 302.692 364.521 311.106 363.87 319.897C363.219 328.676 380.093 322.18 380.093 322.18L381.564 310.14L380.093 302.692Z" fill="#407BFF"/>
<path opacity="0.1" d="M380.093 302.692H367.763C367.763 302.692 364.521 311.106 363.87 319.897C363.219 328.676 380.093 322.18 380.093 322.18L381.564 310.14L380.093 302.692Z" fill="black"/>
<path opacity="0.1" d="M372.932 302.692C376.356 320.706 369.768 319.793 369.768 319.793L373.505 322.401L380.288 320.732L381.59 310.14L380.119 302.705H372.932V302.692Z" fill="black"/>
<path d="M404.687 301.571C404.687 301.571 417.239 322.61 415.077 340.18C412.916 357.75 396.693 367.037 334.327 337.115C334.327 337.115 321.542 350.38 300.319 407.212L289.5 403.964C289.5 403.964 301.738 338.276 312.662 319.584C323.703 300.71 372.203 322.832 375.887 319.154C379.168 315.867 376.317 302.888 376.317 302.888L404.687 301.571Z" fill="#407BFF"/>
<path opacity="0.2" d="M327.218 342.997L323.807 340.363C323.807 340.363 311.79 346.885 317.766 365.446C322.115 356.367 325.682 349.963 328.377 345.567L327.218 342.997Z" fill="black"/>
<path d="M379.298 354.385C367.971 351.672 353.297 346.206 334.327 337.102C334.327 337.102 319.693 337.297 318.716 348.202C317.74 359.107 343.402 434.473 343.402 434.473L355.251 433.443C355.251 433.443 348.272 358.285 346.644 354.385H379.298Z" fill="#407BFF"/>
<path opacity="0.1" d="M379.298 354.385C367.971 351.672 353.297 346.206 334.327 337.102C334.327 337.102 319.693 337.297 318.716 348.202C317.74 359.107 343.402 434.473 343.402 434.473L355.251 433.443C355.251 433.443 348.272 358.285 346.644 354.385H379.298Z" fill="black"/>
<path opacity="0.1" d="M334.327 337.115C334.327 337.115 332.088 337.154 329.315 337.832C331.997 340.206 341.449 348.085 355.758 354.385H379.298C367.971 351.672 353.298 346.206 334.327 337.115Z" fill="black"/>
<path d="M356.683 431.499L357.008 436.377L343.207 437.46L341.241 432.817L356.683 431.499Z" fill="#407BFF"/>
<path opacity="0.3" d="M356.683 431.499L357.008 436.377L343.207 437.46L341.241 432.817L356.683 431.499Z" fill="white"/>
<path d="M350.511 280.557L336.58 288.397L327.258 287.94C326.424 287.901 325.63 288.305 325.174 289.023L322.505 293.197C322.141 293.771 322.037 294.488 322.245 295.14L322.31 295.349C322.675 296.536 323.898 297.227 325.096 296.94L329.158 295.949L337.244 294.397L357.021 285.749L350.511 280.557Z" fill="#B97964"/>
<path d="M347.777 280.988C347.777 280.988 352.738 282.449 353.87 288.383C353.87 288.383 364.026 284.849 365.797 279.162C367.568 273.475 372.294 245.391 364.638 245.352C356.982 245.313 361.136 278.966 347.777 280.988Z" fill="#0C2532"/>
<path opacity="0.6" d="M347.777 280.988C347.777 280.988 352.738 282.449 353.87 288.383C353.87 288.383 364.026 284.849 365.797 279.162C367.568 273.475 372.294 245.391 364.638 245.352C356.982 245.313 361.136 278.966 347.777 280.988Z" fill="white"/>
<path d="M345.186 281.431C345.186 281.431 348.832 284.718 351.123 290.34L356.487 287.679C356.487 287.679 354.326 281.562 349.951 279.096L345.186 281.431Z" fill="#0C2532"/>
<path opacity="0.7" d="M345.186 281.431C345.186 281.431 348.832 284.718 351.123 290.34L356.487 287.679C356.487 287.679 354.326 281.562 349.951 279.096L345.186 281.431Z" fill="white"/>
<path d="M366.747 304.036C366.747 304.036 386.017 305.784 406.419 302.862C406.419 302.862 401.927 287.849 405.169 269.614C408.411 251.378 425.519 240.578 383.022 241.322C376.877 241.426 358.649 240.604 360.732 253.609C362.958 267.5 366.747 304.036 366.747 304.036Z" fill="#0C2532"/>
<path opacity="0.5" d="M366.747 304.036C366.747 304.036 386.017 305.784 406.419 302.862C406.419 302.862 401.927 287.849 405.169 269.614C408.411 251.378 425.519 240.578 383.022 241.322C376.877 241.426 358.649 240.604 360.732 253.609C362.958 267.5 366.747 304.036 366.747 304.036Z" fill="white"/>
<path d="M392.071 282.723L372.242 288.592L363.766 287.105C362.867 286.949 361.969 287.314 361.422 288.044L358.571 291.905C358.154 292.466 357.998 293.197 358.167 293.888L358.193 294.018C358.48 295.257 359.677 296.053 360.94 295.844L365.003 295.153L373.166 294.162L398.217 288.383L392.071 282.723Z" fill="#B97964"/>
<path d="M389.142 282.396C389.142 282.396 394.076 284.249 394.792 290.249C394.792 290.249 405.247 287.94 407.409 282.396C409.557 276.853 416.379 245.822 408.763 245.248C401.146 244.674 402.617 281.288 389.142 282.396Z" fill="#0C2532"/>
<path opacity="0.6" d="M389.142 282.396C389.142 282.396 394.076 284.249 394.792 290.249C394.792 290.249 405.247 287.94 407.409 282.396C409.557 276.853 416.379 245.822 408.763 245.248C401.146 244.674 402.617 281.288 389.142 282.396Z" fill="white"/>
<path d="M386.186 282.905C386.186 282.905 390.47 286.883 392.071 291.801L397.553 290.236C397.553 290.236 395.313 283.649 391.121 280.883L386.186 282.905Z" fill="#0C2532"/>
<path opacity="0.7" d="M386.186 282.905C386.186 282.905 390.47 286.883 392.071 291.801L397.553 290.236C397.553 290.236 395.313 283.649 391.121 280.883L386.186 282.905Z" fill="white"/>
<path d="M391.186 203.325C391.186 203.325 385.249 191.443 394.35 192.995C403.45 194.56 398.06 218.195 406.432 221.43C406.432 221.43 396.758 223.843 391.186 203.325Z" fill="#0C2532"/>
<path opacity="0.6" d="M389.48 198.33C389.962 200.86 391.186 203.325 391.186 203.325C392.709 208.934 394.545 212.821 396.394 215.521C397.761 211.191 398.308 204.147 394.271 200.091C392.709 198.538 391.081 198.956 389.48 198.33Z" fill="black"/>
<path d="M388.009 200.808C388.009 200.808 390.99 197.443 393.542 201.76C396.094 206.078 391.876 207.108 391.876 207.108L388.009 200.808Z" fill="#407BFF"/>
<path d="M390.131 223.361C390.131 223.361 391.472 228.239 394.948 224.887C398.412 221.547 392.136 225.043 390.131 223.361Z" fill="#0C2532"/>
<path d="M383.009 240.904C383.009 240.904 374.507 237.97 370.875 245.209L374.234 246.539L372.385 248.809L379.324 253.857L391.173 249.787L390.522 248.104L396.224 246.552C396.237 246.552 397.735 238.204 383.009 240.904Z" fill="#0C2532"/>
<path opacity="0.7" d="M383.009 240.904C383.009 240.904 374.507 237.97 370.875 245.209L374.234 246.539L372.385 248.809L379.324 253.857L391.173 249.787L390.522 248.104L396.224 246.552C396.237 246.552 397.735 238.204 383.009 240.904Z" fill="white"/>
<path d="M383.257 241.57C383.257 241.57 369.078 238.452 379.038 252.605C379.038 252.605 407.396 241.27 383.257 241.57Z" fill="#B97964"/>
<path d="M388.894 225.265L379.259 234.761C380.119 238.896 378.921 241.035 377.593 242.13V245.209C378.699 245.561 380.288 245.783 382.605 245.652C389.597 245.274 391.876 244.531 391.876 244.531C387.67 241.178 388.269 230.913 388.894 225.265Z" fill="#B97964"/>
<path opacity="0.1" d="M379.337 239.157C379.598 238.022 379.624 236.6 379.246 234.761L387.853 226.295L388.699 227.274C388.699 227.274 386.967 238.061 379.337 239.157Z" fill="black"/>
<path d="M389.688 212.704C390.391 222.004 390.899 225.93 386.902 231.304C380.887 239.391 369.338 238.23 365.862 229.335C362.737 221.326 362.112 207.46 370.601 202.543C376.655 198.995 384.428 201.043 387.97 207.108C388.985 208.817 389.571 210.734 389.688 212.704Z" fill="#B97964"/>
<path d="M370.744 222.108C370.315 223.908 369.638 225.656 368.739 227.274C369.586 227.73 370.588 227.782 371.473 227.417L370.744 222.108Z" fill="#A24E3F"/>
<path d="M377.775 215.769C377.84 215.743 377.892 215.704 377.931 215.665C378.062 215.508 378.049 215.273 377.892 215.143C376.838 214.217 375.392 213.852 374.025 214.178C373.83 214.243 373.726 214.452 373.778 214.647C373.843 214.843 374.038 214.947 374.234 214.895C375.366 214.647 376.551 214.947 377.424 215.717C377.515 215.782 377.645 215.808 377.775 215.769Z" fill="#2E353A"/>
<path d="M364.052 217.047C364.117 217.021 364.169 216.982 364.208 216.943C364.95 216.056 366.083 215.586 367.229 215.678C367.424 215.717 367.619 215.573 367.659 215.378C367.685 215.169 367.541 214.986 367.346 214.96C365.94 214.843 364.573 215.404 363.661 216.473C363.518 216.617 363.531 216.852 363.674 216.995C363.766 217.073 363.922 217.1 364.052 217.047Z" fill="#2E353A"/>
<path d="M375.874 220.139C375.978 220.882 375.666 221.547 375.171 221.626C374.676 221.704 374.207 221.143 374.103 220.387C373.999 219.63 374.312 218.978 374.793 218.913C375.275 218.834 375.757 219.382 375.874 220.139Z" fill="#2E353A"/>
<path d="M367.398 221.313C367.502 222.056 367.19 222.721 366.708 222.787C366.226 222.852 365.745 222.304 365.627 221.547C365.523 220.791 365.836 220.139 366.318 220.074C366.799 220.008 367.294 220.556 367.398 221.313Z" fill="#2E353A"/>
<path d="M366.539 220.087L364.664 219.826C364.664 219.826 365.797 221.091 366.539 220.087Z" fill="#2E353A"/>
<path d="M375.015 218.913L373.14 218.652C373.14 218.652 374.26 219.917 375.015 218.913Z" fill="#2E353A"/>
<path d="M376.46 227.756C376.616 227.495 376.733 227.222 376.838 226.935C376.877 226.843 376.838 226.739 376.746 226.7C376.655 226.674 376.551 226.726 376.512 226.817C375.991 228.291 374.806 229.413 373.322 229.869C373.218 229.895 373.166 229.987 373.179 230.091C373.205 230.195 373.296 230.248 373.4 230.235C374.702 229.843 375.809 228.956 376.46 227.756Z" fill="#0C2532"/>
<path d="M390.131 223.361C390.131 223.361 385.053 220.595 384.728 212.913C384.415 205.243 372.762 203.678 365.601 208.178C365.601 208.178 363.544 201.408 371.044 200.808C371.044 200.808 382.007 192.773 390.99 201.76C398.92 209.691 390.131 223.361 390.131 223.361Z" fill="#0C2532"/>
<path d="M392.878 219.695C392.605 221.482 391.628 223.074 390.183 224.143C388.243 225.539 386.459 224 386.316 221.743C386.186 219.721 387.032 216.539 389.311 216.03C390.977 215.717 392.592 216.813 392.904 218.482C392.969 218.887 392.956 219.304 392.878 219.695Z" fill="#B97964"/>
<path d="M366.226 206.991C366.226 206.991 363.948 212.104 362.034 206.991C360.12 201.878 364.325 208.139 366.226 206.991Z" fill="#0C2532"/>
<path d="M372.085 294.866H305.566C304.486 294.866 303.613 295.74 303.613 296.823C303.613 297.905 304.486 298.779 305.566 298.779H372.085C373.166 298.779 374.038 297.905 374.038 296.823C374.038 295.74 373.166 294.866 372.085 294.866Z" fill="#407BFF"/>
<path opacity="0.3" d="M372.085 294.866H305.566C304.486 294.866 303.613 295.74 303.613 296.823C303.613 297.905 304.486 298.779 305.566 298.779H372.085C373.166 298.779 374.038 297.905 374.038 296.823C374.038 295.74 373.166 294.866 372.085 294.866Z" fill="white"/>
<path opacity="0.2" d="M334.236 298.779C333.156 298.779 332.283 297.905 332.283 296.823C332.283 295.74 333.156 294.866 334.236 294.866H372.086C373.166 294.866 374.039 295.74 374.039 296.823C374.039 297.905 373.166 298.779 372.086 298.779H334.236Z" fill="white"/>
<path d="M306.634 297.579H331.099C331.737 297.579 332.179 296.953 331.971 296.34L318.56 257.952C318.196 256.896 317.193 256.192 316.074 256.192H291.609C290.971 256.192 290.528 256.818 290.737 257.431L304.147 295.818C304.512 296.875 305.514 297.579 306.634 297.579Z" fill="#407BFF"/>
<path d="M305.449 297.579H329.914C330.552 297.579 330.994 296.953 330.786 296.34L317.376 257.952C317.011 256.896 316.008 256.192 314.889 256.192H290.424C289.786 256.192 289.343 256.818 289.552 257.431L302.962 295.818C303.34 296.875 304.33 297.579 305.449 297.579Z" fill="#407BFF"/>
<path opacity="0.5" d="M305.449 297.579H329.914C330.552 297.579 330.994 296.953 330.786 296.34L317.376 257.952C317.011 256.896 316.008 256.192 314.889 256.192H290.424C289.786 256.192 289.343 256.818 289.552 257.431L302.962 295.818C303.34 296.875 304.33 297.579 305.449 297.579Z" fill="white"/>
<path d="M308.183 276.892C308.496 278.366 309.512 279.553 310.449 279.553C311.386 279.553 311.894 278.366 311.582 276.892C311.269 275.418 310.254 274.231 309.316 274.231C308.379 274.231 307.871 275.418 308.183 276.892Z" fill="white"/>
<path d="M258.056 275.822C258.056 275.822 249.698 268.061 254.085 264.709C258.473 261.357 248.877 256.166 252.341 253.648C255.791 251.131 250.635 244.609 253.656 243.526C256.676 242.444 252.913 238.635 255.101 236.809C257.965 234.409 257.379 246.696 260.218 246.891C263.056 247.1 257.405 253.87 260.947 254.731C264.488 255.592 259.671 263.261 262.978 263.405C266.285 263.535 263.29 271.87 258.056 275.822Z" fill="#407BFF"/>
<path opacity="0.5" d="M258.056 275.822C258.056 275.822 249.698 268.061 254.085 264.709C258.473 261.357 248.877 256.166 252.341 253.648C255.791 251.131 250.635 244.609 253.656 243.526C256.676 242.444 252.913 238.635 255.101 236.809C257.965 234.409 257.379 246.696 260.218 246.891C263.056 247.1 257.405 253.87 260.947 254.731C264.488 255.592 259.671 263.261 262.978 263.405C266.285 263.535 263.29 271.87 258.056 275.822Z" fill="white"/>
<g opacity="0.2">
<path opacity="0.2" d="M255.27 239.939C256.116 245.026 256.806 250.139 257.366 255.265C258.056 261.553 259.502 269.496 257.522 275.679C257.314 276.344 258.356 276.631 258.564 275.966C260.595 269.614 259.15 261.735 258.447 255.265C257.874 250.048 257.171 244.83 256.312 239.652C256.207 238.974 255.166 239.261 255.27 239.939Z" fill="black"/>
</g>
<path d="M255.27 274.479C255.27 274.479 246.651 270.318 249.346 266.535C252.041 262.753 243.057 260.966 245.219 258.083C247.367 255.2 241.625 251.248 243.786 249.631C245.935 248.013 241.339 244.126 243.292 243.878C246.429 243.487 247.549 251.248 249.893 250.713C252.223 250.178 249.359 257.013 252.406 256.831C255.452 256.648 253.486 264.005 256.181 263.287C258.864 262.583 258.499 270.018 255.27 274.479Z" fill="#407BFF"/>
<g opacity="0.2">
<path opacity="0.2" d="M245.088 247.544C249.216 256.022 253.395 265.231 254.762 274.622C254.866 275.301 255.895 275.014 255.804 274.335C254.437 264.853 250.192 255.552 246.026 246.996C245.713 246.37 244.776 246.918 245.088 247.544Z" fill="black"/>
</g>
<path d="M262.509 274.479C262.509 274.479 271.128 270.318 268.433 266.535C265.738 262.753 274.722 260.966 272.561 258.083C270.399 255.2 276.154 251.248 273.993 249.631C271.845 248.013 275.79 246.552 274.488 243.878C273.094 241.035 270.23 251.248 267.886 250.713C265.556 250.178 268.42 257.013 265.374 256.831C262.327 256.648 264.293 264.005 261.598 263.287C258.916 262.583 259.28 270.018 262.509 274.479Z" fill="#407BFF"/>
<path opacity="0.2" d="M262.509 274.479C262.509 274.479 271.128 270.318 268.433 266.535C265.738 262.753 274.722 260.966 272.561 258.083C270.399 255.2 276.154 251.248 273.993 249.631C271.845 248.013 275.79 246.552 274.488 243.878C273.094 241.035 270.23 251.248 267.886 250.713C265.556 250.178 268.42 257.013 265.374 256.831C262.327 256.648 264.293 264.005 261.598 263.287C258.916 262.583 259.28 270.018 262.509 274.479Z" fill="white"/>
<g opacity="0.2">
<path opacity="0.2" d="M272.613 247.544C268.485 256.022 264.306 265.231 262.939 274.622C262.835 275.301 261.806 275.014 261.897 274.335C263.264 264.853 267.509 255.552 271.675 246.996C271.988 246.37 272.925 246.918 272.613 247.544Z" fill="black"/>
</g>
<path d="M267.066 299.001H251.742L248.864 273.161H269.931L267.066 299.001Z" fill="#407BFF"/>
<path opacity="0.3" d="M267.066 299.001H251.742L248.864 273.161H269.931L267.066 299.001Z" fill="white"/>
<path d="M306.074 461.461C304.421 461.461 303.028 460.195 302.871 458.552L301.843 447.804V300.488H310.293V447.791L309.277 458.539C309.121 460.195 307.728 461.461 306.074 461.461Z" fill="#263238"/>
<path opacity="0.3" d="M306.074 461.461C304.421 461.461 303.028 460.195 302.871 458.552L301.843 447.804V300.488H310.293V447.791L309.277 458.539C309.121 460.195 307.728 461.461 306.074 461.461Z" fill="white"/>
<path opacity="0.1" d="M310.306 301.923H301.856V312.319H310.306V301.923Z" fill="black"/>
<path d="M313.287 449.291V445.939C313.287 444.634 312.233 443.565 310.918 443.565H301.218C299.916 443.565 298.848 444.621 298.848 445.939V449.291L275.009 455.852C272.118 456.647 270.113 459.282 270.113 462.295H342.022C342.022 459.295 340.017 456.66 337.127 455.852L313.287 449.291Z" fill="#407BFF"/>
<path opacity="0.1" d="M313.287 449.199V445.939C313.287 445.821 313.274 445.717 313.248 445.599H298.887C298.874 445.704 298.848 445.821 298.848 445.939V449.199H313.287Z" fill="black"/>
<path opacity="0.2" d="M313.287 449.291V445.939C313.287 444.634 312.233 443.565 310.918 443.565H301.218C299.916 443.565 298.848 444.621 298.848 445.939V449.291L275.009 455.852C272.118 456.647 270.113 459.282 270.113 462.295H342.022C342.022 459.295 340.017 456.66 337.127 455.852L313.287 449.291Z" fill="black"/>
<path d="M397.592 303.723H214.544V308.666H397.592V303.723Z" fill="#263238"/>
<path opacity="0.3" d="M397.592 303.723H214.544V308.666H397.592V303.723Z" fill="white"/>
<path opacity="0.2" d="M397.592 303.723H306.322V308.666H397.592V303.723Z" fill="black"/>
<path d="M408.633 298.779H203.503V303.723H408.633V298.779Z" fill="#407BFF"/>
<path opacity="0.3" d="M408.633 298.779H295.281V303.723H408.633V298.779Z" fill="black"/>
</svg>
