<svg width="63" height="63" viewBox="0 0 63 63" fill="none" xmlns="http://www.w3.org/2000/svg">
<g clip-path="url(#clip0)">
<path d="M38.1928 30.1626C38.6563 29.8419 39.7412 29.09 39.7479 27.2591L39.7618 23.4874L40.2776 23.4892C40.5138 23.4901 40.7077 23.2977 40.7087 23.0614L40.7161 21.0379C40.7171 20.8017 40.5246 20.6079 40.2883 20.6071L23.6615 20.5462C23.4254 20.5453 23.2313 20.738 23.2305 20.974L23.223 22.9975C23.2222 23.2335 23.4147 23.4274 23.6508 23.4284L24.1666 23.4303L24.1528 27.2706C24.1461 29.0836 24.6967 29.51 25.6703 30.1084L29.9048 32.7099L29.9007 33.8128C28.8295 34.4517 26.0312 36.1239 25.6642 36.3779C25.2009 36.6988 24.1155 37.4504 24.1088 39.2815L24.097 42.529L23.581 42.5272C23.3451 42.5262 23.1509 42.7187 23.1499 42.9549L23.1427 44.9783C23.1417 45.2145 23.3343 45.4082 23.5705 45.4093L40.1975 45.4702C40.4333 45.4711 40.6274 45.2786 40.6283 45.0423L40.6355 43.0192C40.6366 42.783 40.4441 42.589 40.2077 42.5881L39.692 42.5861L39.7038 39.2701C39.7105 37.4573 39.1601 37.0304 38.1864 36.4326L33.9522 33.8309L33.956 32.728C35.0273 32.0892 37.8256 30.4171 38.1928 30.1626ZM32.7731 34.9205L37.3776 37.7492C37.7309 37.9662 37.9196 38.0861 38.0064 38.2247C38.1108 38.3912 38.1604 38.7314 38.1583 39.2641L38.1463 42.5805L25.6426 42.5347L25.6542 39.2874C25.6581 38.2624 26.1701 37.9076 26.5438 37.6487C26.8362 37.4464 29.4092 35.9043 31.0673 34.9169C31.3002 34.7781 31.4436 34.527 31.4446 34.2556L31.4518 32.2814C31.4526 32.0119 31.3133 31.7614 31.0837 31.6203L26.4931 28.8001L26.4791 28.7913C26.1258 28.5743 25.937 28.4544 25.8503 28.3157C25.746 28.1492 25.6963 27.8093 25.6983 27.2763L25.7123 23.436L38.2163 23.4816L38.2023 27.2535C38.1987 28.2786 37.6868 28.6331 37.313 28.8921C37.0209 29.0944 34.4479 30.6367 32.7899 31.6238C32.5568 31.7627 32.4132 32.0137 32.4122 32.2853L32.4051 34.2592C32.4041 34.5289 32.5437 34.7791 32.7731 34.9205Z" fill="#125F96"/>
<path d="M46.3315 45.9125C46.0663 46.2082 45.7882 46.4994 45.5056 46.7777C45.4599 46.8228 45.417 46.8697 45.3765 46.9184C45.3286 46.9555 45.282 46.9955 45.2369 47.0384C43.9996 48.2152 42.6317 49.2107 41.1496 50.0195C41.1305 50.0291 41.1107 50.0371 41.0916 50.0476C40.7421 50.2381 40.3824 50.4198 40.0228 50.5883C40.019 50.5903 40.0152 50.5927 40.0113 50.5945C39.35 50.9009 38.6686 51.1729 37.9669 51.4086C29.8761 54.1267 21.2321 51.2533 16.248 44.886C16.1724 44.7886 16.0967 44.6917 16.023 44.5935C14.7911 42.9566 13.7966 41.0989 13.1093 39.0529C12.4205 37.0026 12.0917 34.9165 12.0869 32.8636C12.0868 32.8187 12.0863 32.7744 12.0863 32.7294C12.087 32.6095 12.089 32.4897 12.0919 32.3699C12.0931 32.3136 12.0946 32.2576 12.0964 32.2016C12.2999 25.7699 15.6814 19.7386 21.1793 16.2404C21.1828 16.2383 21.1866 16.2367 21.19 16.2345C21.2713 16.1828 21.3535 16.1313 21.436 16.0806C21.4452 16.0751 21.4537 16.0681 21.4625 16.0625C22.6699 15.3232 23.976 14.705 25.3694 14.2289L26.0282 16.1366C26.2326 16.7288 26.6653 16.7744 26.9892 16.2384L29.8795 11.4555C30.2033 10.9195 29.9894 10.2987 29.4032 10.0769L24.1776 8.09655C23.5918 7.87472 23.2797 8.17744 23.4842 8.76957L24.1418 10.6734C18.2772 12.6798 13.5318 16.8359 10.7705 22.391C10.4984 22.9382 10.2497 23.4927 10.0227 24.053C10.0214 24.0563 10.0197 24.0591 10.0183 24.0626C10.0099 24.0832 10.0025 24.1043 9.99426 24.1249C8.01152 29.0651 7.7744 34.4718 9.33558 39.5986C9.34526 39.6393 9.35418 39.6799 9.36676 39.7205C9.41972 39.8913 9.47554 40.0642 9.53275 40.2344C9.62655 40.5136 9.7273 40.7947 9.83158 41.0703C9.84373 41.1026 9.8587 41.1331 9.87268 41.1642C11.6146 45.728 14.6841 49.565 18.7082 52.2453C18.7219 52.2546 18.734 52.2653 18.7479 52.2745C19.1409 52.5363 19.5486 52.7895 19.9584 53.0272C19.9848 53.0425 20.0121 53.0543 20.0387 53.0683C20.4525 53.3059 20.8738 53.5333 21.3046 53.7474C25.7027 55.9336 30.5629 56.6696 35.3178 55.9184C35.3324 55.9163 35.3471 55.9144 35.3616 55.9123C35.3724 55.9104 35.3827 55.9077 35.3933 55.9058C36.6617 55.7011 37.9227 55.392 39.1649 54.9747C42.4336 53.8766 45.3486 52.1233 47.8293 49.7642C47.8828 49.7134 47.9316 49.6593 47.9776 49.604C48.0358 49.5592 48.0915 49.5105 48.1449 49.4579C48.4823 49.1253 48.8143 48.7783 49.1308 48.4257C49.8247 47.6526 49.7608 46.4634 48.9877 45.7695C48.2145 45.0755 47.0253 45.1398 46.3315 45.9125Z" fill="#125F96"/>
<path d="M43.6804 17.2342C44.1966 17.6308 44.8529 17.7179 45.4267 17.5252C45.7686 17.4103 46.0816 17.1959 46.3177 16.8884C46.9505 16.0646 46.7956 14.8839 45.9718 14.2511C45.5958 13.9624 45.2066 13.6816 44.8138 13.4171C43.9529 12.8358 42.784 13.0629 42.2028 13.9239C41.6217 14.7849 41.8487 15.9541 42.71 16.535C43.0392 16.7573 43.3657 16.9926 43.6804 17.2342Z" fill="#125F96"/>
<path d="M47.5177 21.1564C47.7526 21.4759 47.9812 21.8076 48.1976 22.1424C48.6741 22.8799 49.5796 23.1727 50.3753 22.9054C50.5209 22.8565 50.6632 22.7886 50.7982 22.7014C51.6708 22.1377 51.9211 20.9732 51.3574 20.1008C51.1001 19.7027 50.828 19.3081 50.5483 18.9279C49.9332 18.091 48.7557 17.9112 47.919 18.5266C47.0819 19.1421 46.9023 20.3195 47.5177 21.1564Z" fill="#125F96"/>
<path d="M52.3269 39.2349C51.3653 38.8412 50.2672 39.3011 49.8733 40.2622C49.7225 40.6303 49.5588 40.998 49.3861 41.3554C48.9345 42.291 49.3268 43.4154 50.2626 43.8671C50.7233 44.0895 51.2298 44.1072 51.679 43.9563C52.1423 43.8006 52.545 43.4654 52.7741 42.9908C52.9795 42.565 53.1751 42.1269 53.3543 41.6886C53.7478 40.7272 53.2879 39.6287 52.3269 39.2349Z" fill="#125F96"/>
<path d="M51.7656 24.7782C50.7698 25.0798 50.2096 26.1297 50.5111 27.1237C50.6266 27.5044 50.7314 27.8934 50.8228 28.28C51.0622 29.2907 52.0759 29.9161 53.0867 29.6767C53.1438 29.6632 53.1996 29.6472 53.2543 29.6288C54.165 29.3228 54.7094 28.3666 54.4834 27.413C54.3741 26.9516 54.2491 26.4874 54.1112 26.0329C53.8097 25.0392 52.7598 24.477 51.7656 24.7782Z" fill="#125F96"/>
<path d="M53.2956 31.9587C52.2575 31.9077 51.3754 32.7075 51.3245 33.7453C51.305 34.1421 51.2731 34.5441 51.2294 34.9398C51.1156 35.9722 51.8603 36.9013 52.8929 37.0151C53.1735 37.046 53.4461 37.0136 53.697 36.9293C54.3702 36.7032 54.8857 36.1038 54.9686 35.3516C55.0204 34.8807 55.0588 34.4024 55.0818 33.9298C55.1329 32.8923 54.3331 32.0098 53.2956 31.9587Z" fill="#125F96"/>
<path d="M40.143 12.9222C40.4632 11.9338 39.9217 10.8732 38.9333 10.5531C38.4833 10.4072 38.0225 10.2735 37.5638 10.1551C36.558 9.89576 35.5322 10.5006 35.2728 11.5065C35.0135 12.5122 35.6182 13.538 36.624 13.7976C37.0093 13.8968 37.3961 14.0094 37.7743 14.1319C38.1725 14.2608 38.5828 14.2499 38.9516 14.126C39.4973 13.9427 39.9521 13.5119 40.143 12.9222Z" fill="#125F96"/>
</g>
<defs>
<clipPath id="clip0">
<rect width="49.4186" height="49.4186" fill="white" transform="translate(0 16) rotate(-18.5695)"/>
</clipPath>
</defs>
</svg>
