<svg width="481" height="472" viewBox="0 0 481 472" fill="none" xmlns="http://www.w3.org/2000/svg">
<path d="M480.184 317.409H296.005V210.797H480.184V317.409ZM297.129 316.285H479.06V211.921H297.129V316.285Z" fill="#0C5F98"/>
<path d="M442.182 267.649H320.644V271.212H442.182V267.649Z" fill="#0D65A2" fill-opacity="0.3"/>
<path d="M450.555 280.935H320.644V284.824H450.555V280.935Z" fill="#0D65A2" fill-opacity="0.3"/>
<path d="M450.555 294.378H320.644V298.267H450.555V294.378Z" fill="#0D65A2" fill-opacity="0.3"/>
<path d="M363.119 248.35H320.644V257.601H363.119V248.35Z" fill="#0D65A2" fill-opacity="0.3"/>
<path d="M479.622 211.371H296.567V228.343H479.622V211.371Z" fill="#0C5F98"/>
<path d="M465.538 225.803C465.302 225.578 467.663 222.734 470.81 219.452C473.957 216.17 476.688 213.686 476.924 213.911C477.16 214.136 474.8 216.979 471.653 220.262C468.506 223.544 465.774 226.028 465.538 225.803Z" fill="white"/>
<path d="M476.913 225.803C476.677 226.028 473.946 223.544 470.799 220.262C467.651 216.979 465.291 214.136 465.527 213.911C465.763 213.686 468.494 216.17 471.642 219.452C474.789 222.734 477.149 225.578 476.913 225.803Z" fill="white"/>
<path d="M253.507 0.272217H70.4521V105.76H253.507V0.272217Z" fill="#1A84CE"/>
<path d="M216.078 56.5509H94.5396V60.114H216.078V56.5509Z" fill="#0D65A2" fill-opacity="0.3"/>
<path d="M224.451 69.8478H94.5396V73.7369H224.451V69.8478Z" fill="#0D65A2" fill-opacity="0.3"/>
<path d="M224.451 83.2909H94.5396V87.1799H224.451V83.2909Z" fill="#0D65A2" fill-opacity="0.3"/>
<path d="M137.016 37.2631H94.5396V46.5136H137.016V37.2631Z" fill="#0D65A2" fill-opacity="0.3"/>
<path d="M253.507 0.272217H70.4521V17.2446H253.507V0.272217Z" fill="#0C5F98"/>
<path d="M238.805 14.6257C238.569 14.4009 240.929 11.5572 244.076 8.2751C247.224 4.99302 249.955 2.50898 250.191 2.73378C250.427 2.95858 248.067 5.8023 244.919 9.08438C241.772 12.3665 239.03 14.8505 238.805 14.6257Z" fill="white"/>
<path d="M250.18 14.6257C249.944 14.8505 247.212 12.3665 244.065 9.08438C240.918 5.8023 238.558 2.95858 238.794 2.73378C239.03 2.50898 241.761 4.99302 244.908 8.2751C248.055 11.5572 250.416 14.4121 250.18 14.6257Z" fill="white"/>
<path d="M184.179 196.23H0V89.619H184.179V196.23ZM1.124 195.106H183.055V90.743H1.124V195.106Z" fill="#0C5F98"/>
<path d="M146.188 146.471H24.6494V150.034H146.188V146.471Z" fill="#0D65A2" fill-opacity="0.3"/>
<path d="M154.561 159.757H24.6494V163.646H154.561V159.757Z" fill="#0D65A2" fill-opacity="0.3"/>
<path d="M154.561 173.2H24.6494V177.089H154.561V173.2Z" fill="#0D65A2" fill-opacity="0.3"/>
<path d="M67.1254 127.172H24.6494V136.422H67.1254V127.172Z" fill="#0D65A2" fill-opacity="0.3"/>
<path d="M183.617 90.181H0.562012V107.153H183.617V90.181Z" fill="#0C5F98"/>
<path d="M396.738 220.655H180.593V414.163H396.738V220.655Z" fill="#539CCE"/>
<path d="M191.462 159.7H22.1426V335.618H191.462V159.7Z" fill="#0D65A2" fill-opacity="0.3"/>
<path d="M191.462 159.7H22.1426V178.865H191.462V159.7Z" fill="#0C5F98"/>
<path d="M36.1252 169.086C36.1252 171.143 34.5291 172.806 32.5733 172.806C30.6063 172.806 29.0215 171.143 29.0215 169.086C29.0215 167.029 30.6176 165.365 32.5733 165.365C34.5291 165.377 36.1252 167.04 36.1252 169.086Z" fill="white"/>
<path d="M50.5461 169.086C50.5461 171.143 48.95 172.806 46.9942 172.806C45.0272 172.806 43.4424 171.143 43.4424 169.086C43.4424 167.029 45.0385 165.365 46.9942 165.365C48.95 165.377 50.5461 167.04 50.5461 169.086Z" fill="white"/>
<path d="M64.967 169.086C64.967 171.143 63.3709 172.806 61.4151 172.806C59.4481 172.806 57.8633 171.143 57.8633 169.086C57.8633 167.029 59.4594 165.365 61.4151 165.365C63.3709 165.377 64.967 167.04 64.967 169.086Z" fill="white"/>
<path d="M456.007 38.7467H239.862V254.173H456.007V38.7467Z" fill="#0D65A2" fill-opacity="0.3"/>
<path d="M456.007 38.7467H239.862V63.9805H456.007V38.7467Z" fill="#0C5F98"/>
<path d="M258.273 51.1107C258.273 53.8083 256.182 56.0001 253.597 56.0001C251.012 56.0001 248.921 53.8083 248.921 51.1107C248.921 48.4131 251.012 46.2213 253.597 46.2213C256.171 46.2213 258.273 48.4131 258.273 51.1107Z" fill="white"/>
<path d="M275.886 47.8062C277.797 49.717 277.864 52.7518 276.032 54.5726C274.2 56.4048 271.177 56.3373 269.266 54.4265C267.355 52.5157 267.288 49.4809 269.12 47.66C270.941 45.8279 273.975 45.8954 275.886 47.8062Z" fill="white"/>
<path d="M296.242 51.1107C296.242 53.8083 294.151 56.0001 291.566 56.0001C288.981 56.0001 286.89 53.8083 286.89 51.1107C286.89 48.4131 288.981 46.2213 291.566 46.2213C294.14 46.2213 296.242 48.4131 296.242 51.1107Z" fill="white"/>
<path d="M409.316 471.318C409.316 471.475 331.265 471.61 235.006 471.61C138.713 471.61 60.6846 471.475 60.6846 471.318C60.6846 471.161 138.713 471.026 235.006 471.026C331.265 471.026 409.316 471.161 409.316 471.318Z" fill="#263238"/>
<path d="M333.266 333.718C315.9 321.59 311.966 299.065 312.652 278.833C312.764 275.45 312.393 271.898 314 268.931C315.608 265.963 319.362 263.94 322.386 265.368C324.892 266.548 325.994 269.47 327.387 271.876C329.253 275.09 332.041 277.743 335.312 279.44C337.458 280.553 340.122 281.239 342.247 280.07C345.158 278.462 345.506 274.438 345.484 271.078C345.439 264.817 345.405 258.556 345.371 252.284C345.349 248.924 345.338 245.495 346.383 242.303C347.428 239.111 349.732 236.155 352.936 235.256C356.128 234.356 360.084 236.2 360.759 239.493C361.04 240.864 360.759 242.281 360.849 243.674C360.939 245.068 361.591 246.608 362.917 247.001C364.255 247.395 365.603 246.439 366.604 245.462C370.077 242.067 372.426 237.695 374.629 233.356C376.832 229.017 378.968 224.555 382.115 220.857C385.262 217.159 389.612 214.226 394.423 213.956C399.233 213.686 404.359 216.653 405.584 221.374C406.798 226.106 404.044 230.917 401.032 234.75C396.57 240.437 391.287 245.473 385.419 249.632C384.363 250.385 383.216 251.194 382.812 252.442C382.081 254.678 384.206 256.904 386.42 257.646C388.926 258.478 391.646 258.219 394.265 258.534C396.884 258.837 399.728 259.995 400.717 262.479C402.088 265.918 399.222 269.515 396.39 271.876C390.725 276.596 384.262 280.328 377.372 282.857C374.899 283.756 372.302 284.554 370.302 286.297C368.312 288.039 367.109 291.051 368.312 293.423C369.515 295.794 372.606 296.547 375.202 296.064C377.787 295.581 380.114 294.176 382.576 293.243C387.195 291.501 393.153 291.815 396.12 295.806C398.064 298.424 398.233 302.077 397.255 305.213C396.277 308.338 394.277 311.036 392.163 313.52C384.767 322.208 375.292 329.2 364.569 332.909C353.835 336.607 343.91 337.618 333.266 333.718Z" fill="#0E76BD"/>
<path d="M400.729 216.766C400.74 216.777 400.627 216.878 400.403 217.081C400.155 217.305 399.829 217.598 399.402 217.969C398.525 218.744 397.222 219.891 395.592 221.419C392.321 224.454 387.735 229.029 382.756 235.278C380.26 238.392 377.653 241.921 374.933 245.754C372.224 249.598 369.346 253.723 366.48 258.174C363.625 262.625 360.759 267.391 358.185 272.539C356.893 275.113 355.735 277.799 354.555 280.542C353.386 283.284 352.194 286.06 350.992 288.87C346.215 300.144 342.022 311.036 339.021 321.208C335.997 331.38 334.21 340.799 333.423 348.78C332.614 356.771 332.783 363.29 333.109 367.764C333.289 370.001 333.457 371.743 333.614 372.912C333.682 373.474 333.727 373.912 333.772 374.249C333.806 374.553 333.817 374.71 333.806 374.71C333.794 374.71 333.761 374.564 333.716 374.261C333.659 373.935 333.592 373.496 333.502 372.934C333.3 371.765 333.097 370.034 332.884 367.786C332.479 363.313 332.254 356.771 333.008 348.746C333.738 340.732 335.503 331.256 338.493 321.051C341.471 310.833 345.664 299.908 350.441 288.634C351.643 285.824 352.835 283.037 354.015 280.294C355.195 277.563 356.364 274.854 357.668 272.269C360.253 267.099 363.142 262.322 366.019 257.871C368.897 253.42 371.797 249.294 374.528 245.462C377.271 241.629 379.901 238.111 382.43 235.008C387.465 228.77 392.119 224.24 395.446 221.251C397.098 219.756 398.424 218.632 399.335 217.89C399.773 217.53 400.11 217.26 400.369 217.047C400.605 216.845 400.729 216.755 400.729 216.766Z" fill="#263238"/>
<path d="M357.836 272.224C357.791 272.235 357.679 271.718 357.51 270.785C357.331 269.852 357.128 268.504 356.892 266.829C356.42 263.479 355.914 258.837 355.386 253.723C354.858 248.598 354.296 243.978 353.768 240.651C353.509 238.987 353.284 237.639 353.127 236.717C352.969 235.784 352.902 235.267 352.936 235.256C352.981 235.244 353.127 235.75 353.363 236.661C353.599 237.571 353.891 238.909 354.206 240.572C354.847 243.899 355.476 248.53 356.004 253.656C356.51 258.714 356.971 263.288 357.331 266.773C357.499 268.346 357.645 269.684 357.758 270.752C357.848 271.696 357.881 272.224 357.836 272.224Z" fill="#263238"/>
<path d="M401.043 264.154C401.043 264.199 400.425 264.266 399.323 264.356C398.211 264.457 396.615 264.592 394.636 264.817C390.68 265.244 385.228 266.031 379.26 267.155C373.292 268.29 367.93 269.549 364.086 270.572C362.153 271.066 360.602 271.516 359.534 271.819C358.466 272.123 357.859 272.269 357.848 272.235C357.837 272.19 358.41 271.965 359.466 271.583C360.523 271.212 362.052 270.695 363.974 270.145C367.806 269.009 373.168 267.683 379.159 266.537C385.15 265.413 390.624 264.693 394.603 264.378C396.592 264.21 398.211 264.142 399.323 264.109C400.425 264.097 401.043 264.109 401.043 264.154Z" fill="#263238"/>
<path d="M339.021 320.241C338.998 320.253 338.897 320.073 338.728 319.713C338.526 319.286 338.29 318.78 337.987 318.151C337.346 316.791 336.48 314.801 335.446 312.328C333.367 307.383 330.703 300.448 327.859 292.771C325.016 285.083 322.431 278.136 320.452 273.157C319.486 270.729 318.688 268.74 318.092 267.256C317.833 266.615 317.631 266.087 317.462 265.649C317.328 265.278 317.26 265.075 317.283 265.075C317.305 265.064 317.406 265.244 317.575 265.604C317.777 266.031 318.013 266.537 318.317 267.166C318.957 268.526 319.823 270.516 320.857 272.988C322.936 277.934 325.6 284.869 328.444 292.557C331.276 300.245 333.873 307.18 335.851 312.171C336.818 314.599 337.616 316.588 338.211 318.072C338.47 318.713 338.672 319.252 338.841 319.679C338.976 320.028 339.043 320.23 339.021 320.241Z" fill="#263238"/>
<path d="M396.435 301.729C396.435 301.752 396.244 301.83 395.862 301.965C395.412 302.111 394.861 302.302 394.198 302.527C392.658 303.022 390.579 303.696 388.05 304.517C382.857 306.203 375.72 308.608 367.829 311.283C359.939 313.958 352.768 316.296 347.541 317.881C344.922 318.668 342.809 319.286 341.336 319.679C340.651 319.859 340.089 320.005 339.639 320.129C339.246 320.219 339.043 320.264 339.032 320.241C339.032 320.219 339.223 320.14 339.605 320.005C340.055 319.859 340.606 319.668 341.269 319.443C342.809 318.949 344.888 318.274 347.417 317.454C352.61 315.768 359.748 313.362 367.638 310.687C375.529 308.012 382.7 305.674 387.926 304.101C390.545 303.314 392.658 302.696 394.131 302.302C394.816 302.122 395.378 301.976 395.828 301.853C396.221 301.752 396.424 301.718 396.435 301.729Z" fill="#263238"/>
<path d="M373.01 29.0803L367.222 31.1485L364.749 23.584C360.186 9.63514 345.607 2.17178 332.265 6.93753C318.923 11.7145 311.786 26.9447 316.361 40.8936L318.834 48.4581L313.022 50.5375C308.504 52.156 306.054 57.3602 307.605 62.0922L323.723 111.312C325.297 116.112 330.287 118.674 334.806 117.056L394.794 95.5986C399.379 93.9576 401.83 88.731 400.256 83.9315L384.138 34.7116C382.598 29.9795 377.608 27.4393 373.01 29.0803ZM327.286 36.982C324.779 29.3389 328.691 20.9875 336.008 18.3686C343.314 15.7497 351.306 19.8523 353.801 27.4955L356.274 35.06L329.759 44.5466L327.286 36.982ZM361.017 80.6607L365.131 93.227C365.3 93.7553 364.996 94.306 364.49 94.4859L358.736 96.5428C358.297 96.7002 357.735 96.4641 357.555 95.9358L353.442 83.3695C348.979 83.1784 344.843 80.2223 343.292 75.5015C341.302 69.4207 344.416 62.7779 350.249 60.6872C356.083 58.5966 362.434 61.8562 364.423 67.937C365.974 72.669 364.434 77.6484 361.017 80.6607Z" fill="white"/>
<path d="M366.963 31.0136C367.019 31.171 356.229 35.2061 342.865 40.0393C329.5 44.8725 318.62 48.6604 318.564 48.5143C318.507 48.3569 329.298 44.3218 342.662 39.4886C356.038 34.6554 366.907 30.8675 366.963 31.0136Z" fill="#263238"/>
<path d="M379.71 33.0818C379.721 33.0818 379.766 33.1829 379.844 33.374C379.934 33.5988 380.035 33.891 380.17 34.2507C380.463 35.0712 380.856 36.2065 381.373 37.6564C382.407 40.6688 383.88 44.9512 385.689 50.2228C387.499 55.5505 389.634 61.8674 392.017 68.8812C393.186 72.3993 394.479 76.0635 395.704 79.9301C396.277 81.8746 396.749 83.9428 396.547 86.1009C396.446 87.1687 396.154 88.2365 395.637 89.2143C395.108 90.181 394.366 91.024 393.512 91.7209C391.781 93.1034 389.758 93.9127 387.802 94.632C385.835 95.3401 383.902 96.0258 382.002 96.7114C378.203 98.0715 374.539 99.3865 371.043 100.634C364.063 103.118 357.78 105.355 352.486 107.243C347.226 109.098 342.955 110.593 339.954 111.649C338.504 112.144 337.357 112.537 336.537 112.818C336.166 112.942 335.874 113.032 335.649 113.111C335.446 113.178 335.345 113.2 335.334 113.189C335.334 113.178 335.424 113.133 335.626 113.054C335.851 112.964 336.143 112.852 336.503 112.706C337.312 112.402 338.447 111.975 339.886 111.436C342.876 110.334 347.125 108.772 352.351 106.85C357.634 104.928 363.906 102.657 370.875 100.128C374.359 98.8695 378.024 97.5432 381.823 96.1719C383.722 95.4863 385.655 94.7894 387.611 94.0813C389.545 93.3619 391.523 92.5639 393.153 91.26C393.962 90.6081 394.647 89.8213 395.131 88.9333C395.614 88.0341 395.884 87.045 395.974 86.0447C396.165 84.0215 395.715 82.0095 395.165 80.0987C393.951 76.2771 392.669 72.5791 391.512 69.061C389.174 62.036 387.072 55.6967 385.307 50.3577C383.576 45.0636 382.16 40.7587 381.171 37.7351C380.71 36.2739 380.339 35.1162 380.069 34.2957C379.957 33.9248 379.867 33.6325 379.799 33.3965C379.721 33.1942 379.698 33.093 379.71 33.0818Z" fill="#263238"/>
<path d="M348.057 17.5818C348.024 17.6268 347.462 17.2783 346.36 16.84C345.247 16.4129 343.573 15.9183 341.448 15.8509C339.335 15.7722 336.772 16.0981 334.21 17.2221C331.658 18.3237 329.14 20.2907 327.342 22.9658C325.51 25.6297 324.701 28.7094 324.701 31.4969C324.678 34.3069 325.274 36.8022 325.847 38.8479C326.443 40.9048 327.05 42.5234 327.443 43.6586C327.848 44.7939 328.061 45.4121 328.028 45.4345C327.994 45.4458 327.702 44.8501 327.23 43.7373C326.769 42.6245 326.094 41.0172 325.454 38.9603C324.824 36.9034 324.172 34.3744 324.161 31.4857C324.127 28.6083 324.959 25.3824 326.859 22.6286C328.725 19.8635 331.344 17.8403 333.996 16.7163C336.66 15.5811 339.313 15.3001 341.471 15.435C343.651 15.5586 345.349 16.1319 346.45 16.6264C346.99 16.8962 347.405 17.1097 347.675 17.2896C347.934 17.4694 348.069 17.5706 348.057 17.5818Z" fill="#263238"/>
<path d="M348.575 61.5639C348.563 61.5527 348.766 61.4515 349.148 61.2829C349.53 61.1031 350.103 60.8783 350.879 60.6535C351.643 60.4174 352.632 60.2376 353.801 60.1702C354.959 60.114 356.33 60.2376 357.747 60.7547C360.613 61.7663 363.265 64.6999 364.569 68.5889C365.199 70.5559 365.255 72.8377 364.625 75.0407C363.951 77.2325 362.726 79.3456 360.95 81.1215L361.029 80.8181C362.524 84.9094 364.142 89.3717 365.839 94.0138L365.94 94.2948L365.659 94.3847C364.85 94.6545 363.973 94.9467 363.086 95.2502C361.197 95.8797 359.32 96.5091 357.488 97.1273L357.207 97.2172L357.117 96.9362C355.577 92.2716 353.891 87.888 352.666 83.6843L352.913 83.8753C350.609 83.718 348.541 82.7513 346.9 81.4925C345.248 80.2223 343.978 78.6487 343.123 76.9852C342.28 75.3217 341.864 73.557 341.932 71.9272C341.977 70.2974 342.348 68.825 342.876 67.5886C343.921 65.0821 345.484 63.5085 346.641 62.643C347.81 61.7887 348.575 61.5639 348.575 61.5639C348.597 61.6089 347.867 61.9011 346.731 62.7891C345.63 63.6771 344.135 65.2507 343.157 67.7122C342.179 70.1176 341.752 73.5682 343.505 76.7941C344.348 78.3902 345.585 79.8964 347.181 81.1103C348.777 82.313 350.755 83.2122 352.925 83.3471L353.116 83.3583L353.172 83.5381C354.408 87.7082 356.106 92.0805 357.657 96.7676L357.286 96.5878C359.118 95.9696 360.984 95.3514 362.872 94.7107C363.749 94.4185 364.625 94.1262 365.446 93.8452L365.266 94.2161C363.58 89.574 361.973 85.1117 360.489 81.0091L360.433 80.8405L360.568 80.7057C362.254 79.0421 363.479 76.9852 364.12 74.8946C364.738 72.7815 364.693 70.6121 364.12 68.7238C362.894 64.9472 360.365 62.081 357.623 61.0694C356.274 60.5411 354.948 60.395 353.813 60.4287C352.677 60.4737 351.699 60.6085 350.935 60.8221C349.373 61.238 348.586 61.6201 348.575 61.5639Z" fill="#263238"/>
<path d="M313.832 386.108L201.567 385.591C188.068 385.534 177.165 374.531 177.221 361.031L178.412 79.5817C178.469 66.0712 189.473 55.1684 202.983 55.2246L315.248 55.7416C328.747 55.8091 339.65 66.8018 339.594 80.301L338.403 361.751C338.346 375.261 327.342 386.164 313.832 386.108Z" fill="#455A64"/>
<path d="M315.091 65.453L293.319 65.3518C290.396 65.3406 288.025 67.8021 288.014 70.8482L287.991 74.7934C287.98 77.8395 285.597 80.3123 282.686 80.2898L240.255 80.0987C237.332 80.0875 234.983 77.6034 234.995 74.5461L235.017 70.6009C235.028 67.5549 232.679 65.0596 229.757 65.0483L222.102 65.0146L203.05 64.9247C193.586 64.8797 185.887 72.5229 185.842 81.9758L184.684 356.693C184.639 366.145 192.271 373.845 201.735 373.89L313.776 374.407C323.24 374.452 330.939 366.82 330.984 357.356L332.142 82.6389C332.176 73.1973 324.544 65.4979 315.091 65.453Z" fill="white"/>
<path d="M300.007 337.776L216.696 337.394C215.83 337.394 215.133 336.449 215.145 335.292L215.235 313.497C215.235 312.34 215.943 311.407 216.808 311.418L300.119 311.8C300.985 311.8 301.681 312.744 301.67 313.902L301.58 335.696C301.58 336.854 300.872 337.787 300.007 337.776Z" fill="#0E76BD"/>
<path d="M241.805 325.971C243.257 325.978 243.926 325.267 243.93 324.431C243.938 322.361 240.436 323.286 240.443 321.728C240.445 321.16 240.91 320.699 241.949 320.704C242.452 320.706 243.019 320.863 243.505 321.182L243.71 320.704C243.257 320.385 242.592 320.196 241.951 320.193C240.506 320.186 239.854 320.905 239.85 321.741C239.841 323.844 243.344 322.902 243.337 324.461C243.335 325.021 242.87 325.465 241.807 325.46C241.06 325.457 240.339 325.161 239.935 324.761L239.697 325.223C240.117 325.663 240.952 325.967 241.805 325.971ZM245.232 325.939L245.833 325.941L245.857 320.259L245.256 320.257L245.232 325.939ZM251.861 320.287L251.842 324.898L248.2 320.27L247.705 320.268L247.681 325.95L248.282 325.953L248.301 321.342L251.935 325.969L252.43 325.972L252.454 320.29L251.861 320.287ZM258.29 325.074C257.85 325.388 257.346 325.507 256.803 325.505C255.406 325.499 254.38 324.487 254.386 323.14C254.391 321.784 255.426 320.791 256.831 320.797C257.496 320.8 258.064 320.998 258.54 321.471L258.915 321.091C258.414 320.545 257.669 320.265 256.808 320.261C255.071 320.253 253.8 321.473 253.793 323.137C253.786 324.801 255.047 326.033 256.776 326.041C257.563 326.044 258.327 325.804 258.865 325.328L258.874 323.161L258.298 323.158L258.29 325.074ZM264.975 326.078C266.428 326.085 267.308 325.245 267.315 323.614L267.329 320.359L266.745 320.356L266.731 323.587C266.725 324.934 266.09 325.548 264.978 325.543C263.874 325.538 263.243 324.918 263.249 323.57L263.262 320.34L262.662 320.337L262.648 323.592C262.641 325.223 263.522 326.072 264.975 326.078ZM271.266 320.377L269.139 320.367L269.115 326.049L269.716 326.052L269.723 324.258L271.249 324.265C272.694 324.272 273.574 323.545 273.579 322.336C273.584 321.118 272.71 320.384 271.266 320.377ZM271.235 323.737L269.725 323.73L269.738 320.889L271.247 320.896C272.384 320.902 272.982 321.424 272.978 322.333C272.974 323.226 272.372 323.742 271.235 323.737Z" fill="white"/>
<path d="M233.301 146.191L204.392 146.058L204.367 151.363L233.276 151.496L233.301 146.191Z" fill="#0E76BD"/>
<path opacity="0.1" d="M233.301 146.191L204.392 146.058L204.367 151.363L233.276 151.496L233.301 146.191Z" fill="black"/>
<path d="M318.058 178.741C318.058 178.718 318.294 178.752 318.721 178.584C319.115 178.426 319.744 177.954 319.812 177.066C319.812 175.279 319.8 172.671 319.8 169.322C319.8 167.636 319.8 165.77 319.8 163.724C319.8 163.207 319.8 162.69 319.8 162.162C319.812 161.611 319.812 161.105 319.486 160.689C319.193 160.274 318.688 160.004 318.159 160.004C317.586 160.004 316.99 160.004 316.395 160.004C311.618 159.993 306.166 159.981 300.164 159.97C276.088 159.88 242.851 159.757 206.153 159.622C205.669 159.622 205.197 159.858 204.916 160.251C204.602 160.645 204.613 161.117 204.624 161.724C204.624 162.859 204.613 164.005 204.613 165.129C204.602 167.4 204.59 169.648 204.579 171.885C204.579 172.997 204.568 174.121 204.568 175.223C204.59 175.751 204.512 176.392 204.613 176.808C204.725 177.257 205.063 177.639 205.49 177.819C205.714 177.909 205.917 177.943 206.187 177.943H207.007L208.648 177.954C209.738 177.954 210.829 177.965 211.908 177.965C220.562 178.01 228.914 178.055 236.872 178.1C252.776 178.201 267.096 178.28 279.134 178.359C291.15 178.449 300.883 178.527 307.628 178.584C310.977 178.617 313.585 178.651 315.372 178.673C316.237 178.685 316.912 178.707 317.384 178.707C317.833 178.718 318.058 178.741 318.058 178.741C318.058 178.741 317.822 178.763 317.373 178.763C316.901 178.763 316.226 178.775 315.361 178.786C313.562 178.786 310.955 178.797 307.616 178.808C300.872 178.797 291.138 178.786 279.123 178.775C267.085 178.741 252.765 178.696 236.86 178.64C228.903 178.606 220.551 178.572 211.896 178.539C210.817 178.539 209.727 178.527 208.637 178.527L206.996 178.516H206.175C205.894 178.527 205.546 178.482 205.254 178.348C204.669 178.1 204.197 177.572 204.04 176.954C203.95 176.639 203.972 176.313 203.972 176.055V175.223C203.972 174.11 203.983 172.997 203.983 171.885C203.995 169.648 204.006 167.4 204.006 165.129C204.006 163.994 204.017 162.859 204.017 161.724C204.028 161.431 204.006 161.173 204.051 160.824C204.096 160.498 204.231 160.184 204.422 159.914C204.804 159.374 205.467 159.037 206.13 159.048C242.829 159.251 276.066 159.431 300.142 159.565C306.155 159.61 311.595 159.644 316.383 159.689C316.979 159.689 317.564 159.7 318.148 159.7C318.778 159.712 319.373 160.026 319.722 160.521C320.104 161.004 320.104 161.667 320.081 162.173C320.081 162.701 320.07 163.23 320.07 163.747C320.048 165.792 320.036 167.658 320.025 169.344C319.98 172.694 319.947 175.301 319.935 177.1C319.834 178.033 319.16 178.516 318.755 178.662C318.305 178.797 318.058 178.741 318.058 178.741Z" fill="#0C5F98"/>
<path d="M265.02 166.704L212.147 166.459L212.124 171.416L264.997 171.66L265.02 166.704Z" fill="#0E76BD"/>
<path opacity="0.2" d="M265.02 166.704L212.147 166.459L212.124 171.416L264.997 171.66L265.02 166.704Z" fill="white"/>
<path d="M233.099 194.591L204.189 194.458L204.165 199.763L233.074 199.896L233.099 194.591Z" fill="#0E76BD"/>
<path opacity="0.1" d="M233.099 194.591L204.189 194.458L204.165 199.763L233.074 199.896L233.099 194.591Z" fill="black"/>
<path d="M317.316 227.14C317.316 227.118 317.552 227.14 317.979 227.017C318.384 226.882 319.047 226.545 319.407 225.747C319.598 225.353 319.62 224.87 319.598 224.319C319.598 223.768 319.598 223.173 319.587 222.532C319.587 221.239 319.587 219.744 319.575 218.081C319.575 216.406 319.575 214.54 319.575 212.506C319.575 212 319.575 211.472 319.575 210.944C319.598 210.404 319.53 209.909 319.249 209.46C318.98 209.021 318.541 208.673 318.024 208.516C317.518 208.358 316.923 208.448 316.327 208.415C311.561 208.403 306.144 208.392 300.141 208.381C276.144 208.291 243.031 208.167 206.456 208.032C205.444 208.01 204.5 208.842 204.399 209.842C204.365 210.91 204.377 212.09 204.365 213.203C204.354 215.462 204.343 217.71 204.332 219.936C204.332 221.048 204.32 222.161 204.32 223.263C204.343 223.813 204.264 224.387 204.388 224.836C204.512 225.297 204.815 225.713 205.208 225.994C205.624 226.275 206.063 226.376 206.602 226.354L208.232 226.365C209.322 226.365 210.401 226.376 211.48 226.376C220.101 226.421 228.43 226.466 236.354 226.511C252.203 226.612 266.478 226.691 278.471 226.769C290.441 226.859 300.141 226.938 306.863 226.994C310.201 227.039 312.798 227.062 314.585 227.084C315.45 227.107 316.113 227.118 316.597 227.118C317.091 227.118 317.316 227.14 317.316 227.14C317.316 227.14 317.08 227.163 316.631 227.163C316.158 227.163 315.495 227.174 314.619 227.185C312.831 227.185 310.235 227.197 306.897 227.208C300.175 227.197 290.475 227.185 278.504 227.174C266.511 227.14 252.237 227.095 236.388 227.039C228.464 227.005 220.135 226.972 211.514 226.938C210.435 226.938 209.356 226.927 208.266 226.927L206.636 226.916C206.085 226.949 205.411 226.814 204.916 226.455C204.41 226.106 204.028 225.578 203.86 224.982C203.691 224.353 203.792 223.802 203.77 223.263C203.77 222.161 203.781 221.048 203.781 219.936C203.792 217.71 203.803 215.462 203.803 213.203C203.815 212.056 203.792 210.977 203.837 209.775C203.961 208.482 205.163 207.414 206.479 207.448C243.053 207.65 276.167 207.83 300.164 207.965C306.155 208.01 311.573 208.044 316.338 208.089C316.923 208.122 317.518 208.021 318.125 208.212C318.71 208.392 319.204 208.797 319.508 209.303C319.834 209.797 319.901 210.426 319.868 210.944C319.868 211.472 319.856 212 319.856 212.506C319.834 214.54 319.823 216.406 319.811 218.081C319.789 219.756 319.778 221.239 319.766 222.532C319.755 223.173 319.755 223.768 319.744 224.319C319.755 224.859 319.722 225.387 319.508 225.792C319.115 226.623 318.418 226.961 317.991 227.073C317.552 227.174 317.316 227.14 317.316 227.14Z" fill="#0C5F98"/>
<path d="M232.885 245.081L203.976 244.949L203.952 250.254L232.861 250.387L232.885 245.081Z" fill="#0E76BD"/>
<path opacity="0.1" d="M232.885 245.081L203.976 244.949L203.952 250.254L232.861 250.387L232.885 245.081Z" fill="black"/>
<path d="M317.103 277.619C317.103 277.597 317.339 277.619 317.766 277.496C318.171 277.361 318.834 277.023 319.193 276.225C319.384 275.832 319.407 275.349 319.384 274.798C319.384 274.247 319.385 273.651 319.373 273.011C319.373 271.718 319.373 270.223 319.362 268.56C319.362 266.885 319.362 265.019 319.362 262.985C319.362 262.479 319.362 261.951 319.362 261.422C319.384 260.883 319.317 260.388 319.036 259.939C318.766 259.5 318.328 259.152 317.811 258.995C317.305 258.837 316.709 258.927 316.114 258.893C311.348 258.882 305.93 258.871 299.939 258.86C275.942 258.77 242.829 258.646 206.254 258.511C205.242 258.489 204.298 259.309 204.197 260.321C204.163 261.389 204.175 262.569 204.163 263.682C204.152 265.941 204.141 268.189 204.13 270.414C204.13 271.527 204.118 272.64 204.118 273.741C204.141 274.292 204.062 274.865 204.186 275.315C204.309 275.776 204.613 276.192 205.006 276.473C205.422 276.754 205.86 276.855 206.4 276.832L208.03 276.844C209.12 276.844 210.199 276.855 211.278 276.855C219.899 276.9 228.228 276.945 236.152 276.99C252.001 277.091 266.275 277.17 278.269 277.248C290.239 277.338 299.939 277.417 306.661 277.473C309.999 277.518 312.596 277.54 314.383 277.563C315.248 277.574 315.923 277.597 316.395 277.597C316.878 277.597 317.103 277.619 317.103 277.619C317.103 277.619 316.867 277.642 316.417 277.642C315.945 277.642 315.282 277.653 314.405 277.664C312.618 277.664 310.022 277.675 306.683 277.687C299.962 277.675 290.262 277.664 278.291 277.653C266.298 277.619 252.023 277.574 236.175 277.518C228.251 277.484 219.922 277.451 211.301 277.417C210.222 277.417 209.143 277.406 208.052 277.406L206.423 277.394C205.872 277.428 205.197 277.293 204.703 276.934C204.197 276.585 203.815 276.057 203.646 275.461C203.478 274.832 203.579 274.281 203.556 273.73C203.556 272.629 203.568 271.516 203.568 270.403C203.579 268.178 203.59 265.93 203.59 263.67C203.601 262.524 203.579 261.445 203.624 260.242C203.747 258.95 204.95 257.882 206.265 257.915C242.84 258.118 275.953 258.298 299.951 258.433C305.941 258.477 311.359 258.511 316.125 258.556C316.709 258.59 317.305 258.489 317.912 258.68C318.497 258.86 318.991 259.264 319.295 259.77C319.621 260.265 319.688 260.894 319.654 261.411C319.654 261.939 319.643 262.468 319.643 262.973C319.621 265.008 319.609 266.874 319.598 268.549C319.576 270.223 319.564 271.707 319.553 273C319.542 273.64 319.542 274.236 319.531 274.787C319.542 275.326 319.508 275.854 319.295 276.259C318.901 277.091 318.204 277.428 317.777 277.54C317.35 277.664 317.103 277.619 317.103 277.619Z" fill="#0C5F98"/>
<path d="M264.818 215.104L211.945 214.859L211.922 219.816L264.795 220.06L264.818 215.104Z" fill="#0E76BD"/>
<path opacity="0.2" d="M264.818 215.104L211.945 214.859L211.922 219.816L264.795 220.06L264.818 215.104Z" fill="white"/>
<path d="M216.741 268.447C216.729 269.807 215.695 270.909 214.414 270.898C213.133 270.886 212.11 269.785 212.11 268.425C212.121 267.065 213.155 265.963 214.437 265.975C215.718 265.975 216.752 267.087 216.741 268.447Z" fill="#0E76BD"/>
<path d="M223.9 268.481C223.889 269.841 222.855 270.943 221.574 270.931C220.292 270.931 219.27 269.819 219.27 268.459C219.27 267.099 220.315 265.997 221.596 266.008C222.878 266.008 223.912 267.11 223.9 268.481Z" fill="#0E76BD"/>
<path d="M231.072 268.515C231.072 269.875 230.026 270.976 228.745 270.965C227.464 270.965 226.441 269.852 226.441 268.492C226.452 267.132 227.486 266.031 228.768 266.042C230.049 266.042 231.072 267.144 231.072 268.515Z" fill="#0E76BD"/>
<path d="M238.232 268.549C238.232 269.909 237.186 271.01 235.905 270.999C234.623 270.999 233.601 269.886 233.601 268.526C233.601 267.166 234.646 266.064 235.927 266.076C237.209 266.076 238.243 267.177 238.232 268.549Z" fill="#0E76BD"/>
<path d="M245.392 268.571C245.392 269.931 244.346 271.033 243.065 271.021C241.784 271.021 240.761 269.909 240.761 268.549C240.772 267.189 241.806 266.087 243.087 266.098C244.369 266.109 245.403 267.211 245.392 268.571Z" fill="#0E76BD"/>
<path d="M252.563 268.605C252.563 269.965 251.517 271.066 250.236 271.055C248.954 271.055 247.932 269.942 247.932 268.582C247.932 267.222 248.977 266.121 250.258 266.132C251.528 266.143 252.563 267.245 252.563 268.605Z" fill="#0E76BD"/>
<path d="M259.723 268.638C259.711 269.999 258.677 271.1 257.396 271.089C256.115 271.078 255.092 269.976 255.092 268.616C255.092 267.256 256.137 266.154 257.418 266.166C258.7 266.177 259.723 267.278 259.723 268.638Z" fill="#0E76BD"/>
<path d="M266.882 268.672C266.882 270.032 265.837 271.134 264.556 271.123C263.274 271.111 262.251 270.01 262.251 268.65C262.251 267.29 263.297 266.188 264.578 266.199C265.86 266.199 266.894 267.312 266.882 268.672Z" fill="#0E76BD"/>
<path d="M274.042 268.706C274.042 270.066 272.997 271.167 271.715 271.156C270.434 271.156 269.411 270.043 269.411 268.683C269.422 267.323 270.456 266.222 271.738 266.233C273.019 266.233 274.053 267.346 274.042 268.706Z" fill="#0E76BD"/>
<g opacity="0.2">
<g opacity="0.2">
<path opacity="0.2" d="M216.741 268.447C216.729 269.807 215.695 270.909 214.414 270.898C213.133 270.886 212.11 269.785 212.11 268.425C212.121 267.065 213.155 265.963 214.437 265.975C215.718 265.975 216.752 267.087 216.741 268.447Z" fill="white"/>
</g>
<g opacity="0.2">
<path opacity="0.2" d="M223.9 268.481C223.889 269.841 222.855 270.943 221.574 270.931C220.292 270.931 219.27 269.819 219.27 268.459C219.27 267.099 220.315 265.997 221.596 266.008C222.878 266.008 223.912 267.11 223.9 268.481Z" fill="white"/>
</g>
<g opacity="0.2">
<path opacity="0.2" d="M231.072 268.515C231.072 269.875 230.026 270.976 228.745 270.965C227.464 270.965 226.441 269.852 226.441 268.492C226.452 267.132 227.486 266.031 228.768 266.042C230.049 266.042 231.072 267.144 231.072 268.515Z" fill="white"/>
</g>
<g opacity="0.2">
<path opacity="0.2" d="M238.232 268.549C238.232 269.909 237.186 271.01 235.905 270.999C234.623 270.999 233.601 269.886 233.601 268.526C233.601 267.166 234.646 266.064 235.927 266.076C237.209 266.076 238.243 267.177 238.232 268.549Z" fill="white"/>
</g>
<g opacity="0.2">
<path opacity="0.2" d="M245.392 268.571C245.392 269.931 244.346 271.033 243.065 271.021C241.784 271.021 240.761 269.909 240.761 268.549C240.772 267.189 241.806 266.087 243.087 266.098C244.369 266.109 245.403 267.211 245.392 268.571Z" fill="white"/>
</g>
<g opacity="0.2">
<path opacity="0.2" d="M252.563 268.605C252.563 269.965 251.517 271.066 250.236 271.055C248.954 271.055 247.932 269.942 247.932 268.582C247.932 267.222 248.977 266.121 250.258 266.132C251.528 266.143 252.563 267.245 252.563 268.605Z" fill="white"/>
</g>
<g opacity="0.2">
<path opacity="0.2" d="M259.723 268.638C259.711 269.999 258.677 271.1 257.396 271.089C256.115 271.078 255.092 269.976 255.092 268.616C255.092 267.256 256.137 266.154 257.418 266.166C258.7 266.177 259.723 267.278 259.723 268.638Z" fill="white"/>
</g>
<g opacity="0.2">
<path opacity="0.2" d="M266.882 268.672C266.882 270.032 265.837 271.134 264.556 271.123C263.274 271.111 262.251 270.01 262.251 268.65C262.251 267.29 263.297 266.188 264.578 266.199C265.86 266.199 266.894 267.312 266.882 268.672Z" fill="white"/>
</g>
<g opacity="0.2">
<path opacity="0.2" d="M274.042 268.706C274.042 270.066 272.997 271.167 271.715 271.156C270.434 271.156 269.411 270.043 269.411 268.683C269.422 267.323 270.456 266.222 271.738 266.233C273.019 266.233 274.053 267.346 274.042 268.706Z" fill="white"/>
</g>
</g>
<path d="M263.87 106.445C265.387 105.816 266.455 104.253 266.467 102.41C266.478 100.005 264.657 98.0377 262.398 98.0265C260.138 98.0153 258.306 99.9598 258.295 102.365C258.284 104.22 259.374 105.793 260.903 106.434C254.608 107.378 254.901 114.223 254.901 114.223L269.771 114.291C269.771 114.291 270.108 107.378 263.87 106.445Z" fill="#0E76BD"/>
<path opacity="0.1" d="M263.87 106.445C265.387 105.816 266.455 104.253 266.467 102.41C266.478 100.005 264.657 98.0377 262.398 98.0265C260.138 98.0153 258.306 99.9598 258.295 102.365C258.284 104.22 259.374 105.793 260.903 106.434C254.608 107.378 254.901 114.223 254.901 114.223L269.771 114.291C269.771 114.291 270.108 107.378 263.87 106.445Z" fill="black"/>
<path d="M288.043 118.776L235.001 118.531L234.972 124.871L288.013 125.115L288.043 118.776Z" fill="#0E76BD"/>
<path opacity="0.2" d="M288.043 118.776L235.001 118.531L234.972 124.871L288.013 125.115L288.043 118.776Z" fill="white"/>
<path d="M93.0556 151.596C93.0556 151.608 92.8758 151.63 92.5386 151.653C92.1677 151.675 91.6619 151.72 91.0099 151.765C90.3355 151.776 89.515 151.922 88.5484 152.091C88.065 152.192 87.5368 152.226 86.986 152.383C86.4352 152.541 85.862 152.698 85.2438 152.866C82.816 153.631 79.8936 154.845 76.9599 156.98C74.0263 159.093 71.0926 162.117 68.7997 166.062C67.597 167.996 66.7203 170.243 65.9447 172.593C65.304 174.987 64.742 177.527 64.6971 180.213C64.5734 181.551 64.7083 182.911 64.7645 184.282C64.7982 184.968 64.9444 185.654 65.0343 186.35C65.1242 187.047 65.2254 187.744 65.4277 188.43C66.0009 191.229 67.1362 193.96 68.5749 196.59C71.4523 201.862 76.2855 206.403 82.2652 209.033C85.2551 210.348 88.5596 211.067 91.9204 211.202C95.2811 211.416 98.7318 210.876 102.003 209.752L102.992 209.392L103.127 209.347L103.25 209.404C108.083 211.854 112.827 214.271 117.424 216.597L116.997 216.957C115.479 212.259 114.018 207.706 112.613 203.334L112.557 203.165L112.681 203.042C116.255 199.467 118.739 195.118 120.122 190.667C121.504 186.204 121.74 181.663 121.201 177.493C120.661 173.323 119.301 169.524 117.48 166.332C115.659 163.129 113.4 160.521 111.085 158.498C108.735 156.486 106.296 155.114 104.116 154.069C101.879 153.136 99.8895 152.54 98.2373 152.215C97.4055 152.068 96.6749 151.945 96.0342 151.844C95.3935 151.799 94.854 151.765 94.4044 151.731C93.9885 151.698 93.6513 151.675 93.4041 151.653C93.168 151.619 93.0556 151.608 93.0556 151.596C93.0556 151.585 93.168 151.585 93.3928 151.585C93.6401 151.596 93.9773 151.596 94.3932 151.619C94.8428 151.641 95.3935 151.664 96.0342 151.686C96.6861 151.787 97.428 151.889 98.2597 152.012C99.9345 152.304 101.946 152.878 104.217 153.799C106.431 154.833 108.904 156.194 111.298 158.217C113.67 160.251 115.974 162.87 117.84 166.118C119.706 169.344 121.111 173.2 121.673 177.437C122.235 181.663 122.021 186.283 120.627 190.835C119.234 195.365 116.716 199.805 113.074 203.458L113.141 203.165C114.558 207.538 116.03 212.09 117.548 216.777L117.772 217.463L117.132 217.137C112.535 214.81 107.791 212.405 102.947 209.943L103.194 209.954L102.182 210.325C98.8442 211.472 95.3148 212.023 91.8754 211.809C88.436 211.663 85.064 210.932 82.0067 209.584C75.9034 206.886 70.9802 202.244 68.0578 196.871C66.5966 194.196 65.4502 191.397 64.8769 188.553C64.6746 187.857 64.5734 187.148 64.4835 186.44C64.3936 185.732 64.2475 185.035 64.2138 184.338C64.1576 182.933 64.0339 181.551 64.1576 180.202C64.2138 177.482 64.7982 174.897 65.4614 172.469C66.2707 170.086 67.1699 167.816 68.395 165.86C70.7442 161.87 73.734 158.835 76.7239 156.722C79.7137 154.597 82.6811 153.395 85.1426 152.664C85.7608 152.507 86.3566 152.349 86.9073 152.203C87.4581 152.046 87.9976 152.023 88.4809 151.934C89.4588 151.776 90.2906 151.653 90.965 151.664C91.6169 151.641 92.1339 151.63 92.5049 151.608C92.8758 151.585 93.0556 151.585 93.0556 151.596Z" fill="white"/>
<path d="M99.4624 177.842H97.383L92.8533 171.525V167.377C92.8533 167.377 89.6386 167.175 90.0208 172.604C90.4029 178.033 89.9871 176.65 89.9871 176.65C89.9871 176.65 83.1644 176.673 82.6024 177.268C82.1865 177.696 82.0067 184.473 81.928 188.149C81.8943 190.003 83.0295 191.712 84.7492 192.15C84.9965 192.218 85.2438 192.251 85.4798 192.251C87.1771 192.251 95.8656 190.869 95.8656 190.869H99.4511V177.842H99.4624Z" fill="white"/>
<path d="M105.408 176.695L104.127 190.903H100.575V176.988L105.408 176.695Z" fill="white"/>
<path d="M147.772 465.934V456.313L130.541 456.2L130.395 470.722L131.463 470.801C136.217 471.105 155.651 471.554 158.832 470.565C162.395 469.475 147.772 465.934 147.772 465.934Z" fill="#0E76BD"/>
<path d="M159.248 469.677C159.248 469.834 152.808 469.969 144.85 469.969C136.903 469.969 130.451 469.834 130.451 469.677C130.451 469.52 136.892 469.385 144.85 469.385C152.796 469.385 159.248 469.52 159.248 469.677Z" fill="#263238"/>
<path d="M148.075 467.901C147.929 467.823 148.053 467.317 148.424 466.822C148.795 466.316 149.244 466.058 149.357 466.17C149.469 466.283 149.233 466.71 148.896 467.171C148.559 467.62 148.222 467.98 148.075 467.901Z" fill="#263238"/>
<path d="M149.177 468.531C149.031 468.474 149.11 467.901 149.447 467.305C149.784 466.698 150.234 466.339 150.357 466.44C150.481 466.541 150.267 467.036 149.953 467.586C149.638 468.148 149.323 468.587 149.177 468.531Z" fill="#263238"/>
<path d="M135.644 469.632C135.577 469.677 135.318 469.43 134.947 469.003C134.576 468.587 134.082 467.991 133.441 467.485C132.801 466.991 132.092 466.732 131.575 466.676C131.047 466.609 130.71 466.687 130.676 466.597C130.642 466.53 130.968 466.294 131.587 466.26C132.194 466.215 133.059 466.451 133.79 467.024C134.52 467.586 134.981 468.272 135.273 468.755C135.577 469.261 135.712 469.587 135.644 469.632Z" fill="#263238"/>
<path d="M148.132 466.092C148.222 466.226 147.918 466.564 147.424 466.743C146.929 466.923 146.491 466.867 146.468 466.698C146.446 466.541 146.794 466.35 147.221 466.193C147.649 466.035 148.042 465.957 148.132 466.092Z" fill="#263238"/>
<path d="M147.862 465.159C147.873 465.316 147.423 465.462 146.839 465.462C146.255 465.473 145.794 465.35 145.805 465.181C145.816 465.024 146.277 464.878 146.828 464.878C147.379 464.878 147.839 465.001 147.862 465.159Z" fill="#263238"/>
<path d="M190.203 465.934V456.313L172.972 456.2L172.826 470.576L173.894 470.655C178.648 470.958 198.082 471.554 201.263 470.576C204.826 469.475 190.203 465.934 190.203 465.934Z" fill="#0E76BD"/>
<path d="M201.679 469.7C201.679 469.857 195.239 469.992 187.281 469.992C179.334 469.992 172.882 469.857 172.882 469.7C172.882 469.542 179.323 469.407 187.281 469.407C195.239 469.407 201.679 469.542 201.679 469.7Z" fill="#263238"/>
<path d="M190.507 467.901C190.36 467.823 190.484 467.317 190.855 466.822C191.226 466.316 191.676 466.058 191.788 466.17C191.9 466.283 191.664 466.71 191.327 467.171C190.99 467.62 190.653 467.98 190.507 467.901Z" fill="#263238"/>
<path d="M191.608 468.531C191.462 468.474 191.541 467.901 191.878 467.305C192.215 466.698 192.665 466.339 192.788 466.44C192.912 466.541 192.698 467.036 192.384 467.586C192.069 468.148 191.766 468.587 191.608 468.531Z" fill="#263238"/>
<path d="M178.075 469.632C178.008 469.677 177.749 469.43 177.379 469.003C177.008 468.587 176.513 467.991 175.872 467.485C175.232 466.991 174.524 466.732 174.007 466.676C173.478 466.609 173.141 466.687 173.107 466.597C173.074 466.53 173.4 466.294 174.018 466.26C174.625 466.215 175.49 466.451 176.221 467.024C176.951 467.586 177.412 468.272 177.705 468.755C178.008 469.261 178.143 469.587 178.075 469.632Z" fill="#263238"/>
<path d="M190.563 466.092C190.642 466.226 190.349 466.564 189.855 466.743C189.36 466.923 188.922 466.867 188.899 466.698C188.877 466.541 189.225 466.35 189.653 466.193C190.091 466.035 190.473 465.957 190.563 466.092Z" fill="#263238"/>
<path d="M190.293 465.159C190.304 465.316 189.855 465.462 189.27 465.462C188.686 465.473 188.225 465.35 188.236 465.181C188.247 465.024 188.708 464.878 189.259 464.878C189.81 464.878 190.27 465.001 190.293 465.159Z" fill="#263238"/>
<path d="M253.686 180.551C253.237 180.09 252.135 180.303 252.135 180.303C252.135 180.303 252.326 178.988 252.124 178.359C251.922 177.718 250.506 177.842 250.506 177.842C250.506 177.842 250.416 177.235 250.539 176.246C250.573 175.998 250.438 175.819 250.213 175.684C249.539 175.279 248.1 175.301 248.1 175.301C247.235 174.683 250.742 169.771 252.045 168.198C253.327 166.647 253.113 165.399 251.956 165.399C251.169 165.399 247.066 170.12 245.818 171.705C244.571 173.29 241.21 177.696 241.098 174.177C240.985 170.659 239.569 167.995 238.692 167.546C237.804 167.096 236.86 168.153 237.344 169.131C237.737 169.918 237.984 171.446 238.13 172.593C238.243 173.537 238.209 174.503 237.995 175.436C237.411 178.067 236.782 179.786 236.478 180.517L236.388 180.472C236.388 180.472 211.851 203.997 210.087 205.672C208.49 207.178 176.614 203.885 170.229 203.21C168.487 203.019 165.902 202.66 163.654 202.761C160.889 202.884 160.394 203.278 157.618 203.312C149.132 203.424 142.051 204.256 136.79 205.144C130.429 206.223 125.202 210.752 123.235 216.901C116.795 237.02 102.205 284.644 99.6086 311.395C97.5629 315.239 95.2699 319.735 94.3483 322.264C92.5386 327.188 92.977 327.345 93.5839 327.457C95.2137 327.761 97.0908 318.926 97.7877 321.062C98.4846 323.197 94.2471 331.594 95.9668 331.841C98.2148 332.167 100.002 322.883 100.204 322.107C100.407 321.354 101.542 321.613 101.317 322.298C100.991 323.287 97.8326 333.774 100.024 334.111C101.25 334.303 101.373 332.077 101.373 332.077C101.373 332.077 103.61 322.051 104.644 322.242C105.689 322.433 104.577 328.368 104.06 330.346C103.543 332.302 104.273 333.336 105.318 332.841C106.038 332.504 107.758 326.502 108.23 324.535C108.69 322.568 109.882 317.161 111.467 320.297C113.052 323.433 115.457 325.254 116.446 325.299C117.435 325.333 117.851 323.973 116.997 323.287C116.3 322.737 115.434 321.466 114.828 320.477C114.322 319.668 113.951 318.78 113.748 317.847C112.962 314.25 112.962 312.16 112.962 312.16L112.782 311.002C115.3 298.537 122.549 261.951 132.98 238.583L137.274 247.417L139.14 253.959L127.697 282.216L176.49 281.576L169.218 253.543L178.053 224.319C187.618 224.533 212.188 224.892 216.313 223.049C221.461 220.745 248.1 187.171 248.1 187.171C249.899 185.743 251.731 184.192 253.08 182.855C253.068 182.844 254.664 181.562 253.686 180.551Z" fill="#FFBE9D"/>
<path d="M125.562 261.422C126.978 256.589 134.25 232.693 134.25 232.693C134.25 232.693 137.825 252.172 136.88 254.521C135.801 257.23 133.812 260.321 133.812 260.321C125.562 272.887 126.641 279.17 126.641 279.17L176.479 277.653C176.603 270.684 172.477 254.476 171.612 251.891C170.747 249.306 173.613 240.831 173.613 240.831C173.613 240.831 179.244 235.11 179.03 232.165C178.592 226.23 178.053 224.319 178.053 224.319L208.378 225.432L207.423 204.851L163.834 200.49C162.328 204.784 148.592 202.682 148.592 202.682C133.767 203.165 132.879 205.897 126.697 210.685C120.515 215.473 110.343 256.567 110.343 256.567L125.562 261.422Z" fill="#0E76BD"/>
<path d="M155.033 256.555C155.033 256.634 154.033 256.702 152.403 256.69C150.785 256.679 148.537 256.578 146.075 256.331C143.613 256.083 141.388 255.735 139.803 255.42C138.207 255.105 137.24 254.847 137.252 254.768C137.263 254.69 138.263 254.802 139.87 255.016C141.478 255.218 143.681 255.499 146.131 255.746C148.581 255.993 150.807 256.162 152.414 256.274C154.044 256.398 155.044 256.477 155.033 256.555Z" fill="#263238"/>
<path d="M158.45 252.318C158.472 252.385 157.438 252.779 155.73 253.251C154.021 253.712 151.616 254.229 148.918 254.555C146.221 254.869 143.759 254.937 141.995 254.892C140.219 254.847 139.128 254.701 139.128 254.622C139.128 254.532 140.23 254.532 141.995 254.476C143.759 254.42 146.187 254.296 148.851 253.97C151.515 253.656 153.909 253.206 155.64 252.846C157.36 252.487 158.427 252.239 158.45 252.318Z" fill="#263238"/>
<path d="M175.22 233.412C175.298 233.424 175.175 234.401 174.883 235.953C174.59 237.504 174.141 239.639 173.568 241.988C172.994 244.338 172.41 246.439 171.949 247.946C171.488 249.463 171.151 250.385 171.072 250.362C170.994 250.34 171.185 249.384 171.544 247.844C171.971 246.091 172.455 244.079 172.994 241.854C173.545 239.628 174.04 237.627 174.478 235.874C174.86 234.334 175.13 233.401 175.22 233.412Z" fill="#263238"/>
<path d="M126.09 258.556C126.045 258.714 122.606 257.916 118.413 256.769C114.209 255.623 110.849 254.566 110.894 254.409C110.938 254.251 114.378 255.061 118.57 256.196C122.763 257.342 126.135 258.399 126.09 258.556Z" fill="#263238"/>
<path d="M178.592 224.061C178.592 224.083 178.131 224.139 177.299 224.049C176.479 223.959 175.265 223.768 173.871 223.229C172.477 222.701 170.881 221.835 169.398 220.509C167.914 219.194 166.588 217.373 165.745 215.237C164.89 213.102 164.598 210.876 164.733 208.898C164.868 206.92 165.385 205.132 166.273 203.885C167.15 202.615 168.307 202.008 169.117 201.794C169.521 201.682 169.859 201.659 170.072 201.671C170.297 201.682 170.409 201.704 170.409 201.716C170.409 201.772 169.948 201.749 169.184 202.008C168.442 202.278 167.386 202.907 166.61 204.121C165.082 206.526 164.654 210.921 166.284 215.024C167.105 217.081 168.352 218.823 169.757 220.104C171.162 221.397 172.68 222.285 174.017 222.847C176.737 223.971 178.615 223.926 178.592 224.061Z" fill="#263238"/>
<path d="M204.792 225.027C204.635 225.027 204.511 220.385 204.523 214.675C204.534 208.954 204.669 204.312 204.837 204.312C204.995 204.312 205.118 208.954 205.107 214.675C205.096 220.385 204.961 225.027 204.792 225.027Z" fill="#263238"/>
<path d="M163.564 201.749C163.688 199.243 163.946 196.41 163.946 196.41C163.946 196.41 170.151 195.725 170.522 189.318C170.892 182.911 170.522 168.13 170.522 168.13L159.225 162.375L146.805 172.188L148.694 204.222L160.125 204.953C161.923 205.065 163.474 203.626 163.564 201.749Z" fill="#FFBE9D"/>
<path d="M164.677 184.249C164.699 184.249 164.699 184.372 164.576 184.53C164.463 184.676 164.216 184.856 163.867 184.844C163.148 184.811 162.451 184.013 162.204 183.046C162.08 182.551 162.08 182.057 162.17 181.618C162.249 181.191 162.496 180.764 162.845 180.652C163.013 180.584 163.193 180.596 163.317 180.663C163.452 180.73 163.53 180.832 163.575 180.922C163.654 181.113 163.598 181.225 163.575 181.214C163.553 181.214 163.553 181.113 163.463 180.989C163.373 180.865 163.159 180.753 162.934 180.877C162.698 180.989 162.53 181.292 162.474 181.675C162.406 182.057 162.406 182.506 162.53 182.945C162.755 183.81 163.362 184.53 163.89 184.597C164.16 184.631 164.373 184.53 164.497 184.428C164.609 184.327 164.654 184.237 164.677 184.249Z" fill="#EB996E"/>
<path d="M174.377 164.68C173.511 161.735 170.375 160.262 167.521 159.453C163.171 158.217 158.461 157.677 154.224 159.24C149.975 160.802 144.872 163.556 144.872 168.243C142.365 168.04 140.938 170.232 139.938 172.952C139.353 174.56 138.96 176.347 138.87 178.123L138.825 178.112C138.499 184.249 136.79 192.712 132.811 197.253C130.608 199.76 127.45 201.491 126.169 204.615C125.056 207.336 125.629 210.539 124.584 213.281C123.651 215.698 121.594 217.418 120.121 219.52C116.907 224.106 116.693 230.58 119.054 235.694C121.414 240.808 126.09 244.551 131.283 246.271C136.476 247.991 142.141 247.799 147.423 246.417C151.324 245.405 155.123 243.719 158.236 241.056C161.35 238.403 163.733 234.705 164.441 230.58C165.228 225.983 163.946 221.329 163.002 216.766C160.012 202.334 160.866 201.592 164.643 188.205C164.733 187.969 164.778 187.722 164.845 187.486C164.89 187.306 164.947 187.137 164.992 186.957H164.98C165.081 186.429 165.16 185.901 165.16 185.361C164.07 185.788 162.744 185.507 161.912 184.653C161.069 183.81 160.765 182.439 161.147 181.292C161.586 179.966 162.8 179.089 164.047 178.561C165.295 178.033 166.633 177.774 167.858 177.19C170.454 175.953 172.253 173.391 173.478 170.704C174.321 168.816 174.961 166.669 174.377 164.68Z" fill="#263238"/>
<path d="M165.126 184.518C165.16 184.507 165.385 184.923 165.722 185.631C166.059 186.339 166.509 187.34 167.004 188.497L167.093 188.711L166.857 188.733C166.486 188.767 166.104 188.801 165.711 188.834C164.924 188.891 164.272 188.981 163.508 188.969C163.384 188.947 163.249 188.834 163.216 188.711C163.171 188.587 163.182 188.486 163.193 188.396C163.227 188.216 163.261 188.093 163.294 187.935L163.497 187.137C163.744 186.171 163.924 185.575 163.969 185.586C164.014 185.597 163.924 186.216 163.733 187.193L163.575 188.003C163.519 188.272 163.418 188.677 163.564 188.655C164.126 188.632 164.924 188.542 165.666 188.486C166.059 188.452 166.43 188.43 166.812 188.396L166.666 188.632C166.183 187.474 165.778 186.452 165.497 185.721C165.228 184.99 165.081 184.541 165.126 184.518Z" fill="#0E76BD"/>
<path d="M126.641 279.159L176.479 277.642L198.15 362.324L194.159 459.46H167.779L171.05 364.392L151.773 305.438L154.741 463.225L128.113 463.619L125.303 315.307C125.191 311.182 123.831 301.886 124.336 297.795L126.641 279.159Z" fill="#263238"/>
<path d="M158.416 306.641C158.405 306.72 157.472 306.675 155.977 306.495C154.482 306.315 152.414 306 150.155 305.551C147.896 305.09 145.872 304.584 144.422 304.168C142.973 303.752 142.096 303.438 142.107 303.359C142.152 303.202 145.771 304.078 150.267 304.977C154.763 305.877 158.439 306.472 158.416 306.641Z" fill="#455A64"/>
<path d="M193.924 454.132C193.924 454.29 187.955 454.424 180.582 454.424C173.208 454.424 167.24 454.29 167.24 454.132C167.24 453.975 173.208 453.84 180.582 453.84C187.955 453.84 193.924 453.964 193.924 454.132Z" fill="#455A64"/>
<path d="M154.516 459.123C154.516 459.28 148.727 459.415 141.578 459.415C134.43 459.415 128.641 459.28 128.641 459.123C128.641 458.965 134.43 458.831 141.578 458.831C148.716 458.831 154.516 458.965 154.516 459.123Z" fill="#455A64"/>
<path d="M151.077 458.718C150.919 458.718 150.211 424.245 149.514 381.724C148.817 339.192 148.379 304.708 148.536 304.708C148.694 304.708 149.402 339.181 150.099 381.713C150.807 424.234 151.245 458.718 151.077 458.718Z" fill="#455A64"/>
<path d="M190.383 454.132C190.371 454.132 190.371 453.975 190.371 453.671C190.383 453.345 190.383 452.896 190.394 452.323C190.428 451.109 190.484 449.366 190.54 447.152C190.697 442.622 190.922 436.137 191.203 428.123C191.821 412.027 192.664 389.851 193.609 365.347C193.62 365.123 193.631 364.898 193.631 364.684L193.642 364.763C187.73 341.114 182.391 319.736 178.525 304.236C176.625 296.514 175.085 290.264 174.017 285.903C173.5 283.756 173.107 282.082 172.826 280.913C172.702 280.362 172.601 279.935 172.534 279.609C172.466 279.317 172.444 279.159 172.455 279.159C172.466 279.159 172.511 279.305 172.59 279.597C172.68 279.912 172.792 280.339 172.938 280.879C173.242 282.048 173.68 283.711 174.242 285.847C175.355 290.197 176.962 296.435 178.929 304.134C182.841 319.623 188.236 340.99 194.216 364.628L194.227 364.673V364.718C194.216 364.92 194.204 365.156 194.204 365.381C193.204 389.873 192.293 412.061 191.63 428.145C191.271 436.148 190.99 442.645 190.787 447.163C190.675 449.389 190.585 451.12 190.529 452.334C190.495 452.907 190.461 453.345 190.45 453.683C190.416 453.975 190.394 454.132 190.383 454.132Z" fill="#455A64"/>
<path d="M181.784 362.706C181.807 362.863 179.199 363.448 175.962 363.999C173.534 364.415 171.443 364.696 170.533 364.752V364.527C170.836 364.606 171.005 364.673 170.994 364.718C170.982 364.763 170.814 364.774 170.499 364.763L169.813 364.729L170.488 364.527C171.365 364.268 173.433 363.841 175.861 363.425C179.109 362.863 181.762 362.549 181.784 362.706Z" fill="#455A64"/>
<path d="M181.29 365.932C181.267 366.089 178.929 365.909 176.041 365.696C173.152 365.471 170.814 365.28 170.814 365.123C170.814 364.965 173.174 364.887 176.086 365.111C178.985 365.336 181.301 365.775 181.29 365.932Z" fill="#455A64"/>
<path opacity="0.2" d="M126.427 280.946C127.63 282.644 129.35 283.239 131.35 283.565C133.351 283.891 135.386 283.678 137.397 283.453C150.267 282.025 163.89 280.71 176.49 277.642C160.181 278.552 142.961 278.249 126.652 279.159C126.652 279.159 126.517 280.283 126.483 280.553" fill="black"/>
<g opacity="0.2">
<path opacity="0.2" d="M143.231 303.932L152.425 339.608L151.785 305.438L143.231 303.932Z" fill="black"/>
</g>
</svg>
