<svg width="32" height="32" viewBox="0 0 32 32" fill="none" xmlns="http://www.w3.org/2000/svg">
<path fill-rule="evenodd" clip-rule="evenodd" d="M17.0608 0.296479L18.4751 1.32427C18.868 1.64052 19.3395 1.79864 19.8109 1.64052L21.461 1.24521C22.1682 1.08709 22.954 1.40334 23.3468 2.11489L24.2112 3.61705C24.4469 4.09141 24.8398 4.40766 25.3898 4.48672L26.9613 4.80296C27.7471 4.96109 28.2971 5.59358 28.3757 6.30513L28.5328 8.04447C28.6114 8.5979 28.8471 8.99321 29.24 9.30945L30.6544 10.2582C31.283 10.7326 31.5187 11.5232 31.283 12.2347L30.733 13.895C30.5758 14.3694 30.6544 14.9228 30.8901 15.3181L31.7544 16.7412C32.1473 17.4527 32.0688 18.2434 31.5187 18.7968L30.3401 20.1408C30.0258 20.5361 29.8686 21.0105 29.9472 21.4849L30.1044 23.1452C30.1829 23.9358 29.7901 24.6473 29.0829 24.9636L27.5114 25.6751C27.0399 25.9123 26.7256 26.2285 26.5684 26.782L26.0184 28.3632C25.8613 29.0747 25.1541 29.5491 24.3683 29.5491H22.6397C22.1682 29.5491 21.6967 29.7863 21.3824 30.1816L20.2824 31.3675C19.7324 32 18.9466 32.1581 18.2394 31.8419L16.6679 31.1303C16.1964 30.8931 15.725 30.8931 15.2535 31.1303L13.7606 31.8419C13.0534 32.1581 12.2676 32 11.7176 31.3675L10.539 30.1025C10.2247 29.7072 9.75322 29.47 9.20319 29.5491H7.5531C6.84592 29.5491 6.13874 29.0747 5.90301 28.3632L5.35298 26.6238C5.19583 26.1495 4.88152 25.8332 4.41007 25.596L2.91713 24.9636C2.20994 24.6473 1.81707 23.9358 1.89564 23.1452L2.05279 21.4058C2.13137 20.8524 1.97422 20.4571 1.58134 20.0618L0.481277 18.7968C-0.0687538 18.2434 -0.14733 17.4527 0.245549 16.7412L1.10988 15.239C1.34561 14.7647 1.42419 14.2903 1.26704 13.8159L0.717004 12.2347C0.481277 11.5232 0.717004 10.7326 1.34561 10.2582L2.75998 9.23039C3.15285 8.91414 3.46716 8.51884 3.46716 7.96541L3.62431 6.30513C3.70289 5.59358 4.25292 4.96109 5.03867 4.80296L6.68877 4.40766C7.2388 4.3286 7.63168 4.01235 7.8674 3.53799L8.65316 2.11489C9.04604 1.40334 9.75322 1.08709 10.539 1.24521L12.2676 1.64052C12.7391 1.71958 13.2106 1.64052 13.682 1.32427L14.9392 0.296479C15.5678 -0.0988264 16.4322 -0.0988264 17.0608 0.296479ZM9.59607 16.6621C9.20319 16.2668 9.20319 15.6343 9.59607 15.239C9.98895 14.9228 10.6176 14.9228 11.0104 15.3181L14.0749 18.4015L20.9896 11.4441C21.3824 11.0488 22.011 11.0488 22.4039 11.4441C22.7182 11.8394 22.7182 12.4719 22.4039 12.8672L14.7821 20.5361C14.3892 20.8524 13.7606 20.8524 13.3677 20.4571L9.59607 16.6621Z" fill="#069745"/>
</svg>
