<svg width="41" height="41" viewBox="0 0 41 41" fill="none" xmlns="http://www.w3.org/2000/svg">
<g filter="url(#filter0_d)">
<path d="M31.6069 9.48389C31.7687 9.6789 31.9267 9.87391 32.0806 10.0729C31.978 9.93759 31.8753 9.80626 31.7727 9.67094C32.6729 10.849 33.4191 12.1344 33.9916 13.5035C33.9245 13.3443 33.8573 13.1851 33.7942 13.0299C34.3785 14.4308 34.7733 15.9033 34.9747 17.4117C34.951 17.2366 34.9273 17.0575 34.9036 16.8824C35.101 18.4066 35.101 19.9548 34.8997 21.479C34.9234 21.3039 34.9471 21.1248 34.9707 20.9497C34.7694 22.4422 34.3746 23.8988 33.7981 25.2877C33.8652 25.1285 33.9324 24.9693 33.9955 24.8141C33.4191 26.1832 32.6729 27.4726 31.7687 28.6507C31.8714 28.5153 31.974 28.384 32.0767 28.2487C31.1883 29.4028 30.1579 30.4416 29.0129 31.337C29.1471 31.2336 29.2774 31.1301 29.4116 31.0266C28.243 31.934 26.9637 32.6902 25.6056 33.2712C25.7635 33.2036 25.9214 33.1359 26.0754 33.0722C24.6975 33.6533 23.2524 34.0513 21.7718 34.2542C21.9456 34.2304 22.1232 34.2065 22.2969 34.1826C20.769 34.3895 19.2213 34.3895 17.6933 34.1826C17.867 34.2065 18.0447 34.2304 18.2184 34.2542C16.7378 34.0513 15.2928 33.6533 13.9149 33.0722C14.0728 33.1399 14.2307 33.2075 14.3847 33.2712C13.0265 32.6902 11.7473 31.938 10.5786 31.0266C10.7129 31.1301 10.8432 31.2336 10.9774 31.337C9.83241 30.4416 8.80192 29.4028 7.91357 28.2487C8.01622 28.384 8.11888 28.5153 8.22153 28.6507C7.32134 27.4726 6.57118 26.1832 5.99473 24.8141C6.06185 24.9733 6.12897 25.1325 6.19215 25.2877C5.61571 23.8988 5.22088 22.4422 5.01952 20.9497C5.04321 21.1248 5.0669 21.3039 5.09059 21.479C4.88528 19.9389 4.88528 18.3788 5.09059 16.8386C5.0669 17.0137 5.04321 17.1928 5.01952 17.3679C5.22088 15.8755 5.61571 14.4189 6.19215 13.0299C6.12503 13.1891 6.05791 13.3483 5.99473 13.5035C6.57118 12.1344 7.31739 10.845 8.22153 9.66696C8.11888 9.80228 8.01622 9.93361 7.91357 10.0689C8.80192 8.91478 9.83241 7.87605 10.9774 6.98059C10.8432 7.08406 10.7129 7.18754 10.5786 7.29101C11.7473 6.38362 13.0265 5.62745 14.3847 5.0464C14.2268 5.11406 14.0689 5.18171 13.9149 5.24539C15.2928 4.66434 16.7378 4.26636 18.2184 4.06339C18.0447 4.08727 17.867 4.11115 17.6933 4.13502C18.4553 4.03155 19.2252 3.97981 19.9951 3.97981C19.3358 3.31518 18.6804 2.65453 18.021 1.98991C18.021 2.45952 18.021 2.92914 18.021 3.39876C18.021 4.52903 18.021 5.65531 18.021 6.78558C18.021 8.15861 18.021 9.53165 18.021 10.9047C18.021 12.0867 18.021 13.2687 18.021 14.4507C18.021 15.0238 18.0131 15.6009 18.021 16.174C18.021 16.1819 18.021 16.1899 18.021 16.1978C18.021 16.7072 18.2421 17.2445 18.5975 17.6067C18.941 17.9529 19.5016 18.2116 19.9951 18.1877C20.5045 18.1639 21.0335 17.9967 21.3928 17.6067C21.7481 17.2167 21.9692 16.7391 21.9692 16.1978C21.9692 15.7282 21.9692 15.2586 21.9692 14.789C21.9692 13.6587 21.9692 12.5324 21.9692 11.4022C21.9692 10.0291 21.9692 8.65609 21.9692 7.28305C21.9692 6.10105 21.9692 4.91905 21.9692 3.73704C21.9692 3.16395 21.9771 2.58688 21.9692 2.01378C21.9692 2.00583 21.9692 1.99787 21.9692 1.98991C21.9692 0.915356 21.0651 0 19.9951 0C16.6707 0.00397981 13.3582 0.891478 10.4799 2.57096C7.71616 4.19074 5.35907 6.53485 3.70871 9.29286C1.99913 12.1464 1.0713 15.4616 1.00418 18.7887C0.933112 22.1397 1.77014 25.4947 3.36917 28.4278C4.91292 31.2535 7.20289 33.6612 9.90742 35.3845C12.7067 37.1714 15.9758 38.1545 19.2805 38.2937C22.601 38.433 25.9372 37.645 28.8786 36.0929C31.7214 34.5965 34.1337 32.324 35.9065 29.6377C37.7345 26.8597 38.7571 23.5923 38.9703 20.2732C39.2151 16.4008 38.2201 12.417 36.1907 9.11775C35.6617 8.25811 35.0537 7.44225 34.4062 6.67016C34.0982 6.30004 33.4744 6.08911 33.0085 6.08911C32.5228 6.08911 31.9464 6.30402 31.6108 6.67016C31.2673 7.04825 31.0107 7.54572 31.0344 8.07902C31.0581 8.25413 31.0817 8.43322 31.1054 8.60833C31.1923 8.94264 31.3621 9.23316 31.6069 9.48389Z" fill="#125F96"/>
<path d="M26.4546 13.8697C26.5494 13.9811 26.6402 14.0965 26.731 14.2119C26.6283 14.0766 26.5257 13.9453 26.423 13.81C26.9718 14.5303 27.4298 15.3143 27.7812 16.1501C27.7141 15.9909 27.647 15.8317 27.5838 15.6765C27.9312 16.5123 28.1681 17.3918 28.2905 18.2912C28.2668 18.1161 28.2432 17.937 28.2195 17.7619C28.3379 18.6852 28.3419 19.6165 28.2234 20.5398C28.2471 20.3647 28.2708 20.1856 28.2945 20.0105C28.1721 20.9139 27.9352 21.7975 27.5878 22.6412C27.6549 22.482 27.722 22.3228 27.7852 22.1676C27.4417 22.9874 26.9955 23.7635 26.4546 24.4719C26.5573 24.3366 26.6599 24.2052 26.7626 24.0699C26.2138 24.7863 25.5781 25.427 24.8714 25.9763C25.0056 25.8728 25.1359 25.7693 25.2701 25.6658C24.5674 26.2071 23.8014 26.6568 22.9841 27.007C23.1421 26.9394 23.3 26.8717 23.454 26.808C22.6169 27.1583 21.7404 27.3971 20.8442 27.5204C21.0179 27.4965 21.1956 27.4727 21.3693 27.4488C20.4612 27.5682 19.5413 27.5682 18.6332 27.4488C18.8069 27.4727 18.9846 27.4965 19.1583 27.5204C18.262 27.3971 17.3855 27.1583 16.5485 26.808C16.7064 26.8757 16.8644 26.9434 17.0184 27.007C16.205 26.6608 15.4351 26.2111 14.7323 25.6658C14.8666 25.7693 14.9969 25.8728 15.1311 25.9763C14.4204 25.4231 13.7848 24.7823 13.2399 24.0699C13.3426 24.2052 13.4452 24.3366 13.5479 24.4719C13.0109 23.7635 12.5648 22.9914 12.2173 22.1676C12.2844 22.3268 12.3516 22.486 12.4147 22.6412C12.0673 21.7975 11.8304 20.9139 11.708 20.0105C11.7317 20.1856 11.7554 20.3647 11.7791 20.5398C11.6606 19.6245 11.6606 18.6972 11.7791 17.7818C11.7554 17.9569 11.7317 18.136 11.708 18.3111C11.8304 17.4077 12.0673 16.5242 12.4147 15.6805C12.3476 15.8397 12.2805 15.9989 12.2173 16.1541C12.5608 15.3342 13.007 14.5582 13.5479 13.8498C13.4452 13.9851 13.3426 14.1164 13.2399 14.2517C13.7887 13.5354 14.4244 12.8946 15.1311 12.3454C14.9969 12.4489 14.8666 12.5524 14.7323 12.6558C15.4351 12.1146 16.2011 11.6649 17.0184 11.3146C16.8604 11.3823 16.7025 11.4499 16.5485 11.5136C17.3855 11.1634 18.262 10.9246 19.1583 10.8012C18.9846 10.8251 18.8069 10.849 18.6332 10.8729C19.0872 10.8132 19.5452 10.7813 20.0032 10.7813C19.3439 10.1167 18.6885 9.45606 18.0291 8.79143C18.0291 9.62321 18.0291 10.455 18.0291 11.2868C18.0291 12.62 18.0291 13.9572 18.0291 15.2905C18.0291 15.5969 18.0291 15.8994 18.0291 16.2058C18.0291 16.7152 18.2502 17.2525 18.6055 17.6147C18.949 17.9609 19.5097 18.2196 20.0032 18.1957C20.5125 18.1718 21.0416 18.0047 21.4009 17.6147C21.7562 17.2247 21.9773 16.7471 21.9773 16.2058C21.9773 15.374 21.9773 14.5423 21.9773 13.7105C21.9773 12.3772 21.9773 11.04 21.9773 9.70679C21.9773 9.40034 21.9773 9.09788 21.9773 8.79143C21.9773 7.71688 21.0732 6.79755 20.0032 6.80153C17.8672 6.80551 15.7352 7.37462 13.8835 8.44917C12.087 9.49188 10.5551 11.0201 9.48515 12.8071C8.38359 14.6457 7.79136 16.7869 7.74793 18.932C7.70055 21.097 8.2533 23.27 9.29169 25.1644C10.2906 26.9871 11.783 28.5393 13.5281 29.6456C15.3285 30.7918 17.4369 31.4087 19.561 31.5002C21.7128 31.5918 23.8804 31.0625 25.7795 30.0516C27.6114 29.0805 29.1631 27.596 30.2962 25.8569C31.4689 24.066 32.1006 21.9566 32.2348 19.8235C32.3138 18.5857 32.1756 17.3082 31.8795 16.1063C31.5834 14.9084 31.0859 13.7264 30.4384 12.6797C30.087 12.1106 29.6764 11.5733 29.25 11.0559C28.942 10.6858 28.3182 10.4749 27.8523 10.4749C27.3667 10.4749 26.7902 10.6898 26.4546 11.0559C26.1111 11.434 25.8545 11.9315 25.8782 12.4648C25.9019 12.6399 25.9256 12.819 25.9492 12.9941C26.044 13.3284 26.2098 13.6229 26.4546 13.8697Z" fill="#125F96"/>
<path d="M20.9513 19.1549C20.9513 19.2863 20.9434 19.4136 20.9276 19.541C20.9513 19.3659 20.975 19.1868 20.9987 19.0117C20.9631 19.2783 20.8921 19.537 20.7894 19.7837C20.8565 19.6245 20.9236 19.4654 20.9868 19.3101C20.8881 19.537 20.7657 19.7439 20.6196 19.9429C20.7223 19.8076 20.8249 19.6763 20.9276 19.541C20.7657 19.7479 20.588 19.931 20.3827 20.0902C20.517 19.9867 20.6473 19.8832 20.7815 19.7798C20.588 19.927 20.3788 20.0504 20.1537 20.1499C20.3117 20.0822 20.4696 20.0146 20.6236 19.9509C20.3748 20.0544 20.1221 20.126 19.8576 20.1618C20.0313 20.1379 20.209 20.1141 20.3827 20.0902C20.1261 20.122 19.8734 20.122 19.6168 20.0902C19.7905 20.1141 19.9682 20.1379 20.1419 20.1618C19.8774 20.126 19.6207 20.0544 19.3759 19.9509C19.5339 20.0185 19.6918 20.0862 19.8458 20.1499C19.6207 20.0504 19.4154 19.927 19.218 19.7798C19.3522 19.8832 19.4825 19.9867 19.6168 20.0902C19.4115 19.927 19.2298 19.7479 19.0719 19.541C19.1746 19.6763 19.2772 19.8076 19.3799 19.9429C19.2338 19.7479 19.1114 19.537 19.0127 19.3101C19.0798 19.4693 19.1469 19.6285 19.2101 19.7837C19.1075 19.533 19.0364 19.2783 19.0009 19.0117C19.0245 19.1868 19.0482 19.3659 19.0719 19.541C19.0403 19.2823 19.0403 19.0276 19.0719 18.7689C19.0482 18.944 19.0245 19.1231 19.0009 19.2982C19.0364 19.0316 19.1075 18.7729 19.2101 18.5261C19.143 18.6853 19.0759 18.8445 19.0127 18.9997C19.1114 18.7729 19.2338 18.5659 19.3799 18.3669C19.2772 18.5022 19.1746 18.6336 19.0719 18.7689C19.2338 18.5619 19.4115 18.3789 19.6168 18.2197C19.4825 18.3231 19.3522 18.4266 19.218 18.5301C19.4115 18.3828 19.6207 18.2595 19.8458 18.16C19.6878 18.2276 19.5299 18.2953 19.3759 18.359C19.6247 18.2555 19.8774 18.1839 20.1419 18.148C19.9682 18.1719 19.7905 18.1958 19.6168 18.2197C19.8695 18.1878 20.1221 18.1878 20.3788 18.2197C20.2051 18.1958 20.0274 18.1719 19.8537 18.148C20.1182 18.1839 20.3709 18.2555 20.6196 18.359C20.4617 18.2913 20.3038 18.2237 20.1498 18.16C20.3867 18.2635 20.6078 18.3988 20.817 18.558C20.6828 18.4545 20.5525 18.351 20.4183 18.2475C20.6078 18.3988 20.7736 18.5699 20.9236 18.7609C20.821 18.6256 20.7183 18.4943 20.6157 18.359C20.7697 18.5619 20.896 18.7808 20.9987 19.0156C20.9315 18.8564 20.8644 18.6973 20.8012 18.542C20.8999 18.7848 20.9671 19.0316 21.0065 19.2902C20.9829 19.1151 20.9592 18.936 20.9355 18.7609C20.9394 18.8883 20.9513 19.0196 20.9513 19.1549C20.9552 19.6683 21.1684 20.1976 21.5277 20.5638C21.8712 20.91 22.4319 21.1687 22.9254 21.1448C23.4347 21.121 23.9638 20.9538 24.3231 20.5638C24.6744 20.1777 24.9074 19.6922 24.8995 19.1549C24.8916 18.6137 24.8166 18.0446 24.6231 17.5351C24.3704 16.8785 24.0822 16.381 23.6321 15.8437C23.0122 15.1075 22.0291 14.5224 21.0895 14.3394C20.7657 14.2757 20.4301 14.2279 20.0985 14.216C19.7629 14.204 19.4273 14.2598 19.0956 14.3115C18.6376 14.3792 18.227 14.5503 17.8085 14.7453C16.9912 15.1234 16.3042 15.8119 15.8265 16.572C15.5777 16.966 15.3882 17.4158 15.2698 17.8655C15.1513 18.3152 15.0882 18.8007 15.104 19.2664C15.1395 20.1897 15.3961 21.1568 15.941 21.909C16.2687 22.3666 16.5885 22.7169 17.0267 23.0591C17.4729 23.4054 17.8914 23.6163 18.4205 23.8232C18.8548 23.9944 19.3443 24.0541 19.8063 24.0859C20.2761 24.1177 20.7697 24.0501 21.2237 23.9347C23.3755 23.4014 24.8798 21.3558 24.8995 19.1509C24.9034 18.6455 24.6744 18.1003 24.3231 17.7421C23.9796 17.3959 23.4189 17.1372 22.9254 17.161C21.8475 17.2128 20.9631 18.0406 20.9513 19.1549Z" fill="#125F96"/>
</g>
<defs>
<filter id="filter0_d" x="0" y="0" width="40.0068" height="40.3096" filterUnits="userSpaceOnUse" color-interpolation-filters="sRGB">
<feFlood flood-opacity="0" result="BackgroundImageFix"/>
<feColorMatrix in="SourceAlpha" type="matrix" values="0 0 0 0 0 0 0 0 0 0 0 0 0 0 0 0 0 0 127 0" result="hardAlpha"/>
<feOffset dy="1"/>
<feGaussianBlur stdDeviation="0.5"/>
<feComposite in2="hardAlpha" operator="out"/>
<feColorMatrix type="matrix" values="0 0 0 0 1 0 0 0 0 1 0 0 0 0 1 0 0 0 0.9 0"/>
<feBlend mode="normal" in2="BackgroundImageFix" result="effect1_dropShadow"/>
<feBlend mode="normal" in="SourceGraphic" in2="effect1_dropShadow" result="shape"/>
</filter>
</defs>
</svg>
