<svg width="36" height="36" viewBox="0 0 36 36" fill="none" xmlns="http://www.w3.org/2000/svg">
<g filter="url(#filter0_d)">
<path d="M31.4948 0.564697C30.2847 0.564697 29.2909 1.55844 29.2909 2.76972C29.2909 3.03384 29.3454 3.28468 29.4318 3.52011L24.0303 7.6577C23.6556 7.36404 23.191 7.18077 22.6815 7.18077C21.9416 7.18077 21.2856 7.55395 20.8853 8.11854L16.0484 6.30436C16.0563 6.22894 16.071 6.1556 16.071 6.07826C16.071 4.86701 15.0825 3.87216 13.8725 3.87216C12.6624 3.87216 11.6686 4.86701 11.6686 6.07826C11.6686 6.27286 11.7024 6.4582 11.7504 6.6381L6.64135 9.51493C6.23957 9.09705 5.67842 8.83339 5.0581 8.83339C3.84804 8.83339 2.85531 9.82714 2.85531 11.0384C2.85531 12.2497 3.84804 13.2444 5.0581 13.2444C6.26815 13.2444 7.26196 12.2497 7.26196 11.0384C7.26196 10.843 7.22754 10.6572 7.17914 10.4764L12.2881 7.59959C12.69 8.01676 13.2519 8.28004 13.8725 8.28004C14.6132 8.28004 15.2676 7.90575 15.6666 7.34011L20.5013 9.15321C20.4931 9.22967 20.4776 9.30405 20.4776 9.38255C20.4776 10.5938 21.4714 11.5875 22.6815 11.5875C23.8915 11.5875 24.8843 10.5938 24.8843 9.38255C24.8843 9.07887 24.8216 8.7893 24.709 8.52553L30.0632 4.42882C30.4501 4.76411 30.9471 4.97575 31.4948 4.97575C32.7049 4.97575 33.6933 3.98097 33.6933 2.76972C33.6933 1.55844 32.7049 0.564697 31.4948 0.564697H31.4948ZM28.1895 9.39005C28.1895 17.4757 28.1895 25.5614 28.1895 33.647H34.7958V9.39005H28.1895ZM10.5672 12.6986C10.5672 19.6814 10.5672 26.6642 10.5672 33.647H17.1724V12.6986H10.5672ZM19.3762 14.9047C19.3762 21.1522 19.3762 27.3996 19.3762 33.647H25.9867V14.9047H19.3762ZM1.75391 17.1097C1.75391 22.6221 1.75391 28.1346 1.75391 33.647H8.36335V17.1097H1.75391Z" fill="#125F96"/>
</g>
<defs>
<filter id="filter0_d" x="0.753906" y="0.564697" width="35.042" height="35.0823" filterUnits="userSpaceOnUse" color-interpolation-filters="sRGB">
<feFlood flood-opacity="0" result="BackgroundImageFix"/>
<feColorMatrix in="SourceAlpha" type="matrix" values="0 0 0 0 0 0 0 0 0 0 0 0 0 0 0 0 0 0 127 0" result="hardAlpha"/>
<feOffset dy="1"/>
<feGaussianBlur stdDeviation="0.5"/>
<feComposite in2="hardAlpha" operator="out"/>
<feColorMatrix type="matrix" values="0 0 0 0 1 0 0 0 0 1 0 0 0 0 1 0 0 0 0.9 0"/>
<feBlend mode="normal" in2="BackgroundImageFix" result="effect1_dropShadow"/>
<feBlend mode="normal" in="SourceGraphic" in2="effect1_dropShadow" result="shape"/>
</filter>
</defs>
</svg>
