<svg width="63" height="63" viewBox="0 0 63 63" fill="none" xmlns="http://www.w3.org/2000/svg">
<g clip-path="url(#clip0_590:5398)">
<path d="M38.1923 30.1624C38.6558 29.8417 39.7407 29.0898 39.7474 27.2589L39.7613 23.4872L40.2771 23.4889C40.5134 23.4899 40.7072 23.2974 40.7082 23.0612L40.7156 21.0377C40.7166 20.8014 40.5242 20.6077 40.2878 20.6069L23.661 20.546C23.4249 20.5451 23.2309 20.7377 23.23 20.9738L23.2225 22.9973C23.2217 23.2333 23.4143 23.4271 23.6503 23.4282L24.1662 23.4301L24.1523 27.2704C24.1456 29.0833 24.6963 29.5098 25.6699 30.1081L29.9043 32.7096L29.9002 33.8126C28.829 34.4515 26.0307 36.1237 25.6637 36.3777C25.2004 36.6985 24.115 37.4501 24.1083 39.2812L24.0965 42.5287L23.5805 42.5269C23.3446 42.526 23.1504 42.7185 23.1494 42.9547L23.1422 44.978C23.1413 45.2142 23.3338 45.408 23.57 45.409L40.197 45.47C40.4328 45.4709 40.6269 45.2783 40.6278 45.042L40.635 43.019C40.6361 42.7827 40.4436 42.5888 40.2072 42.5879L39.6915 42.5859L39.7033 39.2698C39.71 37.457 39.1596 37.0302 38.1859 36.4323L33.9517 33.8306L33.9555 32.7278C35.0268 32.0889 37.8252 30.4168 38.1923 30.1624ZM32.7727 34.9203L37.3771 37.7489C37.7304 37.966 37.9191 38.0858 38.006 38.2245C38.1103 38.391 38.1599 38.7312 38.1578 39.2639L38.1459 42.5802L25.6421 42.5345L25.6538 39.2872C25.6576 38.2621 26.1696 37.9074 26.5434 37.6485C26.8357 37.4461 29.4087 35.9041 31.0668 34.9166C31.2998 34.7779 31.4431 34.5267 31.4441 34.2554L31.4513 32.2812C31.4522 32.0116 31.3128 31.7611 31.0832 31.62L26.4926 28.7998L26.4787 28.7911C26.1253 28.5741 25.9365 28.4542 25.8498 28.3154C25.7455 28.1489 25.6958 27.8091 25.6978 27.2761L25.7118 23.4357L38.2158 23.4814L38.2018 27.2532C38.1982 28.2784 37.6863 28.6329 37.3125 28.8918C37.0204 29.0942 34.4474 30.6365 32.7894 31.6236C32.5563 31.7624 32.4127 32.0135 32.4117 32.285L32.4046 34.259C32.4036 34.5287 32.5432 34.7789 32.7727 34.9203Z" fill="#125F96"/>
<path d="M46.3315 45.9123C46.0663 46.2079 45.7882 46.4991 45.5056 46.7774C45.4599 46.8225 45.417 46.8695 45.3765 46.9182C45.3286 46.9552 45.282 46.9952 45.2369 47.0381C43.9996 48.215 42.6317 49.2105 41.1496 50.0192C41.1305 50.0289 41.1107 50.0368 41.0916 50.0473C40.7421 50.2378 40.3824 50.4196 40.0228 50.588C40.019 50.59 40.0152 50.5924 40.0113 50.5942C39.35 50.9007 38.6686 51.1727 37.9669 51.4084C29.8761 54.1264 21.2321 51.253 16.248 44.8857C16.1724 44.7884 16.0967 44.6914 16.023 44.5932C14.7911 42.9563 13.7966 41.0986 13.1093 39.0526C12.4205 37.0024 12.0917 34.9163 12.0869 32.8633C12.0868 32.8185 12.0863 32.7741 12.0863 32.7291C12.087 32.6093 12.089 32.4894 12.0919 32.3696C12.0931 32.3134 12.0946 32.2574 12.0964 32.2014C12.2999 25.7697 15.6814 19.7383 21.1793 16.2402C21.1828 16.238 21.1866 16.2364 21.19 16.2343C21.2713 16.1825 21.3535 16.1311 21.436 16.0804C21.4452 16.0748 21.4537 16.0679 21.4625 16.0622C22.6699 15.3229 23.976 14.7048 25.3694 14.2287L26.0282 16.1363C26.2326 16.7286 26.6653 16.7741 26.9892 16.2381L29.8795 11.4552C30.2033 10.9192 29.9894 10.2985 29.4032 10.0767L24.1776 8.0963C23.5918 7.87448 23.2797 8.1772 23.4842 8.76933L24.1418 10.6732C18.2772 12.6795 13.5318 16.8357 10.7705 22.3907C10.4984 22.938 10.2497 23.4924 10.0227 24.0528C10.0214 24.0561 10.0197 24.0589 10.0183 24.0623C10.0099 24.083 10.0025 24.1041 9.99426 24.1246C8.01152 29.0648 7.7744 34.4715 9.33558 39.5984C9.34526 39.639 9.35418 39.6796 9.36676 39.7203C9.41972 39.891 9.47554 40.0639 9.53275 40.2342C9.62655 40.5134 9.7273 40.7945 9.83158 41.07C9.84373 41.1024 9.8587 41.1329 9.87268 41.1639C11.6146 45.7278 14.6841 49.5648 18.7082 52.2451C18.7219 52.2543 18.734 52.2651 18.7479 52.2743C19.1409 52.5361 19.5486 52.7893 19.9584 53.0269C19.9848 53.0422 20.0121 53.054 20.0387 53.0681C20.4525 53.3057 20.8738 53.5331 21.3046 53.7471C25.7027 55.9334 30.5629 56.6694 35.3178 55.9182C35.3324 55.9161 35.3471 55.9141 35.3616 55.912C35.3724 55.9101 35.3827 55.9074 35.3933 55.9056C36.6617 55.7008 37.9227 55.3918 39.1649 54.9745C42.4336 53.8764 45.3486 52.1231 47.8293 49.7639C47.8828 49.7131 47.9316 49.659 47.9776 49.6038C48.0358 49.559 48.0915 49.5103 48.1449 49.4577C48.4823 49.1251 48.8143 48.778 49.1308 48.4255C49.8247 47.6523 49.7608 46.4631 48.9877 45.7692C48.2145 45.0753 47.0253 45.1396 46.3315 45.9123Z" fill="#125F96"/>
<path d="M43.6809 17.2342C44.1971 17.6308 44.8534 17.7179 45.4272 17.5252C45.7691 17.4103 46.0821 17.1959 46.3182 16.8884C46.951 16.0646 46.7961 14.8839 45.9723 14.2511C45.5963 13.9624 45.2071 13.6816 44.8143 13.4171C43.9534 12.8358 42.7844 13.0629 42.2032 13.9239C41.6222 14.7849 41.8492 15.9541 42.7105 16.535C43.0397 16.7573 43.3662 16.9926 43.6809 17.2342Z" fill="#125F96"/>
<path d="M47.5177 21.1561C47.7526 21.4756 47.9812 21.8074 48.1976 22.1421C48.6741 22.8796 49.5796 23.1725 50.3753 22.9052C50.5209 22.8563 50.6632 22.7884 50.7982 22.7012C51.6708 22.1374 51.9211 20.9729 51.3574 20.1006C51.1001 19.7025 50.828 19.3078 50.5483 18.9277C49.9332 18.0907 48.7557 17.9109 47.919 18.5263C47.0819 19.1419 46.9023 20.3193 47.5177 21.1561Z" fill="#125F96"/>
<path d="M52.3269 39.2346C51.3653 38.841 50.2672 39.3008 49.8733 40.262C49.7225 40.63 49.5588 40.9978 49.3861 41.3551C48.9345 42.2907 49.3268 43.4151 50.2626 43.8668C50.7233 44.0892 51.2298 44.107 51.679 43.956C52.1423 43.8004 52.545 43.4652 52.7741 42.9905C52.9795 42.5647 53.1751 42.1266 53.3543 41.6884C53.7478 40.727 53.2879 39.6284 52.3269 39.2346Z" fill="#125F96"/>
<path d="M51.7656 24.778C50.7698 25.0796 50.2096 26.1295 50.5111 27.1234C50.6266 27.5041 50.7314 27.8932 50.8228 28.2797C51.0622 29.2904 52.0759 29.9159 53.0867 29.6765C53.1438 29.663 53.1996 29.6469 53.2543 29.6286C54.165 29.3226 54.7094 28.3663 54.4834 27.4128C54.3741 26.9514 54.2491 26.4872 54.1112 26.0326C53.8097 25.0389 52.7598 24.4767 51.7656 24.778Z" fill="#125F96"/>
<path d="M53.2956 31.9585C52.2575 31.9075 51.3754 32.7073 51.3245 33.745C51.305 34.1418 51.2731 34.5439 51.2294 34.9395C51.1156 35.9719 51.8603 36.9011 52.8929 37.0149C53.1735 37.0458 53.4461 37.0134 53.697 36.9291C54.3702 36.7029 54.8857 36.1035 54.9686 35.3514C55.0204 34.8805 55.0588 34.4021 55.0818 33.9295C55.1329 32.8921 54.3331 32.0096 53.2956 31.9585Z" fill="#125F96"/>
<path d="M40.143 12.922C40.4632 11.9336 39.9217 10.873 38.9333 10.5529C38.4833 10.407 38.0225 10.2733 37.5638 10.1549C36.558 9.89551 35.5322 10.5004 35.2728 11.5062C35.0135 12.512 35.6182 13.5377 36.624 13.7973C37.0093 13.8966 37.3961 14.0092 37.7743 14.1316C38.1725 14.2606 38.5828 14.2497 38.9516 14.1258C39.4973 13.9424 39.9521 13.5117 40.143 12.922Z" fill="#125F96"/>
</g>
<defs>
<clipPath id="clip0_590:5398">
<rect width="49.4186" height="49.4186" fill="white" transform="translate(0 16) rotate(-18.5695)"/>
</clipPath>
</defs>
</svg>
