<svg width="1011" height="1053" viewBox="0 0 1011 1053" fill="none" xmlns="http://www.w3.org/2000/svg">
<g filter="url(#filter0_f_760:3)">
<circle cx="324.5" cy="366.5" r="124.5" fill="#00E0FF" fill-opacity="0.69"/>
</g>
<g filter="url(#filter1_f_760:3)">
<ellipse cx="637.5" cy="526.5" rx="417.5" ry="326.5" fill="#73AACF" fill-opacity="0.54"/>
</g>
<path d="M266 365.12C266 343.029 283.909 325.12 306 325.12H1188.01C1210.1 325.12 1228.01 343.029 1228.01 365.12V942.171H266V365.12Z" fill="#262525" fill-opacity="0.7"/>
<path d="M265.997 365C265.997 342.909 283.906 325 305.997 325H1189C1211.09 325 1229 342.909 1229 365V412.612H265.997V365Z" fill="#373535" fill-opacity="0.7"/>
<path d="M477 354H1090V388H477V354Z" fill="#454343" fill-opacity="0.7"/>
<circle cx="313.95" cy="371" r="15" fill="#FF531D" fill-opacity="0.7"/>
<circle cx="360.805" cy="371" r="15" fill="#FFC01D" fill-opacity="0.7"/>
<circle cx="409.652" cy="371" r="15" fill="#3CFF1D" fill-opacity="0.7"/>
<rect x="746" y="495" width="108" height="30" rx="4" fill="#BEF3D3" fill-opacity="0.86"/>
<path d="M772.965 507.521C772.988 507.347 773 507.173 773 507C773 504.621 770.857 502.712 768.479 503.035C767.786 501.802 766.466 501 765 501C763.534 501 762.214 501.802 761.521 503.035C759.138 502.712 757 504.621 757 507C757 507.173 757.012 507.347 757.035 507.521C755.802 508.215 755 509.535 755 511C755 512.465 755.802 513.785 757.035 514.479C757.012 514.652 757 514.826 757 515C757 517.379 759.138 519.283 761.521 518.965C762.214 520.198 763.534 521 765 521C766.466 521 767.786 520.198 768.479 518.965C770.857 519.283 773 517.379 773 515C773 514.827 772.988 514.653 772.965 514.479C774.198 513.785 775 512.465 775 511C775 509.535 774.198 508.215 772.965 507.521ZM763.955 515.416L760.288 511.702L761.712 510.298L763.969 512.584L768.296 508.29L769.704 509.71L763.955 515.416Z" fill="#28A85F"/>
<path d="M329.516 516.848L332.387 501.672H336.767L332.035 523H327.611L324.14 508.732L320.668 523H316.244L311.513 501.672H315.893L318.778 516.818L322.294 501.672H326.015L329.516 516.848ZM345.702 523.293C343.378 523.293 341.483 522.58 340.019 521.154C338.563 519.729 337.836 517.829 337.836 515.456V515.046C337.836 513.454 338.144 512.033 338.759 510.783C339.374 509.523 340.243 508.557 341.366 507.883C342.499 507.199 343.788 506.857 345.233 506.857C347.401 506.857 349.105 507.541 350.346 508.908C351.596 510.275 352.221 512.214 352.221 514.724V516.452H342.128C342.265 517.487 342.675 518.317 343.358 518.942C344.052 519.567 344.926 519.88 345.98 519.88C347.611 519.88 348.886 519.289 349.804 518.107L351.884 520.437C351.249 521.335 350.39 522.038 349.306 522.546C348.222 523.044 347.021 523.293 345.702 523.293ZM345.219 510.285C344.379 510.285 343.695 510.568 343.168 511.135C342.65 511.701 342.318 512.512 342.172 513.566H348.061V513.229C348.041 512.292 347.787 511.569 347.299 511.062C346.811 510.544 346.117 510.285 345.219 510.285ZM359.105 523H354.857V500.5H359.105V523ZM369.198 519.88C369.979 519.88 370.614 519.665 371.103 519.235C371.591 518.806 371.845 518.234 371.864 517.521H375.834C375.824 518.596 375.531 519.582 374.955 520.48C374.379 521.369 373.588 522.062 372.582 522.561C371.586 523.049 370.482 523.293 369.271 523.293C367.006 523.293 365.219 522.575 363.91 521.14C362.602 519.694 361.947 517.702 361.947 515.163V514.885C361.947 512.443 362.597 510.495 363.896 509.04C365.194 507.585 366.977 506.857 369.242 506.857C371.225 506.857 372.812 507.424 374.003 508.557C375.204 509.68 375.814 511.179 375.834 513.054H371.864C371.845 512.233 371.591 511.569 371.103 511.062C370.614 510.544 369.97 510.285 369.169 510.285C368.183 510.285 367.436 510.646 366.928 511.369C366.43 512.082 366.181 513.244 366.181 514.855V515.295C366.181 516.926 366.43 518.098 366.928 518.811C367.426 519.523 368.183 519.88 369.198 519.88ZM377.592 514.929C377.592 513.356 377.895 511.955 378.5 510.725C379.105 509.494 379.975 508.542 381.107 507.868C382.25 507.194 383.573 506.857 385.077 506.857C387.216 506.857 388.959 507.512 390.307 508.82C391.664 510.129 392.421 511.906 392.577 514.152L392.606 515.236C392.606 517.668 391.928 519.621 390.57 521.096C389.213 522.561 387.392 523.293 385.106 523.293C382.821 523.293 380.995 522.561 379.628 521.096C378.271 519.631 377.592 517.639 377.592 515.119V514.929ZM381.825 515.236C381.825 516.74 382.108 517.893 382.675 518.693C383.241 519.484 384.052 519.88 385.106 519.88C386.132 519.88 386.933 519.489 387.509 518.708C388.085 517.917 388.373 516.657 388.373 514.929C388.373 513.454 388.085 512.312 387.509 511.501C386.933 510.69 386.122 510.285 385.077 510.285C384.042 510.285 383.241 510.69 382.675 511.501C382.108 512.302 381.825 513.547 381.825 515.236ZM399.184 507.15L399.315 508.923C400.438 507.546 401.957 506.857 403.871 506.857C405.912 506.857 407.313 507.663 408.075 509.274C409.188 507.663 410.775 506.857 412.836 506.857C414.555 506.857 415.834 507.36 416.674 508.366C417.514 509.362 417.934 510.866 417.934 512.878V523H413.686V512.893C413.686 511.994 413.51 511.34 413.158 510.93C412.807 510.51 412.187 510.3 411.298 510.3C410.028 510.3 409.149 510.905 408.661 512.116L408.676 523H404.442V512.907C404.442 511.989 404.262 511.325 403.9 510.915C403.539 510.505 402.924 510.3 402.055 510.3C400.854 510.3 399.984 510.798 399.447 511.794V523H395.214V507.15H399.184ZM428.495 523.293C426.171 523.293 424.276 522.58 422.812 521.154C421.356 519.729 420.629 517.829 420.629 515.456V515.046C420.629 513.454 420.937 512.033 421.552 510.783C422.167 509.523 423.036 508.557 424.159 507.883C425.292 507.199 426.581 506.857 428.026 506.857C430.194 506.857 431.898 507.541 433.139 508.908C434.389 510.275 435.014 512.214 435.014 514.724V516.452H424.921C425.058 517.487 425.468 518.317 426.151 518.942C426.845 519.567 427.719 519.88 428.773 519.88C430.404 519.88 431.679 519.289 432.597 518.107L434.677 520.437C434.042 521.335 433.183 522.038 432.099 522.546C431.015 523.044 429.813 523.293 428.495 523.293ZM428.012 510.285C427.172 510.285 426.488 510.568 425.961 511.135C425.443 511.701 425.111 512.512 424.965 513.566H430.854V513.229C430.834 512.292 430.58 511.569 430.092 511.062C429.604 510.544 428.91 510.285 428.012 510.285ZM445.18 523V501.672H452.65C455.238 501.672 457.201 502.17 458.539 503.166C459.877 504.152 460.546 505.603 460.546 507.517C460.546 508.562 460.277 509.484 459.74 510.285C459.203 511.076 458.456 511.657 457.499 512.028C458.593 512.302 459.452 512.854 460.077 513.684C460.712 514.514 461.029 515.529 461.029 516.73C461.029 518.781 460.375 520.334 459.066 521.389C457.758 522.443 455.893 522.98 453.471 523H445.18ZM449.574 513.713V519.47H453.339C454.374 519.47 455.18 519.226 455.756 518.737C456.342 518.239 456.635 517.556 456.635 516.687C456.635 514.733 455.624 513.742 453.603 513.713H449.574ZM449.574 510.607H452.826C455.043 510.568 456.151 509.685 456.151 507.956C456.151 506.989 455.868 506.296 455.302 505.876C454.745 505.446 453.861 505.231 452.65 505.231H449.574V510.607ZM473.246 523C473.051 522.619 472.909 522.146 472.821 521.579C471.796 522.722 470.463 523.293 468.822 523.293C467.27 523.293 465.98 522.844 464.955 521.945C463.939 521.047 463.432 519.914 463.432 518.547C463.432 516.867 464.052 515.578 465.292 514.68C466.542 513.781 468.344 513.327 470.697 513.317H472.646V512.409C472.646 511.677 472.455 511.091 472.074 510.651C471.703 510.212 471.112 509.992 470.302 509.992C469.589 509.992 469.027 510.163 468.617 510.505C468.217 510.847 468.017 511.315 468.017 511.911H463.783C463.783 510.993 464.066 510.144 464.633 509.362C465.199 508.581 466 507.971 467.035 507.531C468.07 507.082 469.232 506.857 470.521 506.857C472.475 506.857 474.022 507.351 475.165 508.337C476.317 509.313 476.894 510.69 476.894 512.468V519.338C476.903 520.842 477.113 521.979 477.523 522.751V523H473.246ZM469.745 520.056C470.37 520.056 470.946 519.919 471.474 519.646C472.001 519.362 472.392 518.986 472.646 518.518V515.793H471.063C468.944 515.793 467.816 516.525 467.68 517.99L467.665 518.239C467.665 518.767 467.851 519.201 468.222 519.543C468.593 519.885 469.101 520.056 469.745 520.056ZM486.737 519.88C487.519 519.88 488.153 519.665 488.642 519.235C489.13 518.806 489.384 518.234 489.403 517.521H493.373C493.363 518.596 493.07 519.582 492.494 520.48C491.918 521.369 491.127 522.062 490.121 522.561C489.125 523.049 488.021 523.293 486.811 523.293C484.545 523.293 482.758 522.575 481.449 521.14C480.141 519.694 479.486 517.702 479.486 515.163V514.885C479.486 512.443 480.136 510.495 481.435 509.04C482.733 507.585 484.516 506.857 486.781 506.857C488.764 506.857 490.351 507.424 491.542 508.557C492.743 509.68 493.354 511.179 493.373 513.054H489.403C489.384 512.233 489.13 511.569 488.642 511.062C488.153 510.544 487.509 510.285 486.708 510.285C485.722 510.285 484.975 510.646 484.467 511.369C483.969 512.082 483.72 513.244 483.72 514.855V515.295C483.72 516.926 483.969 518.098 484.467 518.811C484.965 519.523 485.722 519.88 486.737 519.88ZM501.547 516.643L500.023 518.166V523H495.79V500.5H500.023V512.966L500.844 511.911L504.901 507.15H509.984L504.257 513.757L510.482 523H505.619L501.547 516.643ZM552.676 497.406H557.949V515.125C557.949 516.754 557.586 518.195 556.859 519.449C556.145 520.691 555.131 521.652 553.818 522.332C552.506 523.012 551.023 523.352 549.371 523.352C546.664 523.352 544.555 522.666 543.043 521.295C541.531 519.912 540.775 517.961 540.775 515.441H546.084C546.084 516.695 546.348 517.621 546.875 518.219C547.402 518.816 548.234 519.115 549.371 519.115C550.379 519.115 551.182 518.77 551.779 518.078C552.377 517.387 552.676 516.402 552.676 515.125V497.406ZM561.342 513.314C561.342 511.428 561.705 509.746 562.432 508.27C563.158 506.793 564.201 505.65 565.561 504.842C566.932 504.033 568.52 503.629 570.324 503.629C572.891 503.629 574.982 504.414 576.6 505.984C578.229 507.555 579.137 509.688 579.324 512.383L579.359 513.684C579.359 516.602 578.545 518.945 576.916 520.715C575.287 522.473 573.102 523.352 570.359 523.352C567.617 523.352 565.426 522.473 563.785 520.715C562.156 518.957 561.342 516.566 561.342 513.543V513.314ZM566.422 513.684C566.422 515.488 566.762 516.871 567.441 517.832C568.121 518.781 569.094 519.256 570.359 519.256C571.59 519.256 572.551 518.787 573.242 517.85C573.934 516.9 574.279 515.389 574.279 513.314C574.279 511.545 573.934 510.174 573.242 509.201C572.551 508.229 571.578 507.742 570.324 507.742C569.082 507.742 568.121 508.229 567.441 509.201C566.762 510.162 566.422 511.656 566.422 513.684ZM587.445 506.055C588.793 504.438 590.486 503.629 592.525 503.629C596.65 503.629 598.742 506.025 598.801 510.818V523H593.721V510.959C593.721 509.869 593.486 509.066 593.018 508.551C592.549 508.023 591.77 507.76 590.68 507.76C589.191 507.76 588.113 508.334 587.445 509.482V523H582.365V496H587.445V506.055ZM607.309 503.98L607.467 506.178C608.826 504.479 610.648 503.629 612.934 503.629C614.949 503.629 616.449 504.221 617.434 505.404C618.418 506.588 618.922 508.357 618.945 510.713V523H613.865V510.836C613.865 509.758 613.631 508.979 613.162 508.498C612.693 508.006 611.914 507.76 610.824 507.76C609.395 507.76 608.322 508.369 607.607 509.588V523H602.527V503.98H607.309ZM645.383 516.285C645.383 515.289 645.031 514.527 644.328 514C643.625 513.461 642.359 512.898 640.531 512.312C638.703 511.715 637.256 511.129 636.189 510.555C633.283 508.984 631.83 506.869 631.83 504.209C631.83 502.826 632.217 501.596 632.99 500.518C633.775 499.428 634.895 498.578 636.348 497.969C637.812 497.359 639.453 497.055 641.27 497.055C643.098 497.055 644.727 497.389 646.156 498.057C647.586 498.713 648.693 499.645 649.479 500.852C650.275 502.059 650.674 503.43 650.674 504.965H645.4C645.4 503.793 645.031 502.885 644.293 502.24C643.555 501.584 642.518 501.256 641.182 501.256C639.893 501.256 638.891 501.531 638.176 502.082C637.461 502.621 637.104 503.336 637.104 504.227C637.104 505.059 637.52 505.756 638.352 506.318C639.195 506.881 640.432 507.408 642.061 507.9C645.061 508.803 647.246 509.922 648.617 511.258C649.988 512.594 650.674 514.258 650.674 516.25C650.674 518.465 649.836 520.205 648.16 521.471C646.484 522.725 644.229 523.352 641.393 523.352C639.424 523.352 637.631 522.994 636.014 522.279C634.396 521.553 633.16 520.562 632.305 519.309C631.461 518.055 631.039 516.602 631.039 514.949H636.33C636.33 517.773 638.018 519.186 641.393 519.186C642.646 519.186 643.625 518.934 644.328 518.43C645.031 517.914 645.383 517.199 645.383 516.285ZM658.689 503.98L658.848 506.107C660.195 504.455 662.018 503.629 664.314 503.629C666.764 503.629 668.445 504.596 669.359 506.529C670.695 504.596 672.6 503.629 675.072 503.629C677.135 503.629 678.67 504.232 679.678 505.439C680.686 506.635 681.189 508.439 681.189 510.854V523H676.092V510.871C676.092 509.793 675.881 509.008 675.459 508.516C675.037 508.012 674.293 507.76 673.227 507.76C671.703 507.76 670.648 508.486 670.062 509.939L670.08 523H665V510.889C665 509.787 664.783 508.99 664.35 508.498C663.916 508.006 663.178 507.76 662.135 507.76C660.693 507.76 659.65 508.357 659.006 509.553V523H653.926V503.98H658.689ZM690.471 523H685.373V503.98H690.471V523ZM685.074 499.059C685.074 498.297 685.326 497.67 685.83 497.178C686.346 496.686 687.043 496.439 687.922 496.439C688.789 496.439 689.48 496.686 689.996 497.178C690.512 497.67 690.77 498.297 690.77 499.059C690.77 499.832 690.506 500.465 689.979 500.957C689.463 501.449 688.777 501.695 687.922 501.695C687.066 501.695 686.375 501.449 685.848 500.957C685.332 500.465 685.074 499.832 685.074 499.059ZM700.754 499.305V503.98H704.006V507.707H700.754V517.199C700.754 517.902 700.889 518.406 701.158 518.711C701.428 519.016 701.943 519.168 702.705 519.168C703.268 519.168 703.766 519.127 704.199 519.045V522.895C703.203 523.199 702.178 523.352 701.123 523.352C697.561 523.352 695.744 521.553 695.674 517.955V507.707H692.896V503.98H695.674V499.305H700.754ZM711.793 506.055C713.141 504.438 714.834 503.629 716.873 503.629C720.998 503.629 723.09 506.025 723.148 510.818V523H718.068V510.959C718.068 509.869 717.834 509.066 717.365 508.551C716.896 508.023 716.117 507.76 715.027 507.76C713.539 507.76 712.461 508.334 711.793 509.482V523H706.713V496H711.793V506.055ZM732.148 515.143H727.93L727.332 497.406H732.746L732.148 515.143ZM730.039 517.92C730.895 517.92 731.58 518.172 732.096 518.676C732.623 519.18 732.887 519.824 732.887 520.609C732.887 521.383 732.623 522.021 732.096 522.525C731.58 523.029 730.895 523.281 730.039 523.281C729.195 523.281 728.51 523.029 727.982 522.525C727.467 522.021 727.209 521.383 727.209 520.609C727.209 519.836 727.467 519.197 727.982 518.693C728.51 518.178 729.195 517.92 730.039 517.92Z" fill="white"/>
<path d="M786.871 513.827L789.771 504.203H792.707L788.251 517H785.5L781.062 504.203H783.988L786.871 513.827ZM797.743 517.176C796.349 517.176 795.212 516.748 794.333 515.893C793.46 515.037 793.023 513.897 793.023 512.474V512.228C793.023 511.272 793.208 510.42 793.577 509.67C793.946 508.914 794.468 508.334 795.142 507.93C795.821 507.52 796.595 507.314 797.462 507.314C798.763 507.314 799.785 507.725 800.529 508.545C801.279 509.365 801.654 510.528 801.654 512.034V513.071H795.599C795.681 513.692 795.927 514.19 796.337 514.565C796.753 514.94 797.277 515.128 797.91 515.128C798.889 515.128 799.653 514.773 800.204 514.064L801.452 515.462C801.071 516.001 800.556 516.423 799.905 516.728C799.255 517.026 798.534 517.176 797.743 517.176ZM797.453 509.371C796.949 509.371 796.539 509.541 796.223 509.881C795.912 510.221 795.713 510.707 795.625 511.34H799.158V511.138C799.146 510.575 798.994 510.142 798.701 509.837C798.408 509.526 797.992 509.371 797.453 509.371ZM808.448 509.872C808.103 509.825 807.798 509.802 807.534 509.802C806.573 509.802 805.943 510.127 805.645 510.777V517H803.104V507.49H805.504L805.574 508.624C806.084 507.751 806.79 507.314 807.692 507.314C807.974 507.314 808.237 507.353 808.483 507.429L808.448 509.872ZM812.359 517H809.811V507.49H812.359V517ZM809.661 505.029C809.661 504.648 809.787 504.335 810.039 504.089C810.297 503.843 810.646 503.72 811.085 503.72C811.519 503.72 811.864 503.843 812.122 504.089C812.38 504.335 812.509 504.648 812.509 505.029C812.509 505.416 812.377 505.732 812.113 505.979C811.855 506.225 811.513 506.348 811.085 506.348C810.657 506.348 810.312 506.225 810.048 505.979C809.79 505.732 809.661 505.416 809.661 505.029ZM815.075 517V509.354H813.66V507.49H815.075V507.051C815.087 505.855 815.453 504.936 816.174 504.291C816.9 503.641 817.923 503.315 819.241 503.315C820.032 503.315 820.993 503.488 822.124 503.834L821.755 505.935C821.181 505.765 820.735 505.656 820.419 505.609C820.103 505.557 819.763 505.53 819.399 505.53C818.216 505.53 817.624 506.055 817.624 507.104V507.49H819.496V509.354H817.624V517H815.075ZM823.311 517H820.762V507.49H823.311V517ZM829.788 517.176C828.394 517.176 827.257 516.748 826.378 515.893C825.505 515.037 825.068 513.897 825.068 512.474V512.228C825.068 511.272 825.253 510.42 825.622 509.67C825.991 508.914 826.513 508.334 827.187 507.93C827.866 507.52 828.64 507.314 829.507 507.314C830.808 507.314 831.83 507.725 832.574 508.545C833.324 509.365 833.699 510.528 833.699 512.034V513.071H827.644C827.726 513.692 827.972 514.19 828.382 514.565C828.798 514.94 829.322 515.128 829.955 515.128C830.934 515.128 831.698 514.773 832.249 514.064L833.497 515.462C833.116 516.001 832.601 516.423 831.95 516.728C831.3 517.026 830.579 517.176 829.788 517.176ZM829.498 509.371C828.994 509.371 828.584 509.541 828.268 509.881C827.957 510.221 827.758 510.707 827.67 511.34H831.203V511.138C831.191 510.575 831.039 510.142 830.746 509.837C830.453 509.526 830.037 509.371 829.498 509.371ZM834.754 512.175C834.754 510.692 835.085 509.512 835.747 508.633C836.415 507.754 837.326 507.314 838.48 507.314C839.406 507.314 840.171 507.66 840.774 508.352V503.5H843.323V517H841.029L840.906 515.989C840.273 516.78 839.459 517.176 838.463 517.176C837.344 517.176 836.444 516.736 835.765 515.857C835.091 514.973 834.754 513.745 834.754 512.175ZM837.294 512.359C837.294 513.25 837.449 513.933 837.76 514.407C838.07 514.882 838.521 515.119 839.113 515.119C839.898 515.119 840.452 514.788 840.774 514.126V510.373C840.458 509.711 839.91 509.38 839.131 509.38C837.906 509.38 837.294 510.373 837.294 512.359Z" fill="#28A85F"/>
<defs>
<filter id="filter0_f_760:3" x="0" y="42" width="649" height="649" filterUnits="userSpaceOnUse" color-interpolation-filters="sRGB">
<feFlood flood-opacity="0" result="BackgroundImageFix"/>
<feBlend mode="normal" in="SourceGraphic" in2="BackgroundImageFix" result="shape"/>
<feGaussianBlur stdDeviation="100" result="effect1_foregroundBlur_760:3"/>
</filter>
<filter id="filter1_f_760:3" x="20" y="0" width="1235" height="1053" filterUnits="userSpaceOnUse" color-interpolation-filters="sRGB">
<feFlood flood-opacity="0" result="BackgroundImageFix"/>
<feBlend mode="normal" in="SourceGraphic" in2="BackgroundImageFix" result="shape"/>
<feGaussianBlur stdDeviation="100" result="effect1_foregroundBlur_760:3"/>
</filter>
</defs>
</svg>
