<svg width="508" height="508" viewBox="0 0 508 508" fill="none" xmlns="http://www.w3.org/2000/svg">
<circle cx="420.5" cy="82.5" r="70.5" fill="#1F92E0"/>
<path d="M413 47C413 41.4772 417.477 37 423 37C428.523 37 433 41.4772 433 47V94C433 99.5228 428.523 104 423 104C417.477 104 413 99.5228 413 94V47Z" fill="black"/>
<path d="M434 122.5C434 128.851 428.851 134 422.5 134C416.149 134 411 128.851 411 122.5C411 116.149 416.149 111 422.5 111C428.851 111 434 116.149 434 122.5Z" fill="black"/>
<path fill-rule="evenodd" clip-rule="evenodd" d="M247.476 120.14C203.656 120.14 168.085 155.71 168.085 199.531C168.085 243.351 203.655 278.922 247.476 278.922C291.297 278.922 326.874 243.352 326.874 199.531C326.874 155.711 291.296 120.14 247.476 120.14ZM247.476 137.64C281.636 137.64 309.374 165.37 309.374 199.531C309.374 233.692 281.636 261.422 247.476 261.422C213.316 261.422 185.585 233.692 185.585 199.531C185.585 165.37 213.315 137.64 247.476 137.64Z" fill="black"/>
<path fill-rule="evenodd" clip-rule="evenodd" d="M68.2457 422.67C66.7652 425.943 67.441 429.791 69.9449 432.365C114.922 478.697 177.855 507.502 247.475 507.502C317.095 507.502 380.025 478.697 425.005 432.365C427.509 429.791 428.181 425.943 426.704 422.67C419.86 407.533 410.306 393.611 398.337 381.643C372.278 355.584 336.939 340.948 300.083 340.948H194.873C158.025 340.948 122.678 355.589 96.6191 381.643C84.6501 393.612 75.0961 407.534 68.2521 422.67H68.2457ZM86.7887 424.483C92.5114 413.335 99.9647 403.045 108.988 394.026C131.765 371.241 162.66 358.448 194.871 358.448H300.081C332.288 358.448 363.186 371.241 385.964 394.026C394.983 403.045 402.441 413.338 408.163 424.483C366.698 465.014 309.987 490.003 247.483 490.003C184.983 490.003 128.263 465.015 86.8027 424.491L86.7949 424.483L86.7887 424.483Z" fill="black"/>
<path fill-rule="evenodd" clip-rule="evenodd" d="M422.986 0C376.341 0 338.47 37.871 338.47 84.523C338.47 131.168 376.341 169.039 422.986 169.039C469.642 169.039 507.509 131.168 507.509 84.523C507.509 37.867 469.638 0 422.986 0V0ZM422.986 17.5C459.982 17.5 490.009 47.531 490.009 84.523C490.009 121.507 459.978 151.539 422.986 151.539C386.002 151.539 355.97 121.508 355.97 84.523C355.97 47.527 386.001 17.5 422.986 17.5V17.5Z" fill="black"/>
<path fill-rule="evenodd" clip-rule="evenodd" d="M467.516 146.77C466.43 144.661 464.539 143.086 462.274 142.403C460 141.719 457.559 141.981 455.484 143.129C445.859 148.493 434.773 151.54 422.976 151.54C385.992 151.54 355.96 121.509 355.96 84.5236C355.96 72.7266 359.007 61.6406 364.371 52.0156C365.515 49.9414 365.781 47.5 365.097 45.2265C364.414 42.9609 362.839 41.0703 360.73 39.9843C326.781 22.4573 288.273 12.5623 247.47 12.5623C110.89 12.5623 0 123.452 0 260.032C0 396.612 110.89 507.502 247.47 507.502C384.05 507.502 494.94 396.612 494.94 260.032C494.94 219.231 485.046 180.723 467.518 146.772L467.516 146.77ZM455.739 162.45C469.661 192.087 477.438 225.153 477.438 260.028C477.438 386.948 374.398 489.998 247.468 489.998C120.548 489.998 17.4977 386.948 17.4977 260.028C17.4977 133.098 120.548 30.058 247.468 30.058C282.347 30.058 315.413 37.8353 345.046 51.757C340.804 61.827 338.456 72.898 338.456 84.519C338.456 131.164 376.327 169.035 422.972 169.035C434.593 169.035 445.66 166.691 455.734 162.445L455.739 162.45Z" fill="black"/>
<path fill-rule="evenodd" clip-rule="evenodd" d="M467.516 146.77C466.43 144.661 464.539 143.086 462.274 142.403C460 141.719 457.559 141.981 455.484 143.129C445.859 148.493 434.773 151.54 422.976 151.54C385.992 151.54 355.96 121.509 355.96 84.5236C355.96 72.7266 359.007 61.6406 364.371 52.0156C365.515 49.9414 365.781 47.5 365.097 45.2265C364.414 42.9609 362.839 41.0703 360.73 39.9843C326.781 22.4573 288.273 12.5623 247.47 12.5623C110.89 12.5623 0 123.452 0 260.032C0 396.612 110.89 507.502 247.47 507.502C384.05 507.502 494.94 396.612 494.94 260.032C494.94 219.231 485.046 180.723 467.518 146.772L467.516 146.77ZM455.739 162.45C469.661 192.087 477.438 225.153 477.438 260.028C477.438 386.948 374.398 489.998 247.468 489.998C120.548 489.998 17.4977 386.948 17.4977 260.028C17.4977 133.098 120.548 30.058 247.468 30.058C282.347 30.058 315.413 37.8353 345.046 51.757C340.804 61.827 338.456 72.898 338.456 84.519C338.456 131.164 376.327 169.035 422.972 169.035C434.593 169.035 445.66 166.691 455.734 162.445L455.739 162.45Z" fill="black"/>
</svg>
