<svg width="452" height="508" viewBox="0 0 452 508" fill="none" xmlns="http://www.w3.org/2000/svg">
<path d="M212.488 196.881H239.4V393.897H212.488V196.881Z" fill="black"/>
<path d="M261.607 0H190.285C177.791 0 165.813 4.96103 156.98 13.7936C148.146 22.6269 143.186 34.6043 143.186 47.099V64.8637H13.456C6.02149 64.8637 0 70.8855 0 78.3198C0 85.7496 6.02173 91.7757 13.456 91.7757H49.1825V427.257C49.1825 448.673 57.6918 469.207 72.8335 484.354C87.9753 499.496 108.513 508 129.931 508H321.96C343.376 508 363.915 499.495 379.057 484.354C394.199 469.208 402.708 448.674 402.708 427.257V91.7757H438.435C445.869 91.7757 451.891 85.7493 451.891 78.3198C451.891 70.8852 445.869 64.8637 438.435 64.8637H308.705V47.099C308.705 34.6055 303.744 22.6273 294.911 13.7936C286.078 4.96043 274.1 0 261.606 0H261.607ZM170.032 47.099C170.032 41.7438 172.158 36.609 175.941 32.826C179.729 29.0384 184.863 26.9121 190.219 26.9121H261.607C266.962 26.9121 272.097 29.0383 275.88 32.826C279.668 36.6089 281.794 41.7437 281.794 47.099V64.8637H170.098L170.032 47.099ZM375.795 91.777V427.258C375.795 441.536 370.125 455.226 360.03 465.323C349.934 475.419 336.243 481.088 321.965 481.088H129.935C115.657 481.088 101.967 475.418 91.8707 465.323C81.7742 455.227 76.1053 441.536 76.1053 427.258V91.777H375.795Z" fill="black"/>
<path d="M131.745 196.881H158.657V393.897H131.745V196.881Z" fill="black"/>
<path d="M293.231 196.881H320.143V393.897H293.231V196.881Z" fill="black"/>
</svg>
