<svg width="525" height="558" viewBox="0 0 525 558" fill="none" xmlns="http://www.w3.org/2000/svg">
<path d="M521.244 313.481C522.258 314.491 523.064 315.691 523.613 317.012C524.162 318.332 524.445 319.749 524.445 321.179C524.445 322.609 524.162 324.025 523.613 325.346C523.064 326.667 522.258 327.867 521.244 328.877L368.687 481.096C367.674 482.109 366.472 482.912 365.148 483.46C363.824 484.008 362.405 484.29 360.972 484.29C359.538 484.29 358.119 484.008 356.795 483.46C355.471 482.912 354.269 482.109 353.256 481.096L276.978 404.986C274.932 402.945 273.782 400.176 273.782 397.288C273.782 394.401 274.932 391.632 276.978 389.59C279.024 387.549 281.799 386.402 284.693 386.402C287.587 386.402 290.362 387.549 292.408 389.59L360.972 458.024L505.814 313.481C506.826 312.468 508.028 311.665 509.352 311.117C510.676 310.569 512.095 310.286 513.529 310.286C514.962 310.286 516.381 310.569 517.705 311.117C519.029 311.665 520.231 312.468 521.244 313.481V313.481Z" fill="black"/>
<path fill-rule="evenodd" clip-rule="evenodd" d="M518.776 419.102V419.107L518.777 419.103L518.776 419.102ZM211.652 251.184C244.962 251.184 276.908 237.956 300.46 214.399C324.016 190.848 337.249 158.907 337.249 125.597C337.249 92.2865 324.021 60.3404 300.464 36.789C276.913 13.2328 244.967 0 211.662 0C178.351 0 146.405 13.2328 122.854 36.7842C99.2977 60.3355 86.0649 92.2816 86.0649 125.592C86.1077 158.887 99.3501 190.81 122.893 214.352C146.436 237.9 178.358 251.141 211.653 251.185L211.652 251.184ZM211.652 21.2917C239.315 21.2917 265.843 32.281 285.402 51.8361C304.965 71.3951 315.954 97.9276 315.954 125.586C315.954 153.249 304.97 179.776 285.41 199.34C265.851 218.899 239.319 229.888 211.66 229.888C183.997 229.888 157.47 218.899 137.906 199.34C118.347 179.781 107.358 153.254 107.358 125.591C107.391 97.941 118.39 71.4328 137.94 51.8787C157.494 32.3246 184.002 21.3258 211.652 21.2917ZM321.137 333.44C287.812 314.921 249.925 306.209 211.856 308.319C152.774 306.969 106.44 323.063 73.797 355.442C21.0654 407.732 21.2941 486.675 21.3075 487.466C21.3741 493.341 16.6684 498.161 10.7936 498.232H10.6509C4.83313 498.232 0.0893954 493.56 0.00385363 487.742C-0.0436786 484.153 -0.480961 399.266 58.6432 340.471C95.5368 303.777 147.094 285.563 211.852 287.027C253.765 284.95 295.422 294.698 332.059 315.165C337.107 318.179 338.756 324.719 335.738 329.767C332.72 334.815 326.179 336.46 321.131 333.441L321.137 333.44Z" fill="black"/>
<path d="M232 338C232 350.253 222.273 360 210.5 360C198.727 360 189 350.253 189 338C189 325.747 198.727 316 210.5 316C222.273 316 232 325.747 232 338Z" fill="black" stroke="black" stroke-width="12"/>
<path d="M179 468.246L210.137 374L237 468.246L210.137 495L179 468.246Z" fill="black" stroke="black" stroke-width="10"/>
</svg>
