<svg width="525" height="558" viewBox="0 0 525 558" fill="none" xmlns="http://www.w3.org/2000/svg">
<path fill-rule="evenodd" clip-rule="evenodd" d="M519.331 419.102V419.107L519.332 419.103L519.331 419.102ZM212.207 251.184C245.517 251.184 277.463 237.956 301.014 214.399C324.571 190.848 337.804 158.907 337.804 125.597C337.804 92.2865 324.576 60.3404 301.019 36.789C277.468 13.2328 245.522 0 212.217 0C178.906 0 146.96 13.2328 123.409 36.7842C99.8527 60.3355 86.6199 92.2816 86.6199 125.592C86.6626 158.887 99.905 190.81 123.448 214.352C146.991 237.9 178.912 251.141 212.208 251.185L212.207 251.184ZM212.207 21.2917C239.87 21.2917 266.397 32.281 285.956 51.8361C305.52 71.3951 316.509 97.9276 316.509 125.586C316.509 153.249 305.525 179.776 285.965 199.34C266.406 218.899 239.873 229.888 212.215 229.888C184.552 229.888 158.025 218.899 138.461 199.34C118.902 179.781 107.913 153.254 107.913 125.591C107.946 97.941 118.945 71.4328 138.495 51.8787C158.049 32.3246 184.557 21.3258 212.207 21.2917ZM321.692 333.44C288.367 314.921 250.48 306.209 212.411 308.319C153.329 306.969 106.995 323.063 74.352 355.442C21.6203 407.732 21.8491 486.675 21.8624 487.466C21.929 493.341 17.2234 498.161 11.3485 498.232H11.2059C5.38806 498.232 0.644327 493.56 0.558785 487.742C0.511253 484.153 0.0739709 399.266 59.1981 340.471C96.0918 303.777 147.649 285.563 212.407 287.027C254.32 284.95 295.977 294.698 332.614 315.165C337.662 318.179 339.311 324.719 336.293 329.767C333.275 334.815 326.734 336.46 321.686 333.441L321.692 333.44Z" fill="black"/>
<path d="M521.799 313.481C522.813 314.491 523.619 315.691 524.168 317.012C524.717 318.332 525 319.749 525 321.179C525 322.609 524.717 324.025 524.168 325.346C523.619 326.667 522.813 327.867 521.799 328.877L369.241 481.096C368.229 482.109 367.027 482.912 365.703 483.46C364.379 484.008 362.96 484.29 361.526 484.29C360.093 484.29 358.674 484.008 357.35 483.46C356.026 482.912 354.824 482.109 353.811 481.096L277.533 404.986C275.487 402.945 274.337 400.176 274.337 397.288C274.337 394.401 275.487 391.632 277.533 389.59C279.579 387.549 282.354 386.402 285.248 386.402C288.142 386.402 290.917 387.549 292.963 389.59L361.526 458.024L506.369 313.481C507.381 312.468 508.583 311.665 509.907 311.117C511.231 310.569 512.65 310.286 514.084 310.286C515.517 310.286 516.936 310.569 518.26 311.117C519.584 311.665 520.786 312.468 521.799 313.481V313.481Z" fill="black"/>
</svg>
